<?xml version="1.0" encoding="UTF-8" standalone="no"?>
<!DOCTYPE svg PUBLIC "-//W3C//DTD SVG 1.1//EN"
 "http://www.w3.org/Graphics/SVG/1.1/DTD/svg11.dtd">
<!-- Generated by graphviz version 2.40.1 (20161225.0304)
 -->
<!-- Title: UmlClassDiagram Pages: 1 -->
<svg width="4037pt" height="1409pt"
 viewBox="0.00 0.00 4037.14 1408.80" xmlns="http://www.w3.org/2000/svg" xmlns:xlink="http://www.w3.org/1999/xlink">
<g id="graph0" class="graph" transform="scale(1 1) rotate(0) translate(4 1404.8)">
<title>UmlClassDiagram</title>
<polygon fill="#ffffff" stroke="transparent" points="-4,4 -4,-1404.8 4033.1384,-1404.8 4033.1384,4 -4,4"/>
<!-- 0 -->
<g id="node1" class="node">
<title>0</title>
<polygon fill="#f2f2f2" stroke="#000000" points="2938.9534,-1216.7 2938.9534,-1341.5 3157.098,-1341.5 3157.098,-1216.7 2938.9534,-1216.7"/>
<text text-anchor="middle" x="3048.0257" y="-1324.9" font-family="Times,serif" font-size="14.00" fill="#000000">&lt;&lt;Abstract&gt;&gt;</text>
<text text-anchor="middle" x="3048.0257" y="-1308.1" font-family="Times,serif" font-size="14.00" fill="#000000">Context</text>
<polyline fill="none" stroke="#000000" points="2938.9534,-1299.9 3157.098,-1299.9 "/>
<text text-anchor="middle" x="3048.0257" y="-1283.3" font-family="Times,serif" font-size="14.00" fill="#000000"> </text>
<polyline fill="none" stroke="#000000" points="2938.9534,-1275.1 3157.098,-1275.1 "/>
<text text-anchor="start" x="2946.9534" y="-1258.5" font-family="Times,serif" font-size="14.00" fill="#000000">Internal:</text>
<text text-anchor="start" x="2946.9534" y="-1241.7" font-family="Times,serif" font-size="14.00" fill="#000000"> &#160;&#160;&#160;_msgSender(): (payable: address)</text>
<text text-anchor="start" x="2946.9534" y="-1224.9" font-family="Times,serif" font-size="14.00" fill="#000000"> &#160;&#160;&#160;_msgData(): bytes</text>
</g>
<!-- 1 -->
<g id="node2" class="node">
<title>1</title>
<polygon fill="#f2f2f2" stroke="#000000" points="2106.7258,-1157.9 2106.7258,-1400.3 2545.3256,-1400.3 2545.3256,-1157.9 2106.7258,-1157.9"/>
<text text-anchor="middle" x="2326.0257" y="-1383.7" font-family="Times,serif" font-size="14.00" fill="#000000">&lt;&lt;Interface&gt;&gt;</text>
<text text-anchor="middle" x="2326.0257" y="-1366.9" font-family="Times,serif" font-size="14.00" fill="#000000">IERC20</text>
<polyline fill="none" stroke="#000000" points="2106.7258,-1358.7 2545.3256,-1358.7 "/>
<text text-anchor="middle" x="2326.0257" y="-1342.1" font-family="Times,serif" font-size="14.00" fill="#000000"> </text>
<polyline fill="none" stroke="#000000" points="2106.7258,-1333.9 2545.3256,-1333.9 "/>
<text text-anchor="start" x="2114.7258" y="-1317.3" font-family="Times,serif" font-size="14.00" fill="#000000">External:</text>
<text text-anchor="start" x="2114.7258" y="-1300.5" font-family="Times,serif" font-size="14.00" fill="#000000"> &#160;&#160;&#160;&#160;totalSupply(): uint256</text>
<text text-anchor="start" x="2114.7258" y="-1283.7" font-family="Times,serif" font-size="14.00" fill="#000000"> &#160;&#160;&#160;&#160;balanceOf(account: address): uint256</text>
<text text-anchor="start" x="2114.7258" y="-1266.9" font-family="Times,serif" font-size="14.00" fill="#000000"> &#160;&#160;&#160;&#160;transfer(recipient: address, amount: uint256): bool</text>
<text text-anchor="start" x="2114.7258" y="-1250.1" font-family="Times,serif" font-size="14.00" fill="#000000"> &#160;&#160;&#160;&#160;allowance(owner: address, spender: address): uint256</text>
<text text-anchor="start" x="2114.7258" y="-1233.3" font-family="Times,serif" font-size="14.00" fill="#000000"> &#160;&#160;&#160;&#160;approve(spender: address, amount: uint256): bool</text>
<text text-anchor="start" x="2114.7258" y="-1216.5" font-family="Times,serif" font-size="14.00" fill="#000000"> &#160;&#160;&#160;&#160;transferFrom(sender: address, recipient: address, amount: uint256): bool</text>
<text text-anchor="start" x="2114.7258" y="-1199.7" font-family="Times,serif" font-size="14.00" fill="#000000">Public:</text>
<text text-anchor="start" x="2114.7258" y="-1182.9" font-family="Times,serif" font-size="14.00" fill="#000000"> &#160;&#160;&#160;&lt;&lt;event&gt;&gt; Transfer(from: address, to: address, value: uint256)</text>
<text text-anchor="start" x="2114.7258" y="-1166.1" font-family="Times,serif" font-size="14.00" fill="#000000"> &#160;&#160;&#160;&lt;&lt;event&gt;&gt; Approval(owner: address, spender: address, value: uint256)</text>
</g>
<!-- 2 -->
<g id="node3" class="node">
<title>2</title>
<polygon fill="#f2f2f2" stroke="#000000" points="2563.3293,-1166.3 2563.3293,-1391.9 2920.7221,-1391.9 2920.7221,-1166.3 2563.3293,-1166.3"/>
<text text-anchor="middle" x="2742.0257" y="-1375.3" font-family="Times,serif" font-size="14.00" fill="#000000">&lt;&lt;Library&gt;&gt;</text>
<text text-anchor="middle" x="2742.0257" y="-1358.5" font-family="Times,serif" font-size="14.00" fill="#000000">SafeMath</text>
<polyline fill="none" stroke="#000000" points="2563.3293,-1350.3 2920.7221,-1350.3 "/>
<text text-anchor="middle" x="2742.0257" y="-1333.7" font-family="Times,serif" font-size="14.00" fill="#000000"> </text>
<polyline fill="none" stroke="#000000" points="2563.3293,-1325.5 2920.7221,-1325.5 "/>
<text text-anchor="start" x="2571.3293" y="-1308.9" font-family="Times,serif" font-size="14.00" fill="#000000">Internal:</text>
<text text-anchor="start" x="2571.3293" y="-1292.1" font-family="Times,serif" font-size="14.00" fill="#000000"> &#160;&#160;&#160;add(a: uint256, b: uint256): uint256</text>
<text text-anchor="start" x="2571.3293" y="-1275.3" font-family="Times,serif" font-size="14.00" fill="#000000"> &#160;&#160;&#160;sub(a: uint256, b: uint256): uint256</text>
<text text-anchor="start" x="2571.3293" y="-1258.5" font-family="Times,serif" font-size="14.00" fill="#000000"> &#160;&#160;&#160;sub(a: uint256, b: uint256, errorMessage: string): uint256</text>
<text text-anchor="start" x="2571.3293" y="-1241.7" font-family="Times,serif" font-size="14.00" fill="#000000"> &#160;&#160;&#160;mul(a: uint256, b: uint256): uint256</text>
<text text-anchor="start" x="2571.3293" y="-1224.9" font-family="Times,serif" font-size="14.00" fill="#000000"> &#160;&#160;&#160;div(a: uint256, b: uint256): uint256</text>
<text text-anchor="start" x="2571.3293" y="-1208.1" font-family="Times,serif" font-size="14.00" fill="#000000"> &#160;&#160;&#160;div(a: uint256, b: uint256, errorMessage: string): uint256</text>
<text text-anchor="start" x="2571.3293" y="-1191.3" font-family="Times,serif" font-size="14.00" fill="#000000"> &#160;&#160;&#160;mod(a: uint256, b: uint256): uint256</text>
<text text-anchor="start" x="2571.3293" y="-1174.5" font-family="Times,serif" font-size="14.00" fill="#000000"> &#160;&#160;&#160;mod(a: uint256, b: uint256, errorMessage: string): uint256</text>
</g>
<!-- 3 -->
<g id="node4" class="node">
<title>3</title>
<polygon fill="#f2f2f2" stroke="#000000" points="2508.4758,-626.5 2508.4758,-1120.9 2943.5756,-1120.9 2943.5756,-626.5 2508.4758,-626.5"/>
<text text-anchor="middle" x="2726.0257" y="-1104.3" font-family="Times,serif" font-size="14.00" fill="#000000">ERC20</text>
<polyline fill="none" stroke="#000000" points="2508.4758,-1096.1 2943.5756,-1096.1 "/>
<text text-anchor="start" x="2516.4758" y="-1079.5" font-family="Times,serif" font-size="14.00" fill="#000000">Private:</text>
<text text-anchor="start" x="2516.4758" y="-1062.7" font-family="Times,serif" font-size="14.00" fill="#000000"> &#160;&#160;_balances: mapping(address=&gt;uint256)</text>
<text text-anchor="start" x="2516.4758" y="-1045.9" font-family="Times,serif" font-size="14.00" fill="#000000"> &#160;&#160;_allowances: mapping(address=&gt;mapping(address=&gt;uint256))</text>
<text text-anchor="start" x="2516.4758" y="-1029.1" font-family="Times,serif" font-size="14.00" fill="#000000"> &#160;&#160;_totalSupply: uint256</text>
<text text-anchor="start" x="2516.4758" y="-1012.3" font-family="Times,serif" font-size="14.00" fill="#000000"> &#160;&#160;_name: string</text>
<text text-anchor="start" x="2516.4758" y="-995.5" font-family="Times,serif" font-size="14.00" fill="#000000"> &#160;&#160;_symbol: string</text>
<text text-anchor="start" x="2516.4758" y="-978.7" font-family="Times,serif" font-size="14.00" fill="#000000"> &#160;&#160;_decimals: uint8</text>
<polyline fill="none" stroke="#000000" points="2508.4758,-970.5 2943.5756,-970.5 "/>
<text text-anchor="start" x="2516.4758" y="-953.9" font-family="Times,serif" font-size="14.00" fill="#000000">Internal:</text>
<text text-anchor="start" x="2516.4758" y="-937.1" font-family="Times,serif" font-size="14.00" fill="#000000"> &#160;&#160;&#160;_transfer(sender: address, recipient: address, amount: uint256)</text>
<text text-anchor="start" x="2516.4758" y="-920.3" font-family="Times,serif" font-size="14.00" fill="#000000"> &#160;&#160;&#160;_mint(account: address, amount: uint256)</text>
<text text-anchor="start" x="2516.4758" y="-903.5" font-family="Times,serif" font-size="14.00" fill="#000000"> &#160;&#160;&#160;_burn(account: address, amount: uint256)</text>
<text text-anchor="start" x="2516.4758" y="-886.7" font-family="Times,serif" font-size="14.00" fill="#000000"> &#160;&#160;&#160;_approve(owner: address, spender: address, amount: uint256)</text>
<text text-anchor="start" x="2516.4758" y="-869.9" font-family="Times,serif" font-size="14.00" fill="#000000"> &#160;&#160;&#160;_setupDecimals(decimals_: uint8)</text>
<text text-anchor="start" x="2516.4758" y="-853.1" font-family="Times,serif" font-size="14.00" fill="#000000"> &#160;&#160;&#160;_beforeTokenTransfer(from: address, to: address, amount: uint256)</text>
<text text-anchor="start" x="2516.4758" y="-836.3" font-family="Times,serif" font-size="14.00" fill="#000000">Public:</text>
<text text-anchor="start" x="2516.4758" y="-819.5" font-family="Times,serif" font-size="14.00" fill="#000000"> &#160;&#160;&#160;constructor(name_: string, symbol_: string)</text>
<text text-anchor="start" x="2516.4758" y="-802.7" font-family="Times,serif" font-size="14.00" fill="#000000"> &#160;&#160;&#160;name(): string</text>
<text text-anchor="start" x="2516.4758" y="-785.9" font-family="Times,serif" font-size="14.00" fill="#000000"> &#160;&#160;&#160;symbol(): string</text>
<text text-anchor="start" x="2516.4758" y="-769.1" font-family="Times,serif" font-size="14.00" fill="#000000"> &#160;&#160;&#160;decimals(): uint8</text>
<text text-anchor="start" x="2516.4758" y="-752.3" font-family="Times,serif" font-size="14.00" fill="#000000"> &#160;&#160;&#160;totalSupply(): uint256</text>
<text text-anchor="start" x="2516.4758" y="-735.5" font-family="Times,serif" font-size="14.00" fill="#000000"> &#160;&#160;&#160;balanceOf(account: address): uint256</text>
<text text-anchor="start" x="2516.4758" y="-718.7" font-family="Times,serif" font-size="14.00" fill="#000000"> &#160;&#160;&#160;transfer(recipient: address, amount: uint256): bool</text>
<text text-anchor="start" x="2516.4758" y="-701.9" font-family="Times,serif" font-size="14.00" fill="#000000"> &#160;&#160;&#160;allowance(owner: address, spender: address): uint256</text>
<text text-anchor="start" x="2516.4758" y="-685.1" font-family="Times,serif" font-size="14.00" fill="#000000"> &#160;&#160;&#160;approve(spender: address, amount: uint256): bool</text>
<text text-anchor="start" x="2516.4758" y="-668.3" font-family="Times,serif" font-size="14.00" fill="#000000"> &#160;&#160;&#160;transferFrom(sender: address, recipient: address, amount: uint256): bool</text>
<text text-anchor="start" x="2516.4758" y="-651.5" font-family="Times,serif" font-size="14.00" fill="#000000"> &#160;&#160;&#160;increaseAllowance(spender: address, addedValue: uint256): bool</text>
<text text-anchor="start" x="2516.4758" y="-634.7" font-family="Times,serif" font-size="14.00" fill="#000000"> &#160;&#160;&#160;decreaseAllowance(spender: address, subtractedValue: uint256): bool</text>
</g>
<!-- 3&#45;&gt;0 -->
<g id="edge1" class="edge">
<title>3&#45;&gt;0</title>
<path fill="none" stroke="#000000" d="M2922.3794,-1120.9105C2942.658,-1146.4414 2962.1494,-1170.9813 2979.4792,-1192.7995"/>
<polygon fill="none" stroke="#000000" points="2971.5181,-1199.6587 2998.3989,-1216.6196 2987.9622,-1186.5975 2971.5181,-1199.6587"/>
</g>
<!-- 3&#45;&gt;1 -->
<g id="edge2" class="edge">
<title>3&#45;&gt;1</title>
<path fill="none" stroke="#000000" stroke-dasharray="5,2" d="M2508.4036,-1113.0039C2505.6023,-1115.8263 2502.8088,-1118.6261 2500.0257,-1121.4 2494.8765,-1126.5321 2489.6004,-1131.7144 2484.2401,-1136.915"/>
<polygon fill="none" stroke="#000000" points="2476.9834,-1129.3261 2462.5508,-1157.6449 2491.4931,-1144.5073 2476.9834,-1129.3261"/>
</g>
<!-- 3&#45;&gt;2 -->
<g id="edge3" class="edge">
<title>3&#45;&gt;2</title>
<path fill="none" stroke="#000000" stroke-dasharray="5,2" d="M2735.7824,-1120.9105C2736.2513,-1132.7918 2736.7118,-1144.4585 2737.1569,-1155.7362"/>
<polygon fill="#000000" stroke="#000000" points="2733.6694,-1156.1246 2737.5611,-1165.9788 2740.6639,-1155.8485 2733.6694,-1156.1246"/>
</g>
<!-- 4 -->
<g id="node5" class="node">
<title>4</title>
<polygon fill="#f2f2f2" stroke="#000000" points="2821.3321,-363.9 2821.3321,-488.7 3108.7193,-488.7 3108.7193,-363.9 2821.3321,-363.9"/>
<text text-anchor="middle" x="2965.0257" y="-472.1" font-family="Times,serif" font-size="14.00" fill="#000000">&lt;&lt;Abstract&gt;&gt;</text>
<text text-anchor="middle" x="2965.0257" y="-455.3" font-family="Times,serif" font-size="14.00" fill="#000000">ERC20Burnable</text>
<polyline fill="none" stroke="#000000" points="2821.3321,-447.1 3108.7193,-447.1 "/>
<text text-anchor="middle" x="2965.0257" y="-430.5" font-family="Times,serif" font-size="14.00" fill="#000000"> </text>
<polyline fill="none" stroke="#000000" points="2821.3321,-422.3 3108.7193,-422.3 "/>
<text text-anchor="start" x="2829.3321" y="-405.7" font-family="Times,serif" font-size="14.00" fill="#000000">Public:</text>
<text text-anchor="start" x="2829.3321" y="-388.9" font-family="Times,serif" font-size="14.00" fill="#000000"> &#160;&#160;&#160;burn(amount: uint256)</text>
<text text-anchor="start" x="2829.3321" y="-372.1" font-family="Times,serif" font-size="14.00" fill="#000000"> &#160;&#160;&#160;burnFrom(account: address, amount: uint256)</text>
</g>
<!-- 4&#45;&gt;0 -->
<g id="edge4" class="edge">
<title>4&#45;&gt;0</title>
<path fill="none" stroke="#000000" d="M2971.7618,-488.7965C2975.9636,-528.157 2981.4276,-580.0382 2986.0257,-626 3005.9939,-825.5979 3027.8321,-1059.678 3039.5161,-1186.3226"/>
<polygon fill="none" stroke="#000000" points="3029.0873,-1187.579 3042.2945,-1216.4895 3049.9988,-1185.6529 3029.0873,-1187.579"/>
</g>
<!-- 4&#45;&gt;2 -->
<g id="edge6" class="edge">
<title>4&#45;&gt;2</title>
<path fill="none" stroke="#000000" stroke-dasharray="5,2" d="M2967.0638,-488.8661C2971.8481,-649.1887 2981.3658,-1066.0363 2953.0257,-1121.4 2946.1026,-1134.9247 2937.4227,-1147.5949 2927.5587,-1159.4048"/>
<polygon fill="#000000" stroke="#000000" points="2924.8372,-1157.2006 2920.9123,-1167.0416 2930.1175,-1161.7961 2924.8372,-1157.2006"/>
</g>
<!-- 4&#45;&gt;3 -->
<g id="edge5" class="edge">
<title>4&#45;&gt;3</title>
<path fill="none" stroke="#000000" d="M2931.5421,-488.9801C2915.2885,-519.4063 2894.5186,-558.2869 2872.4569,-599.5857"/>
<polygon fill="none" stroke="#000000" points="2863.0707,-594.8721 2858.1966,-626.2806 2881.5934,-604.7669 2863.0707,-594.8721"/>
</g>
<!-- 5 -->
<g id="node6" class="node">
<title>5</title>
<polygon fill="#f2f2f2" stroke="#000000" points="1283.608,-1225.1 1283.608,-1333.1 1560.4434,-1333.1 1560.4434,-1225.1 1283.608,-1225.1"/>
<text text-anchor="middle" x="1422.0257" y="-1316.5" font-family="Times,serif" font-size="14.00" fill="#000000">&lt;&lt;Interface&gt;&gt;</text>
<text text-anchor="middle" x="1422.0257" y="-1299.7" font-family="Times,serif" font-size="14.00" fill="#000000">IERC165</text>
<polyline fill="none" stroke="#000000" points="1283.608,-1291.5 1560.4434,-1291.5 "/>
<text text-anchor="middle" x="1422.0257" y="-1274.9" font-family="Times,serif" font-size="14.00" fill="#000000"> </text>
<polyline fill="none" stroke="#000000" points="1283.608,-1266.7 1560.4434,-1266.7 "/>
<text text-anchor="start" x="1291.608" y="-1250.1" font-family="Times,serif" font-size="14.00" fill="#000000">External:</text>
<text text-anchor="start" x="1291.608" y="-1233.3" font-family="Times,serif" font-size="14.00" fill="#000000"> &#160;&#160;&#160;&#160;supportsInterface(interfaceId: bytes4): bool</text>
</g>
<!-- 6 -->
<g id="node7" class="node">
<title>6</title>
<polygon fill="#f2f2f2" stroke="#000000" points="1364.3762,-777.7 1364.3762,-969.7 1917.6752,-969.7 1917.6752,-777.7 1364.3762,-777.7"/>
<text text-anchor="middle" x="1641.0257" y="-953.1" font-family="Times,serif" font-size="14.00" fill="#000000">&lt;&lt;Interface&gt;&gt;</text>
<text text-anchor="middle" x="1641.0257" y="-936.3" font-family="Times,serif" font-size="14.00" fill="#000000">IERC1363</text>
<polyline fill="none" stroke="#000000" points="1364.3762,-928.1 1917.6752,-928.1 "/>
<text text-anchor="middle" x="1641.0257" y="-911.5" font-family="Times,serif" font-size="14.00" fill="#000000"> </text>
<polyline fill="none" stroke="#000000" points="1364.3762,-903.3 1917.6752,-903.3 "/>
<text text-anchor="start" x="1372.3762" y="-886.7" font-family="Times,serif" font-size="14.00" fill="#000000">External:</text>
<text text-anchor="start" x="1372.3762" y="-869.9" font-family="Times,serif" font-size="14.00" fill="#000000"> &#160;&#160;&#160;&#160;transferAndCall(recipient: address, amount: uint256): bool</text>
<text text-anchor="start" x="1372.3762" y="-853.1" font-family="Times,serif" font-size="14.00" fill="#000000"> &#160;&#160;&#160;&#160;transferAndCall(recipient: address, amount: uint256, data: bytes): bool</text>
<text text-anchor="start" x="1372.3762" y="-836.3" font-family="Times,serif" font-size="14.00" fill="#000000"> &#160;&#160;&#160;&#160;transferFromAndCall(sender: address, recipient: address, amount: uint256): bool</text>
<text text-anchor="start" x="1372.3762" y="-819.5" font-family="Times,serif" font-size="14.00" fill="#000000"> &#160;&#160;&#160;&#160;transferFromAndCall(sender: address, recipient: address, amount: uint256, data: bytes): bool</text>
<text text-anchor="start" x="1372.3762" y="-802.7" font-family="Times,serif" font-size="14.00" fill="#000000"> &#160;&#160;&#160;&#160;approveAndCall(spender: address, amount: uint256): bool</text>
<text text-anchor="start" x="1372.3762" y="-785.9" font-family="Times,serif" font-size="14.00" fill="#000000"> &#160;&#160;&#160;&#160;approveAndCall(spender: address, amount: uint256, data: bytes): bool</text>
</g>
<!-- 6&#45;&gt;1 -->
<g id="edge7" class="edge">
<title>6&#45;&gt;1</title>
<path fill="none" stroke="#000000" stroke-dasharray="5,2" d="M1734.7773,-969.7127C1787.4974,-1019.7895 1856.5355,-1079.2227 1926.0257,-1121.4 1973.2877,-1150.0857 2026.6833,-1175.373 2078.7077,-1196.8271"/>
<polygon fill="none" stroke="#000000" points="2074.8293,-1206.5845 2106.5813,-1208.0205 2082.6551,-1187.0972 2074.8293,-1206.5845"/>
</g>
<!-- 6&#45;&gt;5 -->
<g id="edge8" class="edge">
<title>6&#45;&gt;5</title>
<path fill="none" stroke="#000000" stroke-dasharray="5,2" d="M1589.1258,-969.7741C1551.5247,-1039.379 1501.2559,-1132.4336 1465.7051,-1198.2432"/>
<polygon fill="none" stroke="#000000" points="1456.2348,-1193.6825 1451.2142,-1225.0679 1474.7112,-1203.6636 1456.2348,-1193.6825"/>
</g>
<!-- 7 -->
<g id="node8" class="node">
<title>7</title>
<polygon fill="#f2f2f2" stroke="#000000" points="1935.2268,-819.7 1935.2268,-927.7 2490.8246,-927.7 2490.8246,-819.7 1935.2268,-819.7"/>
<text text-anchor="middle" x="2213.0257" y="-911.1" font-family="Times,serif" font-size="14.00" fill="#000000">&lt;&lt;Interface&gt;&gt;</text>
<text text-anchor="middle" x="2213.0257" y="-894.3" font-family="Times,serif" font-size="14.00" fill="#000000">IERC1363Receiver</text>
<polyline fill="none" stroke="#000000" points="1935.2268,-886.1 2490.8246,-886.1 "/>
<text text-anchor="middle" x="2213.0257" y="-869.5" font-family="Times,serif" font-size="14.00" fill="#000000"> </text>
<polyline fill="none" stroke="#000000" points="1935.2268,-861.3 2490.8246,-861.3 "/>
<text text-anchor="start" x="1943.2268" y="-844.7" font-family="Times,serif" font-size="14.00" fill="#000000">External:</text>
<text text-anchor="start" x="1943.2268" y="-827.9" font-family="Times,serif" font-size="14.00" fill="#000000"> &#160;&#160;&#160;&#160;onTransferReceived(operator: address, sender: address, amount: uint256, data: bytes): bytes4</text>
</g>
<!-- 8 -->
<g id="node9" class="node">
<title>8</title>
<polygon fill="#f2f2f2" stroke="#000000" points="0,-819.7 0,-927.7 458.0514,-927.7 458.0514,-819.7 0,-819.7"/>
<text text-anchor="middle" x="229.0257" y="-911.1" font-family="Times,serif" font-size="14.00" fill="#000000">&lt;&lt;Interface&gt;&gt;</text>
<text text-anchor="middle" x="229.0257" y="-894.3" font-family="Times,serif" font-size="14.00" fill="#000000">IERC1363Spender</text>
<polyline fill="none" stroke="#000000" points="0,-886.1 458.0514,-886.1 "/>
<text text-anchor="middle" x="229.0257" y="-869.5" font-family="Times,serif" font-size="14.00" fill="#000000"> </text>
<polyline fill="none" stroke="#000000" points="0,-861.3 458.0514,-861.3 "/>
<text text-anchor="start" x="8" y="-844.7" font-family="Times,serif" font-size="14.00" fill="#000000">External:</text>
<text text-anchor="start" x="8" y="-827.9" font-family="Times,serif" font-size="14.00" fill="#000000"> &#160;&#160;&#160;&#160;onApprovalReceived(sender: address, amount: uint256, data: bytes): bytes4</text>
</g>
<!-- 9 -->
<g id="node10" class="node">
<title>9</title>
<polygon fill="#f2f2f2" stroke="#000000" points="475.9677,-744.1 475.9677,-1003.3 1042.0837,-1003.3 1042.0837,-744.1 475.9677,-744.1"/>
<text text-anchor="middle" x="759.0257" y="-986.7" font-family="Times,serif" font-size="14.00" fill="#000000">&lt;&lt;Library&gt;&gt;</text>
<text text-anchor="middle" x="759.0257" y="-969.9" font-family="Times,serif" font-size="14.00" fill="#000000">Address</text>
<polyline fill="none" stroke="#000000" points="475.9677,-961.7 1042.0837,-961.7 "/>
<text text-anchor="middle" x="759.0257" y="-945.1" font-family="Times,serif" font-size="14.00" fill="#000000"> </text>
<polyline fill="none" stroke="#000000" points="475.9677,-936.9 1042.0837,-936.9 "/>
<text text-anchor="start" x="483.9677" y="-920.3" font-family="Times,serif" font-size="14.00" fill="#000000">Private:</text>
<text text-anchor="start" x="483.9677" y="-903.5" font-family="Times,serif" font-size="14.00" fill="#000000"> &#160;&#160;&#160;_verifyCallResult(success: bool, returndata: bytes, errorMessage: string): bytes</text>
<text text-anchor="start" x="483.9677" y="-886.7" font-family="Times,serif" font-size="14.00" fill="#000000">Internal:</text>
<text text-anchor="start" x="483.9677" y="-869.9" font-family="Times,serif" font-size="14.00" fill="#000000"> &#160;&#160;&#160;isContract(account: address): bool</text>
<text text-anchor="start" x="483.9677" y="-853.1" font-family="Times,serif" font-size="14.00" fill="#000000"> &#160;&#160;&#160;sendValue(recipient: address, amount: uint256)</text>
<text text-anchor="start" x="483.9677" y="-836.3" font-family="Times,serif" font-size="14.00" fill="#000000"> &#160;&#160;&#160;functionCall(target: address, data: bytes): bytes</text>
<text text-anchor="start" x="483.9677" y="-819.5" font-family="Times,serif" font-size="14.00" fill="#000000"> &#160;&#160;&#160;functionCall(target: address, data: bytes, errorMessage: string): bytes</text>
<text text-anchor="start" x="483.9677" y="-802.7" font-family="Times,serif" font-size="14.00" fill="#000000"> &#160;&#160;&#160;functionCallWithValue(target: address, data: bytes, value: uint256): bytes</text>
<text text-anchor="start" x="483.9677" y="-785.9" font-family="Times,serif" font-size="14.00" fill="#000000"> &#160;&#160;&#160;functionCallWithValue(target: address, data: bytes, value: uint256, errorMessage: string): bytes</text>
<text text-anchor="start" x="483.9677" y="-769.1" font-family="Times,serif" font-size="14.00" fill="#000000"> &#160;&#160;&#160;functionStaticCall(target: address, data: bytes): bytes</text>
<text text-anchor="start" x="483.9677" y="-752.3" font-family="Times,serif" font-size="14.00" fill="#000000"> &#160;&#160;&#160;functionStaticCall(target: address, data: bytes, errorMessage: string): bytes</text>
</g>
<!-- 10 -->
<g id="node11" class="node">
<title>10</title>
<polygon fill="#f2f2f2" stroke="#000000" points="3536.913,-.5 3536.913,-226.1 4029.1384,-226.1 4029.1384,-.5 3536.913,-.5"/>
<text text-anchor="middle" x="3783.0257" y="-209.5" font-family="Times,serif" font-size="14.00" fill="#000000">&lt;&lt;Library&gt;&gt;</text>
<text text-anchor="middle" x="3783.0257" y="-192.7" font-family="Times,serif" font-size="14.00" fill="#000000">ERC165Checker</text>
<polyline fill="none" stroke="#000000" points="3536.913,-184.5 4029.1384,-184.5 "/>
<text text-anchor="start" x="3544.913" y="-167.9" font-family="Times,serif" font-size="14.00" fill="#000000">Private:</text>
<text text-anchor="start" x="3544.913" y="-151.1" font-family="Times,serif" font-size="14.00" fill="#000000"> &#160;&#160;_INTERFACE_ID_INVALID: bytes4</text>
<text text-anchor="start" x="3544.913" y="-134.3" font-family="Times,serif" font-size="14.00" fill="#000000"> &#160;&#160;_INTERFACE_ID_ERC165: bytes4</text>
<polyline fill="none" stroke="#000000" points="3536.913,-126.1 4029.1384,-126.1 "/>
<text text-anchor="start" x="3544.913" y="-109.5" font-family="Times,serif" font-size="14.00" fill="#000000">Private:</text>
<text text-anchor="start" x="3544.913" y="-92.7" font-family="Times,serif" font-size="14.00" fill="#000000"> &#160;&#160;&#160;_supportsERC165Interface(account: address, interfaceId: bytes4): bool</text>
<text text-anchor="start" x="3544.913" y="-75.9" font-family="Times,serif" font-size="14.00" fill="#000000"> &#160;&#160;&#160;_callERC165SupportsInterface(account: address, interfaceId: bytes4): (bool, bool)</text>
<text text-anchor="start" x="3544.913" y="-59.1" font-family="Times,serif" font-size="14.00" fill="#000000">Internal:</text>
<text text-anchor="start" x="3544.913" y="-42.3" font-family="Times,serif" font-size="14.00" fill="#000000"> &#160;&#160;&#160;supportsERC165(account: address): bool</text>
<text text-anchor="start" x="3544.913" y="-25.5" font-family="Times,serif" font-size="14.00" fill="#000000"> &#160;&#160;&#160;supportsInterface(account: address, interfaceId: bytes4): bool</text>
<text text-anchor="start" x="3544.913" y="-8.7" font-family="Times,serif" font-size="14.00" fill="#000000"> &#160;&#160;&#160;supportsAllInterfaces(account: address, interfaceIds: bytes4[]): bool</text>
</g>
<!-- 11 -->
<g id="node12" class="node">
<title>11</title>
<polygon fill="#f2f2f2" stroke="#000000" points="1059.6142,-777.7 1059.6142,-969.7 1346.4372,-969.7 1346.4372,-777.7 1059.6142,-777.7"/>
<text text-anchor="middle" x="1203.0257" y="-953.1" font-family="Times,serif" font-size="14.00" fill="#000000">&lt;&lt;Abstract&gt;&gt;</text>
<text text-anchor="middle" x="1203.0257" y="-936.3" font-family="Times,serif" font-size="14.00" fill="#000000">ERC165</text>
<polyline fill="none" stroke="#000000" points="1059.6142,-928.1 1346.4372,-928.1 "/>
<text text-anchor="start" x="1067.6142" y="-911.5" font-family="Times,serif" font-size="14.00" fill="#000000">Private:</text>
<text text-anchor="start" x="1067.6142" y="-894.7" font-family="Times,serif" font-size="14.00" fill="#000000"> &#160;&#160;_INTERFACE_ID_ERC165: bytes4</text>
<text text-anchor="start" x="1067.6142" y="-877.9" font-family="Times,serif" font-size="14.00" fill="#000000"> &#160;&#160;_supportedInterfaces: mapping(bytes4=&gt;bool)</text>
<polyline fill="none" stroke="#000000" points="1059.6142,-869.7 1346.4372,-869.7 "/>
<text text-anchor="start" x="1067.6142" y="-853.1" font-family="Times,serif" font-size="14.00" fill="#000000">Internal:</text>
<text text-anchor="start" x="1067.6142" y="-836.3" font-family="Times,serif" font-size="14.00" fill="#000000"> &#160;&#160;&#160;_registerInterface(interfaceId: bytes4)</text>
<text text-anchor="start" x="1067.6142" y="-819.5" font-family="Times,serif" font-size="14.00" fill="#000000">Public:</text>
<text text-anchor="start" x="1067.6142" y="-802.7" font-family="Times,serif" font-size="14.00" fill="#000000"> &#160;&#160;&#160;constructor()</text>
<text text-anchor="start" x="1067.6142" y="-785.9" font-family="Times,serif" font-size="14.00" fill="#000000"> &#160;&#160;&#160;supportsInterface(interfaceId: bytes4): bool</text>
</g>
<!-- 11&#45;&gt;5 -->
<g id="edge9" class="edge">
<title>11&#45;&gt;5</title>
<path fill="none" stroke="#000000" stroke-dasharray="5,2" d="M1254.9256,-969.7741C1292.5267,-1039.379 1342.7955,-1132.4336 1378.3463,-1198.2432"/>
<polygon fill="none" stroke="#000000" points="1369.3402,-1203.6636 1392.8372,-1225.0679 1387.8166,-1193.6825 1369.3402,-1203.6636"/>
</g>
<!-- 12 -->
<g id="node13" class="node">
<title>12</title>
<polygon fill="#f2f2f2" stroke="#000000" points="1965.1402,-263.1 1965.1402,-589.5 2528.9112,-589.5 2528.9112,-263.1 1965.1402,-263.1"/>
<text text-anchor="middle" x="2247.0257" y="-572.9" font-family="Times,serif" font-size="14.00" fill="#000000">ERC1363</text>
<polyline fill="none" stroke="#000000" points="1965.1402,-564.7 2528.9112,-564.7 "/>
<text text-anchor="start" x="1973.1402" y="-548.1" font-family="Times,serif" font-size="14.00" fill="#000000">Private:</text>
<text text-anchor="start" x="1973.1402" y="-531.3" font-family="Times,serif" font-size="14.00" fill="#000000"> &#160;&#160;_ERC1363_RECEIVED: bytes4</text>
<text text-anchor="start" x="1973.1402" y="-514.5" font-family="Times,serif" font-size="14.00" fill="#000000"> &#160;&#160;_ERC1363_APPROVED: bytes4</text>
<text text-anchor="start" x="1973.1402" y="-497.7" font-family="Times,serif" font-size="14.00" fill="#000000">Internal:</text>
<text text-anchor="start" x="1973.1402" y="-480.9" font-family="Times,serif" font-size="14.00" fill="#000000"> &#160;&#160;_INTERFACE_ID_ERC1363_TRANSFER: bytes4</text>
<text text-anchor="start" x="1973.1402" y="-464.1" font-family="Times,serif" font-size="14.00" fill="#000000"> &#160;&#160;_INTERFACE_ID_ERC1363_APPROVE: bytes4</text>
<polyline fill="none" stroke="#000000" points="1965.1402,-455.9 2528.9112,-455.9 "/>
<text text-anchor="start" x="1973.1402" y="-439.3" font-family="Times,serif" font-size="14.00" fill="#000000">Internal:</text>
<text text-anchor="start" x="1973.1402" y="-422.5" font-family="Times,serif" font-size="14.00" fill="#000000"> &#160;&#160;&#160;_checkAndCallTransfer(sender: address, recipient: address, amount: uint256, data: bytes): bool</text>
<text text-anchor="start" x="1973.1402" y="-405.7" font-family="Times,serif" font-size="14.00" fill="#000000"> &#160;&#160;&#160;_checkAndCallApprove(spender: address, amount: uint256, data: bytes): bool</text>
<text text-anchor="start" x="1973.1402" y="-388.9" font-family="Times,serif" font-size="14.00" fill="#000000">Public:</text>
<text text-anchor="start" x="1973.1402" y="-372.1" font-family="Times,serif" font-size="14.00" fill="#000000"> &#160;&#160;&#160;constructor(name: string, symbol: string)</text>
<text text-anchor="start" x="1973.1402" y="-355.3" font-family="Times,serif" font-size="14.00" fill="#000000"> &#160;&#160;&#160;transferAndCall(recipient: address, amount: uint256): bool</text>
<text text-anchor="start" x="1973.1402" y="-338.5" font-family="Times,serif" font-size="14.00" fill="#000000"> &#160;&#160;&#160;transferAndCall(recipient: address, amount: uint256, data: bytes): bool</text>
<text text-anchor="start" x="1973.1402" y="-321.7" font-family="Times,serif" font-size="14.00" fill="#000000"> &#160;&#160;&#160;transferFromAndCall(sender: address, recipient: address, amount: uint256): bool</text>
<text text-anchor="start" x="1973.1402" y="-304.9" font-family="Times,serif" font-size="14.00" fill="#000000"> &#160;&#160;&#160;transferFromAndCall(sender: address, recipient: address, amount: uint256, data: bytes): bool</text>
<text text-anchor="start" x="1973.1402" y="-288.1" font-family="Times,serif" font-size="14.00" fill="#000000"> &#160;&#160;&#160;approveAndCall(spender: address, amount: uint256): bool</text>
<text text-anchor="start" x="1973.1402" y="-271.3" font-family="Times,serif" font-size="14.00" fill="#000000"> &#160;&#160;&#160;approveAndCall(spender: address, amount: uint256, data: bytes): bool</text>
</g>
<!-- 12&#45;&gt;3 -->
<g id="edge10" class="edge">
<title>12&#45;&gt;3</title>
<path fill="none" stroke="#000000" d="M2459.3822,-589.6777C2467.7863,-596.9209 2476.0815,-604.2128 2485.9999,-613.2111"/>
<polygon fill="none" stroke="#000000" points="2479.1746,-621.2001 2508.3471,-633.8182 2493.4106,-605.762 2479.1746,-621.2001"/>
</g>
<!-- 12&#45;&gt;6 -->
<g id="edge11" class="edge">
<title>12&#45;&gt;6</title>
<path fill="none" stroke="#000000" stroke-dasharray="5,2" d="M1977.3607,-589.6287C1959.7809,-601.6326 1942.5258,-613.817 1926.0257,-626 1871.5068,-666.2544 1814.5445,-714.3903 1766.0025,-757.478"/>
<polygon fill="none" stroke="#000000" points="1758.9649,-749.6854 1743.6163,-777.5184 1772.9717,-765.3318 1758.9649,-749.6854"/>
</g>
<!-- 12&#45;&gt;7 -->
<g id="edge14" class="edge">
<title>12&#45;&gt;7</title>
<path fill="none" stroke="#000000" stroke-dasharray="5,2" d="M2234.6066,-589.7208C2228.8085,-666.017 2222.2421,-752.4226 2217.891,-809.6777"/>
<polygon fill="#000000" stroke="#000000" points="2214.3998,-809.4305 2217.1319,-819.667 2221.3797,-809.961 2214.3998,-809.4305"/>
</g>
<!-- 12&#45;&gt;8 -->
<g id="edge15" class="edge">
<title>12&#45;&gt;8</title>
<path fill="none" stroke="#000000" stroke-dasharray="5,2" d="M1964.8335,-587.4744C1961.8964,-588.3508 1958.96,-589.1933 1956.0257,-590 1796.4536,-633.8705 618.4862,-559.3099 467.0257,-626 380.0188,-664.3103 309.0851,-750.955 267.944,-810.884"/>
<polygon fill="#000000" stroke="#000000" points="264.8025,-809.281 262.0918,-819.5232 270.598,-813.2069 264.8025,-809.281"/>
</g>
<!-- 12&#45;&gt;9 -->
<g id="edge13" class="edge">
<title>12&#45;&gt;9</title>
<path fill="none" stroke="#000000" stroke-dasharray="5,2" d="M1964.8152,-587.4086C1961.8839,-588.306 1958.9537,-589.1704 1956.0257,-590 1762.3779,-644.8654 1238.5566,-552.9121 1051.0257,-626 988.9981,-650.1745 930.8158,-693.3396 882.9621,-736.9385"/>
<polygon fill="#000000" stroke="#000000" points="880.3512,-734.5851 875.3716,-743.9368 885.0961,-739.7316 880.3512,-734.5851"/>
</g>
<!-- 12&#45;&gt;11 -->
<g id="edge12" class="edge">
<title>12&#45;&gt;11</title>
<path fill="none" stroke="#000000" d="M1964.7908,-587.3242C1961.8673,-588.2486 1958.9452,-589.1411 1956.0257,-590 1827.6702,-627.7619 1469.7748,-557.1979 1355.0257,-626 1307.9104,-654.2498 1273.377,-703.2767 1249.2458,-750.2969"/>
<polygon fill="none" stroke="#000000" points="1239.6713,-745.9807 1236.2233,-777.5776 1258.6228,-755.0273 1239.6713,-745.9807"/>
</g>
<!-- 13 -->
<g id="node14" class="node">
<title>13</title>
<polygon fill="#f2f2f2" stroke="#000000" points="2546.4934,-313.5 2546.4934,-539.1 2803.558,-539.1 2803.558,-313.5 2546.4934,-313.5"/>
<text text-anchor="middle" x="2675.0257" y="-522.5" font-family="Times,serif" font-size="14.00" fill="#000000">&lt;&lt;Abstract&gt;&gt;</text>
<text text-anchor="middle" x="2675.0257" y="-505.7" font-family="Times,serif" font-size="14.00" fill="#000000">ERC20Mintable</text>
<polyline fill="none" stroke="#000000" points="2546.4934,-497.5 2803.558,-497.5 "/>
<text text-anchor="start" x="2554.4934" y="-480.9" font-family="Times,serif" font-size="14.00" fill="#000000">Private:</text>
<text text-anchor="start" x="2554.4934" y="-464.1" font-family="Times,serif" font-size="14.00" fill="#000000"> &#160;&#160;_mintingFinished: bool</text>
<polyline fill="none" stroke="#000000" points="2546.4934,-455.9 2803.558,-455.9 "/>
<text text-anchor="start" x="2554.4934" y="-439.3" font-family="Times,serif" font-size="14.00" fill="#000000">Internal:</text>
<text text-anchor="start" x="2554.4934" y="-422.5" font-family="Times,serif" font-size="14.00" fill="#000000"> &#160;&#160;&#160;_finishMinting()</text>
<text text-anchor="start" x="2554.4934" y="-405.7" font-family="Times,serif" font-size="14.00" fill="#000000">Public:</text>
<text text-anchor="start" x="2554.4934" y="-388.9" font-family="Times,serif" font-size="14.00" fill="#000000"> &#160;&#160;&#160;&lt;&lt;event&gt;&gt; MintFinished()</text>
<text text-anchor="start" x="2554.4934" y="-372.1" font-family="Times,serif" font-size="14.00" fill="#000000"> &#160;&#160;&#160;&lt;&lt;modifier&gt;&gt; canMint()</text>
<text text-anchor="start" x="2554.4934" y="-355.3" font-family="Times,serif" font-size="14.00" fill="#000000"> &#160;&#160;&#160;mintingFinished(): bool</text>
<text text-anchor="start" x="2554.4934" y="-338.5" font-family="Times,serif" font-size="14.00" fill="#000000"> &#160;&#160;&#160;mint(account: address, amount: uint256)</text>
<text text-anchor="start" x="2554.4934" y="-321.7" font-family="Times,serif" font-size="14.00" fill="#000000"> &#160;&#160;&#160;finishMinting()</text>
</g>
<!-- 13&#45;&gt;3 -->
<g id="edge16" class="edge">
<title>13&#45;&gt;3</title>
<path fill="none" stroke="#000000" d="M2687.8952,-539.1979C2689.9451,-557.1809 2692.1407,-576.442 2694.4047,-596.3032"/>
<polygon fill="none" stroke="#000000" points="2683.9918,-597.6648 2697.8221,-626.2825 2704.8567,-595.2863 2683.9918,-597.6648"/>
</g>
<!-- 14 -->
<g id="node15" class="node">
<title>14</title>
<polygon fill="#f2f2f2" stroke="#000000" points="3075.5887,-769.3 3075.5887,-978.1 3560.4627,-978.1 3560.4627,-769.3 3075.5887,-769.3"/>
<text text-anchor="middle" x="3318.0257" y="-961.5" font-family="Times,serif" font-size="14.00" fill="#000000">&lt;&lt;Abstract&gt;&gt;</text>
<text text-anchor="middle" x="3318.0257" y="-944.7" font-family="Times,serif" font-size="14.00" fill="#000000">Ownable</text>
<polyline fill="none" stroke="#000000" points="3075.5887,-936.5 3560.4627,-936.5 "/>
<text text-anchor="start" x="3083.5887" y="-919.9" font-family="Times,serif" font-size="14.00" fill="#000000">Private:</text>
<text text-anchor="start" x="3083.5887" y="-903.1" font-family="Times,serif" font-size="14.00" fill="#000000"> &#160;&#160;_owner: address</text>
<polyline fill="none" stroke="#000000" points="3075.5887,-894.9 3560.4627,-894.9 "/>
<text text-anchor="start" x="3083.5887" y="-878.3" font-family="Times,serif" font-size="14.00" fill="#000000">Public:</text>
<text text-anchor="start" x="3083.5887" y="-861.5" font-family="Times,serif" font-size="14.00" fill="#000000"> &#160;&#160;&#160;&lt;&lt;event&gt;&gt; OwnershipTransferred(previousOwner: address, newOwner: address)</text>
<text text-anchor="start" x="3083.5887" y="-844.7" font-family="Times,serif" font-size="14.00" fill="#000000"> &#160;&#160;&#160;&lt;&lt;modifier&gt;&gt; onlyOwner()</text>
<text text-anchor="start" x="3083.5887" y="-827.9" font-family="Times,serif" font-size="14.00" fill="#000000"> &#160;&#160;&#160;constructor()</text>
<text text-anchor="start" x="3083.5887" y="-811.1" font-family="Times,serif" font-size="14.00" fill="#000000"> &#160;&#160;&#160;owner(): address</text>
<text text-anchor="start" x="3083.5887" y="-794.3" font-family="Times,serif" font-size="14.00" fill="#000000"> &#160;&#160;&#160;renounceOwnership()</text>
<text text-anchor="start" x="3083.5887" y="-777.5" font-family="Times,serif" font-size="14.00" fill="#000000"> &#160;&#160;&#160;transferOwnership(newOwner: address)</text>
</g>
<!-- 14&#45;&gt;0 -->
<g id="edge17" class="edge">
<title>14&#45;&gt;0</title>
<path fill="none" stroke="#000000" d="M3248.494,-978.1006C3204.5394,-1044.0976 3148.3676,-1128.4385 3106.6729,-1191.0423"/>
<polygon fill="none" stroke="#000000" points="3097.6585,-1185.6353 3089.768,-1216.4248 3115.1368,-1197.276 3097.6585,-1185.6353"/>
</g>
<!-- 15 -->
<g id="node16" class="node">
<title>15</title>
<polygon fill="#f2f2f2" stroke="#000000" points="3126.5144,-380.7 3126.5144,-471.9 3509.537,-471.9 3509.537,-380.7 3126.5144,-380.7"/>
<text text-anchor="middle" x="3318.0257" y="-455.3" font-family="Times,serif" font-size="14.00" fill="#000000">TokenRecover</text>
<polyline fill="none" stroke="#000000" points="3126.5144,-447.1 3509.537,-447.1 "/>
<text text-anchor="middle" x="3318.0257" y="-430.5" font-family="Times,serif" font-size="14.00" fill="#000000"> </text>
<polyline fill="none" stroke="#000000" points="3126.5144,-422.3 3509.537,-422.3 "/>
<text text-anchor="start" x="3134.5144" y="-405.7" font-family="Times,serif" font-size="14.00" fill="#000000">Public:</text>
<text text-anchor="start" x="3134.5144" y="-388.9" font-family="Times,serif" font-size="14.00" fill="#000000"> &#160;&#160;&#160;recoverERC20(tokenAddress: address, tokenAmount: uint256)</text>
</g>
<!-- 15&#45;&gt;1 -->
<g id="edge19" class="edge">
<title>15&#45;&gt;1</title>
<path fill="none" stroke="#000000" stroke-dasharray="5,2" d="M3264.1144,-472.1804C3224.3323,-505.6024 3168.5589,-551.5612 3118.0257,-590 3095.9434,-606.7973 3082.4885,-602.9635 3067.0257,-626 2941.1088,-813.5908 3123.2845,-972.883 2953.0257,-1121.4 2888.1641,-1177.9788 2655.5098,-1135.0001 2555.4559,-1157.457"/>
<polygon fill="#000000" stroke="#000000" points="2554.428,-1154.1078 2545.6287,-1160.009 2556.1874,-1160.8831 2554.428,-1154.1078"/>
</g>
<!-- 15&#45;&gt;14 -->
<g id="edge18" class="edge">
<title>15&#45;&gt;14</title>
<path fill="none" stroke="#000000" d="M3318.0257,-472.0771C3318.0257,-534.3375 3318.0257,-648.3441 3318.0257,-739.0269"/>
<polygon fill="none" stroke="#000000" points="3307.5258,-739.0842 3318.0257,-769.0843 3328.5258,-739.0843 3307.5258,-739.0842"/>
</g>
<!-- 16 -->
<g id="node17" class="node">
<title>16</title>
<polygon fill="#f2f2f2" stroke="#000000" points="3116.7886,-8.9 3116.7886,-217.7 3519.2628,-217.7 3519.2628,-8.9 3116.7886,-8.9"/>
<text text-anchor="middle" x="3318.0257" y="-201.1" font-family="Times,serif" font-size="14.00" fill="#000000">ServiceReceiver</text>
<polyline fill="none" stroke="#000000" points="3116.7886,-192.9 3519.2628,-192.9 "/>
<text text-anchor="start" x="3124.7886" y="-176.3" font-family="Times,serif" font-size="14.00" fill="#000000">Private:</text>
<text text-anchor="start" x="3124.7886" y="-159.5" font-family="Times,serif" font-size="14.00" fill="#000000"> &#160;&#160;_prices: mapping(bytes32=&gt;uint256)</text>
<polyline fill="none" stroke="#000000" points="3116.7886,-151.3 3519.2628,-151.3 "/>
<text text-anchor="start" x="3124.7886" y="-134.7" font-family="Times,serif" font-size="14.00" fill="#000000">Private:</text>
<text text-anchor="start" x="3124.7886" y="-117.9" font-family="Times,serif" font-size="14.00" fill="#000000"> &#160;&#160;&#160;_toBytes32(serviceName: string): bytes32</text>
<text text-anchor="start" x="3124.7886" y="-101.1" font-family="Times,serif" font-size="14.00" fill="#000000">Public:</text>
<text text-anchor="start" x="3124.7886" y="-84.3" font-family="Times,serif" font-size="14.00" fill="#000000"> &#160;&#160;&#160;&lt;&lt;payable&gt;&gt; pay(serviceName: string)</text>
<text text-anchor="start" x="3124.7886" y="-67.5" font-family="Times,serif" font-size="14.00" fill="#000000"> &#160;&#160;&#160;&lt;&lt;event&gt;&gt; Created(serviceName: string, serviceAddress: address)</text>
<text text-anchor="start" x="3124.7886" y="-50.7" font-family="Times,serif" font-size="14.00" fill="#000000"> &#160;&#160;&#160;getPrice(serviceName: string): uint256</text>
<text text-anchor="start" x="3124.7886" y="-33.9" font-family="Times,serif" font-size="14.00" fill="#000000"> &#160;&#160;&#160;setPrice(serviceName: string, amount: uint256)</text>
<text text-anchor="start" x="3124.7886" y="-17.1" font-family="Times,serif" font-size="14.00" fill="#000000"> &#160;&#160;&#160;withdraw(amount: uint256)</text>
</g>
<!-- 16&#45;&gt;15 -->
<g id="edge20" class="edge">
<title>16&#45;&gt;15</title>
<path fill="none" stroke="#000000" d="M3318.0257,-217.9596C3318.0257,-261.2158 3318.0257,-310.4286 3318.0257,-350.159"/>
<polygon fill="none" stroke="#000000" points="3307.5258,-350.3272 3318.0257,-380.3273 3328.5258,-350.3273 3307.5258,-350.3272"/>
</g>
<!-- 17 -->
<g id="node18" class="node">
<title>17</title>
<polygon fill="#f2f2f2" stroke="#000000" points="1630.9856,-372.3 1630.9856,-480.3 1947.0658,-480.3 1947.0658,-372.3 1630.9856,-372.3"/>
<text text-anchor="middle" x="1789.0257" y="-463.7" font-family="Times,serif" font-size="14.00" fill="#000000">&lt;&lt;Abstract&gt;&gt;</text>
<text text-anchor="middle" x="1789.0257" y="-446.9" font-family="Times,serif" font-size="14.00" fill="#000000">ServicePayer</text>
<polyline fill="none" stroke="#000000" points="1630.9856,-438.7 1947.0658,-438.7 "/>
<text text-anchor="middle" x="1789.0257" y="-422.1" font-family="Times,serif" font-size="14.00" fill="#000000"> </text>
<polyline fill="none" stroke="#000000" points="1630.9856,-413.9 1947.0658,-413.9 "/>
<text text-anchor="start" x="1638.9856" y="-397.3" font-family="Times,serif" font-size="14.00" fill="#000000">Public:</text>
<text text-anchor="start" x="1638.9856" y="-380.5" font-family="Times,serif" font-size="14.00" fill="#000000"> &#160;&#160;&#160;constructor(receiver: address, serviceName: string)</text>
</g>
<!-- 18 -->
<g id="node19" class="node">
<title>18</title>
<polygon fill="#f2f2f2" stroke="#000000" points="2369.7959,-42.5 2369.7959,-184.1 2980.2555,-184.1 2980.2555,-42.5 2369.7959,-42.5"/>
<text text-anchor="middle" x="2675.0257" y="-167.5" font-family="Times,serif" font-size="14.00" fill="#000000">AmazingERC20</text>
<polyline fill="none" stroke="#000000" points="2369.7959,-159.3 2980.2555,-159.3 "/>
<text text-anchor="middle" x="2675.0257" y="-142.7" font-family="Times,serif" font-size="14.00" fill="#000000"> </text>
<polyline fill="none" stroke="#000000" points="2369.7959,-134.5 2980.2555,-134.5 "/>
<text text-anchor="start" x="2377.7959" y="-117.9" font-family="Times,serif" font-size="14.00" fill="#000000">Internal:</text>
<text text-anchor="start" x="2377.7959" y="-101.1" font-family="Times,serif" font-size="14.00" fill="#000000"> &#160;&#160;&#160;_mint(account: address, amount: uint256)</text>
<text text-anchor="start" x="2377.7959" y="-84.3" font-family="Times,serif" font-size="14.00" fill="#000000"> &#160;&#160;&#160;_finishMinting()</text>
<text text-anchor="start" x="2377.7959" y="-67.5" font-family="Times,serif" font-size="14.00" fill="#000000">Public:</text>
<text text-anchor="start" x="2377.7959" y="-50.7" font-family="Times,serif" font-size="14.00" fill="#000000"> &#160;&#160;&#160;constructor(name: string, symbol: string, decimals: uint8, initialBalance: uint256, feeReceiver: address)</text>
</g>
<!-- 18&#45;&gt;4 -->
<g id="edge22" class="edge">
<title>18&#45;&gt;4</title>
<path fill="none" stroke="#000000" d="M2740.8312,-184.3245C2784.1366,-231.0645 2841.0368,-292.4775 2886.677,-341.7375"/>
<polygon fill="none" stroke="#000000" points="2878.9983,-348.8991 2907.0898,-363.7692 2894.4028,-334.6266 2878.9983,-348.8991"/>
</g>
<!-- 18&#45;&gt;12 -->
<g id="edge23" class="edge">
<title>18&#45;&gt;12</title>
<path fill="none" stroke="#000000" d="M2578.1733,-184.129C2552.8097,-202.6776 2524.2727,-223.5469 2494.8609,-245.0561"/>
<polygon fill="none" stroke="#000000" points="2488.5848,-236.6376 2470.5674,-262.8221 2500.9811,-253.5885 2488.5848,-236.6376"/>
</g>
<!-- 18&#45;&gt;13 -->
<g id="edge21" class="edge">
<title>18&#45;&gt;13</title>
<path fill="none" stroke="#000000" d="M2675.0257,-184.3245C2675.0257,-213.6853 2675.0257,-248.8361 2675.0257,-283.1273"/>
<polygon fill="none" stroke="#000000" points="2664.5258,-283.1995 2675.0257,-313.1996 2685.5258,-283.1996 2664.5258,-283.1995"/>
</g>
<!-- 18&#45;&gt;15 -->
<g id="edge24" class="edge">
<title>18&#45;&gt;15</title>
<path fill="none" stroke="#000000" d="M2937.0507,-184.1952C2998.266,-205.4491 3061.9279,-231.5523 3118.0257,-262.6 3165.8015,-289.0418 3213.3505,-327.337 3250.092,-360.2406"/>
<polygon fill="none" stroke="#000000" points="3243.1022,-368.0776 3272.2956,-380.6474 3257.3127,-352.6159 3243.1022,-368.0776"/>
</g>
<!-- 18&#45;&gt;17 -->
<g id="edge25" class="edge">
<title>18&#45;&gt;17</title>
<path fill="none" stroke="#000000" d="M2369.5176,-159.1458C2207.7649,-186.8695 2028.0149,-224.1945 1956.0257,-262.6 1916.0109,-283.9475 1879.1192,-317.8351 1850.2442,-349.2538"/>
<polygon fill="none" stroke="#000000" points="1842.1634,-342.543 1830.2575,-372.0134 1857.9427,-356.3999 1842.1634,-342.543"/>
</g>
</g>
</svg>
