<?xml version="1.0" encoding="UTF-8" standalone="no"?>
<!DOCTYPE svg PUBLIC "-//W3C//DTD SVG 1.1//EN"
 "http://www.w3.org/Graphics/SVG/1.1/DTD/svg11.dtd">
<!-- Generated by graphviz version 2.40.1 (20161225.0304)
 -->
<!-- Title: UmlClassDiagram Pages: 1 -->
<svg width="3761pt" height="1409pt"
 viewBox="0.00 0.00 3760.75 1408.80" xmlns="http://www.w3.org/2000/svg" xmlns:xlink="http://www.w3.org/1999/xlink">
<g id="graph0" class="graph" transform="scale(1 1) rotate(0) translate(4 1404.8)">
<title>UmlClassDiagram</title>
<polygon fill="#ffffff" stroke="transparent" points="-4,4 -4,-1404.8 3756.7544,-1404.8 3756.7544,4 -4,4"/>
<!-- 0 -->
<g id="node1" class="node">
<title>0</title>
<polygon fill="#f2f2f2" stroke="#000000" points="375.6241,-1216.7 375.6241,-1341.5 593.7687,-1341.5 593.7687,-1216.7 375.6241,-1216.7"/>
<text text-anchor="middle" x="484.6964" y="-1324.9" font-family="Times,serif" font-size="14.00" fill="#000000">&lt;&lt;Abstract&gt;&gt;</text>
<text text-anchor="middle" x="484.6964" y="-1308.1" font-family="Times,serif" font-size="14.00" fill="#000000">Context</text>
<polyline fill="none" stroke="#000000" points="375.6241,-1299.9 593.7687,-1299.9 "/>
<text text-anchor="middle" x="484.6964" y="-1283.3" font-family="Times,serif" font-size="14.00" fill="#000000"> </text>
<polyline fill="none" stroke="#000000" points="375.6241,-1275.1 593.7687,-1275.1 "/>
<text text-anchor="start" x="383.6241" y="-1258.5" font-family="Times,serif" font-size="14.00" fill="#000000">Internal:</text>
<text text-anchor="start" x="383.6241" y="-1241.7" font-family="Times,serif" font-size="14.00" fill="#000000"> &#160;&#160;&#160;_msgSender(): (payable: address)</text>
<text text-anchor="start" x="383.6241" y="-1224.9" font-family="Times,serif" font-size="14.00" fill="#000000"> &#160;&#160;&#160;_msgData(): bytes</text>
</g>
<!-- 1 -->
<g id="node2" class="node">
<title>1</title>
<polygon fill="#f2f2f2" stroke="#000000" points="1013.3965,-1157.9 1013.3965,-1400.3 1451.9963,-1400.3 1451.9963,-1157.9 1013.3965,-1157.9"/>
<text text-anchor="middle" x="1232.6964" y="-1383.7" font-family="Times,serif" font-size="14.00" fill="#000000">&lt;&lt;Interface&gt;&gt;</text>
<text text-anchor="middle" x="1232.6964" y="-1366.9" font-family="Times,serif" font-size="14.00" fill="#000000">IERC20</text>
<polyline fill="none" stroke="#000000" points="1013.3965,-1358.7 1451.9963,-1358.7 "/>
<text text-anchor="middle" x="1232.6964" y="-1342.1" font-family="Times,serif" font-size="14.00" fill="#000000"> </text>
<polyline fill="none" stroke="#000000" points="1013.3965,-1333.9 1451.9963,-1333.9 "/>
<text text-anchor="start" x="1021.3965" y="-1317.3" font-family="Times,serif" font-size="14.00" fill="#000000">External:</text>
<text text-anchor="start" x="1021.3965" y="-1300.5" font-family="Times,serif" font-size="14.00" fill="#000000"> &#160;&#160;&#160;&#160;totalSupply(): uint256</text>
<text text-anchor="start" x="1021.3965" y="-1283.7" font-family="Times,serif" font-size="14.00" fill="#000000"> &#160;&#160;&#160;&#160;balanceOf(account: address): uint256</text>
<text text-anchor="start" x="1021.3965" y="-1266.9" font-family="Times,serif" font-size="14.00" fill="#000000"> &#160;&#160;&#160;&#160;transfer(recipient: address, amount: uint256): bool</text>
<text text-anchor="start" x="1021.3965" y="-1250.1" font-family="Times,serif" font-size="14.00" fill="#000000"> &#160;&#160;&#160;&#160;allowance(owner: address, spender: address): uint256</text>
<text text-anchor="start" x="1021.3965" y="-1233.3" font-family="Times,serif" font-size="14.00" fill="#000000"> &#160;&#160;&#160;&#160;approve(spender: address, amount: uint256): bool</text>
<text text-anchor="start" x="1021.3965" y="-1216.5" font-family="Times,serif" font-size="14.00" fill="#000000"> &#160;&#160;&#160;&#160;transferFrom(sender: address, recipient: address, amount: uint256): bool</text>
<text text-anchor="start" x="1021.3965" y="-1199.7" font-family="Times,serif" font-size="14.00" fill="#000000">Public:</text>
<text text-anchor="start" x="1021.3965" y="-1182.9" font-family="Times,serif" font-size="14.00" fill="#000000"> &#160;&#160;&#160;&lt;&lt;event&gt;&gt; Transfer(from: address, to: address, value: uint256)</text>
<text text-anchor="start" x="1021.3965" y="-1166.1" font-family="Times,serif" font-size="14.00" fill="#000000"> &#160;&#160;&#160;&lt;&lt;event&gt;&gt; Approval(owner: address, spender: address, value: uint256)</text>
</g>
<!-- 2 -->
<g id="node3" class="node">
<title>2</title>
<polygon fill="#f2f2f2" stroke="#000000" points="0,-1166.3 0,-1391.9 357.3928,-1391.9 357.3928,-1166.3 0,-1166.3"/>
<text text-anchor="middle" x="178.6964" y="-1375.3" font-family="Times,serif" font-size="14.00" fill="#000000">&lt;&lt;Library&gt;&gt;</text>
<text text-anchor="middle" x="178.6964" y="-1358.5" font-family="Times,serif" font-size="14.00" fill="#000000">SafeMath</text>
<polyline fill="none" stroke="#000000" points="0,-1350.3 357.3928,-1350.3 "/>
<text text-anchor="middle" x="178.6964" y="-1333.7" font-family="Times,serif" font-size="14.00" fill="#000000"> </text>
<polyline fill="none" stroke="#000000" points="0,-1325.5 357.3928,-1325.5 "/>
<text text-anchor="start" x="8" y="-1308.9" font-family="Times,serif" font-size="14.00" fill="#000000">Internal:</text>
<text text-anchor="start" x="8" y="-1292.1" font-family="Times,serif" font-size="14.00" fill="#000000"> &#160;&#160;&#160;add(a: uint256, b: uint256): uint256</text>
<text text-anchor="start" x="8" y="-1275.3" font-family="Times,serif" font-size="14.00" fill="#000000"> &#160;&#160;&#160;sub(a: uint256, b: uint256): uint256</text>
<text text-anchor="start" x="8" y="-1258.5" font-family="Times,serif" font-size="14.00" fill="#000000"> &#160;&#160;&#160;sub(a: uint256, b: uint256, errorMessage: string): uint256</text>
<text text-anchor="start" x="8" y="-1241.7" font-family="Times,serif" font-size="14.00" fill="#000000"> &#160;&#160;&#160;mul(a: uint256, b: uint256): uint256</text>
<text text-anchor="start" x="8" y="-1224.9" font-family="Times,serif" font-size="14.00" fill="#000000"> &#160;&#160;&#160;div(a: uint256, b: uint256): uint256</text>
<text text-anchor="start" x="8" y="-1208.1" font-family="Times,serif" font-size="14.00" fill="#000000"> &#160;&#160;&#160;div(a: uint256, b: uint256, errorMessage: string): uint256</text>
<text text-anchor="start" x="8" y="-1191.3" font-family="Times,serif" font-size="14.00" fill="#000000"> &#160;&#160;&#160;mod(a: uint256, b: uint256): uint256</text>
<text text-anchor="start" x="8" y="-1174.5" font-family="Times,serif" font-size="14.00" fill="#000000"> &#160;&#160;&#160;mod(a: uint256, b: uint256, errorMessage: string): uint256</text>
</g>
<!-- 3 -->
<g id="node4" class="node">
<title>3</title>
<polygon fill="#f2f2f2" stroke="#000000" points="267.1465,-626.5 267.1465,-1120.9 702.2463,-1120.9 702.2463,-626.5 267.1465,-626.5"/>
<text text-anchor="middle" x="484.6964" y="-1104.3" font-family="Times,serif" font-size="14.00" fill="#000000">ERC20</text>
<polyline fill="none" stroke="#000000" points="267.1465,-1096.1 702.2463,-1096.1 "/>
<text text-anchor="start" x="275.1465" y="-1079.5" font-family="Times,serif" font-size="14.00" fill="#000000">Private:</text>
<text text-anchor="start" x="275.1465" y="-1062.7" font-family="Times,serif" font-size="14.00" fill="#000000"> &#160;&#160;_balances: mapping(address=&gt;uint256)</text>
<text text-anchor="start" x="275.1465" y="-1045.9" font-family="Times,serif" font-size="14.00" fill="#000000"> &#160;&#160;_allowances: mapping(address=&gt;mapping(address=&gt;uint256))</text>
<text text-anchor="start" x="275.1465" y="-1029.1" font-family="Times,serif" font-size="14.00" fill="#000000"> &#160;&#160;_totalSupply: uint256</text>
<text text-anchor="start" x="275.1465" y="-1012.3" font-family="Times,serif" font-size="14.00" fill="#000000"> &#160;&#160;_name: string</text>
<text text-anchor="start" x="275.1465" y="-995.5" font-family="Times,serif" font-size="14.00" fill="#000000"> &#160;&#160;_symbol: string</text>
<text text-anchor="start" x="275.1465" y="-978.7" font-family="Times,serif" font-size="14.00" fill="#000000"> &#160;&#160;_decimals: uint8</text>
<polyline fill="none" stroke="#000000" points="267.1465,-970.5 702.2463,-970.5 "/>
<text text-anchor="start" x="275.1465" y="-953.9" font-family="Times,serif" font-size="14.00" fill="#000000">Internal:</text>
<text text-anchor="start" x="275.1465" y="-937.1" font-family="Times,serif" font-size="14.00" fill="#000000"> &#160;&#160;&#160;_transfer(sender: address, recipient: address, amount: uint256)</text>
<text text-anchor="start" x="275.1465" y="-920.3" font-family="Times,serif" font-size="14.00" fill="#000000"> &#160;&#160;&#160;_mint(account: address, amount: uint256)</text>
<text text-anchor="start" x="275.1465" y="-903.5" font-family="Times,serif" font-size="14.00" fill="#000000"> &#160;&#160;&#160;_burn(account: address, amount: uint256)</text>
<text text-anchor="start" x="275.1465" y="-886.7" font-family="Times,serif" font-size="14.00" fill="#000000"> &#160;&#160;&#160;_approve(owner: address, spender: address, amount: uint256)</text>
<text text-anchor="start" x="275.1465" y="-869.9" font-family="Times,serif" font-size="14.00" fill="#000000"> &#160;&#160;&#160;_setupDecimals(decimals_: uint8)</text>
<text text-anchor="start" x="275.1465" y="-853.1" font-family="Times,serif" font-size="14.00" fill="#000000"> &#160;&#160;&#160;_beforeTokenTransfer(from: address, to: address, amount: uint256)</text>
<text text-anchor="start" x="275.1465" y="-836.3" font-family="Times,serif" font-size="14.00" fill="#000000">Public:</text>
<text text-anchor="start" x="275.1465" y="-819.5" font-family="Times,serif" font-size="14.00" fill="#000000"> &#160;&#160;&#160;constructor(name_: string, symbol_: string)</text>
<text text-anchor="start" x="275.1465" y="-802.7" font-family="Times,serif" font-size="14.00" fill="#000000"> &#160;&#160;&#160;name(): string</text>
<text text-anchor="start" x="275.1465" y="-785.9" font-family="Times,serif" font-size="14.00" fill="#000000"> &#160;&#160;&#160;symbol(): string</text>
<text text-anchor="start" x="275.1465" y="-769.1" font-family="Times,serif" font-size="14.00" fill="#000000"> &#160;&#160;&#160;decimals(): uint8</text>
<text text-anchor="start" x="275.1465" y="-752.3" font-family="Times,serif" font-size="14.00" fill="#000000"> &#160;&#160;&#160;totalSupply(): uint256</text>
<text text-anchor="start" x="275.1465" y="-735.5" font-family="Times,serif" font-size="14.00" fill="#000000"> &#160;&#160;&#160;balanceOf(account: address): uint256</text>
<text text-anchor="start" x="275.1465" y="-718.7" font-family="Times,serif" font-size="14.00" fill="#000000"> &#160;&#160;&#160;transfer(recipient: address, amount: uint256): bool</text>
<text text-anchor="start" x="275.1465" y="-701.9" font-family="Times,serif" font-size="14.00" fill="#000000"> &#160;&#160;&#160;allowance(owner: address, spender: address): uint256</text>
<text text-anchor="start" x="275.1465" y="-685.1" font-family="Times,serif" font-size="14.00" fill="#000000"> &#160;&#160;&#160;approve(spender: address, amount: uint256): bool</text>
<text text-anchor="start" x="275.1465" y="-668.3" font-family="Times,serif" font-size="14.00" fill="#000000"> &#160;&#160;&#160;transferFrom(sender: address, recipient: address, amount: uint256): bool</text>
<text text-anchor="start" x="275.1465" y="-651.5" font-family="Times,serif" font-size="14.00" fill="#000000"> &#160;&#160;&#160;increaseAllowance(spender: address, addedValue: uint256): bool</text>
<text text-anchor="start" x="275.1465" y="-634.7" font-family="Times,serif" font-size="14.00" fill="#000000"> &#160;&#160;&#160;decreaseAllowance(spender: address, subtractedValue: uint256): bool</text>
</g>
<!-- 3&#45;&gt;0 -->
<g id="edge1" class="edge">
<title>3&#45;&gt;0</title>
<path fill="none" stroke="#000000" d="M484.6964,-1120.9105C484.6964,-1143.9573 484.6964,-1166.1966 484.6964,-1186.3553"/>
<polygon fill="none" stroke="#000000" points="474.1965,-1186.6196 484.6964,-1216.6196 495.1965,-1186.6196 474.1965,-1186.6196"/>
</g>
<!-- 3&#45;&gt;1 -->
<g id="edge2" class="edge">
<title>3&#45;&gt;1</title>
<path fill="none" stroke="#000000" stroke-dasharray="5,2" d="M702.4857,-1115.4222C705.5398,-1117.4652 708.6104,-1119.459 711.6964,-1121.4 793.717,-1172.9885 893.6102,-1208.5499 983.9028,-1232.6471"/>
<polygon fill="none" stroke="#000000" points="981.4949,-1242.8693 1013.163,-1240.1518 986.7122,-1222.5277 981.4949,-1242.8693"/>
</g>
<!-- 3&#45;&gt;2 -->
<g id="edge3" class="edge">
<title>3&#45;&gt;2</title>
<path fill="none" stroke="#000000" stroke-dasharray="5,2" d="M298.0994,-1120.9105C288.5822,-1133.5193 279.2475,-1145.8863 270.2525,-1157.8031"/>
<polygon fill="#000000" stroke="#000000" points="267.3125,-1155.8886 264.0814,-1165.9788 272.8995,-1160.1058 267.3125,-1155.8886"/>
</g>
<!-- 4 -->
<g id="node5" class="node">
<title>4</title>
<polygon fill="#f2f2f2" stroke="#000000" points="191.0028,-363.9 191.0028,-488.7 478.39,-488.7 478.39,-363.9 191.0028,-363.9"/>
<text text-anchor="middle" x="334.6964" y="-472.1" font-family="Times,serif" font-size="14.00" fill="#000000">&lt;&lt;Abstract&gt;&gt;</text>
<text text-anchor="middle" x="334.6964" y="-455.3" font-family="Times,serif" font-size="14.00" fill="#000000">ERC20Burnable</text>
<polyline fill="none" stroke="#000000" points="191.0028,-447.1 478.39,-447.1 "/>
<text text-anchor="middle" x="334.6964" y="-430.5" font-family="Times,serif" font-size="14.00" fill="#000000"> </text>
<polyline fill="none" stroke="#000000" points="191.0028,-422.3 478.39,-422.3 "/>
<text text-anchor="start" x="199.0028" y="-405.7" font-family="Times,serif" font-size="14.00" fill="#000000">Public:</text>
<text text-anchor="start" x="199.0028" y="-388.9" font-family="Times,serif" font-size="14.00" fill="#000000"> &#160;&#160;&#160;burn(amount: uint256)</text>
<text text-anchor="start" x="199.0028" y="-372.1" font-family="Times,serif" font-size="14.00" fill="#000000"> &#160;&#160;&#160;burnFrom(account: address, amount: uint256)</text>
</g>
<!-- 4&#45;&gt;0 -->
<g id="edge4" class="edge">
<title>4&#45;&gt;0</title>
<path fill="none" stroke="#000000" d="M303.7211,-488.8536C286.4048,-527.3642 266.5688,-578.3273 257.6964,-626 237.5535,-734.2304 193.2033,-1032.18 257.6964,-1121.4 287.5843,-1162.747 323.4686,-1130.3035 366.6964,-1157.4 383.3224,-1167.8217 399.2924,-1181.0702 413.8203,-1194.9662"/>
<polygon fill="none" stroke="#000000" points="406.5265,-1202.5256 435.0031,-1216.6441 421.5463,-1187.8489 406.5265,-1202.5256"/>
</g>
<!-- 4&#45;&gt;2 -->
<g id="edge6" class="edge">
<title>4&#45;&gt;2</title>
<path fill="none" stroke="#000000" stroke-dasharray="5,2" d="M289.0001,-489.0006C264.1031,-526.7406 235.4376,-576.8645 220.6964,-626 167.1584,-804.4532 164.9745,-1022.2546 170.3223,-1155.7784"/>
<polygon fill="#000000" stroke="#000000" points="166.8367,-1156.1966 170.7548,-1166.0403 173.8305,-1155.9017 166.8367,-1156.1966"/>
</g>
<!-- 4&#45;&gt;3 -->
<g id="edge5" class="edge">
<title>4&#45;&gt;3</title>
<path fill="none" stroke="#000000" d="M355.7112,-488.9801C365.7672,-518.9737 378.5776,-557.183 392.2039,-597.8256"/>
<polygon fill="none" stroke="#000000" points="382.2521,-601.1744 401.744,-626.2806 402.1629,-594.4989 382.2521,-601.1744"/>
</g>
<!-- 5 -->
<g id="node6" class="node">
<title>5</title>
<polygon fill="#f2f2f2" stroke="#000000" points="1653.2787,-1225.1 1653.2787,-1333.1 1930.1141,-1333.1 1930.1141,-1225.1 1653.2787,-1225.1"/>
<text text-anchor="middle" x="1791.6964" y="-1316.5" font-family="Times,serif" font-size="14.00" fill="#000000">&lt;&lt;Interface&gt;&gt;</text>
<text text-anchor="middle" x="1791.6964" y="-1299.7" font-family="Times,serif" font-size="14.00" fill="#000000">IERC165</text>
<polyline fill="none" stroke="#000000" points="1653.2787,-1291.5 1930.1141,-1291.5 "/>
<text text-anchor="middle" x="1791.6964" y="-1274.9" font-family="Times,serif" font-size="14.00" fill="#000000"> </text>
<polyline fill="none" stroke="#000000" points="1653.2787,-1266.7 1930.1141,-1266.7 "/>
<text text-anchor="start" x="1661.2787" y="-1250.1" font-family="Times,serif" font-size="14.00" fill="#000000">External:</text>
<text text-anchor="start" x="1661.2787" y="-1233.3" font-family="Times,serif" font-size="14.00" fill="#000000"> &#160;&#160;&#160;&#160;supportsInterface(interfaceId: bytes4): bool</text>
</g>
<!-- 6 -->
<g id="node7" class="node">
<title>6</title>
<polygon fill="#f2f2f2" stroke="#000000" points="1261.0469,-777.7 1261.0469,-969.7 1814.3459,-969.7 1814.3459,-777.7 1261.0469,-777.7"/>
<text text-anchor="middle" x="1537.6964" y="-953.1" font-family="Times,serif" font-size="14.00" fill="#000000">&lt;&lt;Interface&gt;&gt;</text>
<text text-anchor="middle" x="1537.6964" y="-936.3" font-family="Times,serif" font-size="14.00" fill="#000000">IERC1363</text>
<polyline fill="none" stroke="#000000" points="1261.0469,-928.1 1814.3459,-928.1 "/>
<text text-anchor="middle" x="1537.6964" y="-911.5" font-family="Times,serif" font-size="14.00" fill="#000000"> </text>
<polyline fill="none" stroke="#000000" points="1261.0469,-903.3 1814.3459,-903.3 "/>
<text text-anchor="start" x="1269.0469" y="-886.7" font-family="Times,serif" font-size="14.00" fill="#000000">External:</text>
<text text-anchor="start" x="1269.0469" y="-869.9" font-family="Times,serif" font-size="14.00" fill="#000000"> &#160;&#160;&#160;&#160;transferAndCall(recipient: address, amount: uint256): bool</text>
<text text-anchor="start" x="1269.0469" y="-853.1" font-family="Times,serif" font-size="14.00" fill="#000000"> &#160;&#160;&#160;&#160;transferAndCall(recipient: address, amount: uint256, data: bytes): bool</text>
<text text-anchor="start" x="1269.0469" y="-836.3" font-family="Times,serif" font-size="14.00" fill="#000000"> &#160;&#160;&#160;&#160;transferFromAndCall(sender: address, recipient: address, amount: uint256): bool</text>
<text text-anchor="start" x="1269.0469" y="-819.5" font-family="Times,serif" font-size="14.00" fill="#000000"> &#160;&#160;&#160;&#160;transferFromAndCall(sender: address, recipient: address, amount: uint256, data: bytes): bool</text>
<text text-anchor="start" x="1269.0469" y="-802.7" font-family="Times,serif" font-size="14.00" fill="#000000"> &#160;&#160;&#160;&#160;approveAndCall(spender: address, amount: uint256): bool</text>
<text text-anchor="start" x="1269.0469" y="-785.9" font-family="Times,serif" font-size="14.00" fill="#000000"> &#160;&#160;&#160;&#160;approveAndCall(spender: address, amount: uint256, data: bytes): bool</text>
</g>
<!-- 6&#45;&gt;1 -->
<g id="edge7" class="edge">
<title>6&#45;&gt;1</title>
<path fill="none" stroke="#000000" stroke-dasharray="5,2" d="M1465.4157,-969.7741C1428.6703,-1018.6153 1383.2384,-1079.0025 1342.2971,-1133.421"/>
<polygon fill="none" stroke="#000000" points="1333.8002,-1127.2497 1324.1548,-1157.5353 1350.5813,-1139.8749 1333.8002,-1127.2497"/>
</g>
<!-- 6&#45;&gt;5 -->
<g id="edge8" class="edge">
<title>6&#45;&gt;5</title>
<path fill="none" stroke="#000000" stroke-dasharray="5,2" d="M1597.8909,-969.7741C1641.7939,-1039.8462 1700.587,-1133.6837 1741.8641,-1199.5645"/>
<polygon fill="none" stroke="#000000" points="1733.0171,-1205.2205 1757.8431,-1225.0679 1750.8127,-1194.0707 1733.0171,-1205.2205"/>
</g>
<!-- 7 -->
<g id="node8" class="node">
<title>7</title>
<polygon fill="#f2f2f2" stroke="#000000" points="2136.8975,-819.7 2136.8975,-927.7 2692.4953,-927.7 2692.4953,-819.7 2136.8975,-819.7"/>
<text text-anchor="middle" x="2414.6964" y="-911.1" font-family="Times,serif" font-size="14.00" fill="#000000">&lt;&lt;Interface&gt;&gt;</text>
<text text-anchor="middle" x="2414.6964" y="-894.3" font-family="Times,serif" font-size="14.00" fill="#000000">IERC1363Receiver</text>
<polyline fill="none" stroke="#000000" points="2136.8975,-886.1 2692.4953,-886.1 "/>
<text text-anchor="middle" x="2414.6964" y="-869.5" font-family="Times,serif" font-size="14.00" fill="#000000"> </text>
<polyline fill="none" stroke="#000000" points="2136.8975,-861.3 2692.4953,-861.3 "/>
<text text-anchor="start" x="2144.8975" y="-844.7" font-family="Times,serif" font-size="14.00" fill="#000000">External:</text>
<text text-anchor="start" x="2144.8975" y="-827.9" font-family="Times,serif" font-size="14.00" fill="#000000"> &#160;&#160;&#160;&#160;onTransferReceived(operator: address, sender: address, amount: uint256, data: bytes): bytes4</text>
</g>
<!-- 8 -->
<g id="node9" class="node">
<title>8</title>
<polygon fill="#f2f2f2" stroke="#000000" points="2710.6707,-819.7 2710.6707,-927.7 3168.7221,-927.7 3168.7221,-819.7 2710.6707,-819.7"/>
<text text-anchor="middle" x="2939.6964" y="-911.1" font-family="Times,serif" font-size="14.00" fill="#000000">&lt;&lt;Interface&gt;&gt;</text>
<text text-anchor="middle" x="2939.6964" y="-894.3" font-family="Times,serif" font-size="14.00" fill="#000000">IERC1363Spender</text>
<polyline fill="none" stroke="#000000" points="2710.6707,-886.1 3168.7221,-886.1 "/>
<text text-anchor="middle" x="2939.6964" y="-869.5" font-family="Times,serif" font-size="14.00" fill="#000000"> </text>
<polyline fill="none" stroke="#000000" points="2710.6707,-861.3 3168.7221,-861.3 "/>
<text text-anchor="start" x="2718.6707" y="-844.7" font-family="Times,serif" font-size="14.00" fill="#000000">External:</text>
<text text-anchor="start" x="2718.6707" y="-827.9" font-family="Times,serif" font-size="14.00" fill="#000000"> &#160;&#160;&#160;&#160;onApprovalReceived(sender: address, amount: uint256, data: bytes): bytes4</text>
</g>
<!-- 9 -->
<g id="node10" class="node">
<title>9</title>
<polygon fill="#f2f2f2" stroke="#000000" points="3186.6384,-744.1 3186.6384,-1003.3 3752.7544,-1003.3 3752.7544,-744.1 3186.6384,-744.1"/>
<text text-anchor="middle" x="3469.6964" y="-986.7" font-family="Times,serif" font-size="14.00" fill="#000000">&lt;&lt;Library&gt;&gt;</text>
<text text-anchor="middle" x="3469.6964" y="-969.9" font-family="Times,serif" font-size="14.00" fill="#000000">Address</text>
<polyline fill="none" stroke="#000000" points="3186.6384,-961.7 3752.7544,-961.7 "/>
<text text-anchor="middle" x="3469.6964" y="-945.1" font-family="Times,serif" font-size="14.00" fill="#000000"> </text>
<polyline fill="none" stroke="#000000" points="3186.6384,-936.9 3752.7544,-936.9 "/>
<text text-anchor="start" x="3194.6384" y="-920.3" font-family="Times,serif" font-size="14.00" fill="#000000">Private:</text>
<text text-anchor="start" x="3194.6384" y="-903.5" font-family="Times,serif" font-size="14.00" fill="#000000"> &#160;&#160;&#160;_verifyCallResult(success: bool, returndata: bytes, errorMessage: string): bytes</text>
<text text-anchor="start" x="3194.6384" y="-886.7" font-family="Times,serif" font-size="14.00" fill="#000000">Internal:</text>
<text text-anchor="start" x="3194.6384" y="-869.9" font-family="Times,serif" font-size="14.00" fill="#000000"> &#160;&#160;&#160;isContract(account: address): bool</text>
<text text-anchor="start" x="3194.6384" y="-853.1" font-family="Times,serif" font-size="14.00" fill="#000000"> &#160;&#160;&#160;sendValue(recipient: address, amount: uint256)</text>
<text text-anchor="start" x="3194.6384" y="-836.3" font-family="Times,serif" font-size="14.00" fill="#000000"> &#160;&#160;&#160;functionCall(target: address, data: bytes): bytes</text>
<text text-anchor="start" x="3194.6384" y="-819.5" font-family="Times,serif" font-size="14.00" fill="#000000"> &#160;&#160;&#160;functionCall(target: address, data: bytes, errorMessage: string): bytes</text>
<text text-anchor="start" x="3194.6384" y="-802.7" font-family="Times,serif" font-size="14.00" fill="#000000"> &#160;&#160;&#160;functionCallWithValue(target: address, data: bytes, value: uint256): bytes</text>
<text text-anchor="start" x="3194.6384" y="-785.9" font-family="Times,serif" font-size="14.00" fill="#000000"> &#160;&#160;&#160;functionCallWithValue(target: address, data: bytes, value: uint256, errorMessage: string): bytes</text>
<text text-anchor="start" x="3194.6384" y="-769.1" font-family="Times,serif" font-size="14.00" fill="#000000"> &#160;&#160;&#160;functionStaticCall(target: address, data: bytes): bytes</text>
<text text-anchor="start" x="3194.6384" y="-752.3" font-family="Times,serif" font-size="14.00" fill="#000000"> &#160;&#160;&#160;functionStaticCall(target: address, data: bytes, errorMessage: string): bytes</text>
</g>
<!-- 10 -->
<g id="node11" class="node">
<title>10</title>
<polygon fill="#f2f2f2" stroke="#000000" points="1285.5837,-.5 1285.5837,-226.1 1777.8091,-226.1 1777.8091,-.5 1285.5837,-.5"/>
<text text-anchor="middle" x="1531.6964" y="-209.5" font-family="Times,serif" font-size="14.00" fill="#000000">&lt;&lt;Library&gt;&gt;</text>
<text text-anchor="middle" x="1531.6964" y="-192.7" font-family="Times,serif" font-size="14.00" fill="#000000">ERC165Checker</text>
<polyline fill="none" stroke="#000000" points="1285.5837,-184.5 1777.8091,-184.5 "/>
<text text-anchor="start" x="1293.5837" y="-167.9" font-family="Times,serif" font-size="14.00" fill="#000000">Private:</text>
<text text-anchor="start" x="1293.5837" y="-151.1" font-family="Times,serif" font-size="14.00" fill="#000000"> &#160;&#160;_INTERFACE_ID_INVALID: bytes4</text>
<text text-anchor="start" x="1293.5837" y="-134.3" font-family="Times,serif" font-size="14.00" fill="#000000"> &#160;&#160;_INTERFACE_ID_ERC165: bytes4</text>
<polyline fill="none" stroke="#000000" points="1285.5837,-126.1 1777.8091,-126.1 "/>
<text text-anchor="start" x="1293.5837" y="-109.5" font-family="Times,serif" font-size="14.00" fill="#000000">Private:</text>
<text text-anchor="start" x="1293.5837" y="-92.7" font-family="Times,serif" font-size="14.00" fill="#000000"> &#160;&#160;&#160;_supportsERC165Interface(account: address, interfaceId: bytes4): bool</text>
<text text-anchor="start" x="1293.5837" y="-75.9" font-family="Times,serif" font-size="14.00" fill="#000000"> &#160;&#160;&#160;_callERC165SupportsInterface(account: address, interfaceId: bytes4): (bool, bool)</text>
<text text-anchor="start" x="1293.5837" y="-59.1" font-family="Times,serif" font-size="14.00" fill="#000000">Internal:</text>
<text text-anchor="start" x="1293.5837" y="-42.3" font-family="Times,serif" font-size="14.00" fill="#000000"> &#160;&#160;&#160;supportsERC165(account: address): bool</text>
<text text-anchor="start" x="1293.5837" y="-25.5" font-family="Times,serif" font-size="14.00" fill="#000000"> &#160;&#160;&#160;supportsInterface(account: address, interfaceId: bytes4): bool</text>
<text text-anchor="start" x="1293.5837" y="-8.7" font-family="Times,serif" font-size="14.00" fill="#000000"> &#160;&#160;&#160;supportsAllInterfaces(account: address, interfaceIds: bytes4[]): bool</text>
</g>
<!-- 11 -->
<g id="node12" class="node">
<title>11</title>
<polygon fill="#f2f2f2" stroke="#000000" points="1832.2849,-777.7 1832.2849,-969.7 2119.1079,-969.7 2119.1079,-777.7 1832.2849,-777.7"/>
<text text-anchor="middle" x="1975.6964" y="-953.1" font-family="Times,serif" font-size="14.00" fill="#000000">&lt;&lt;Abstract&gt;&gt;</text>
<text text-anchor="middle" x="1975.6964" y="-936.3" font-family="Times,serif" font-size="14.00" fill="#000000">ERC165</text>
<polyline fill="none" stroke="#000000" points="1832.2849,-928.1 2119.1079,-928.1 "/>
<text text-anchor="start" x="1840.2849" y="-911.5" font-family="Times,serif" font-size="14.00" fill="#000000">Private:</text>
<text text-anchor="start" x="1840.2849" y="-894.7" font-family="Times,serif" font-size="14.00" fill="#000000"> &#160;&#160;_INTERFACE_ID_ERC165: bytes4</text>
<text text-anchor="start" x="1840.2849" y="-877.9" font-family="Times,serif" font-size="14.00" fill="#000000"> &#160;&#160;_supportedInterfaces: mapping(bytes4=&gt;bool)</text>
<polyline fill="none" stroke="#000000" points="1832.2849,-869.7 2119.1079,-869.7 "/>
<text text-anchor="start" x="1840.2849" y="-853.1" font-family="Times,serif" font-size="14.00" fill="#000000">Internal:</text>
<text text-anchor="start" x="1840.2849" y="-836.3" font-family="Times,serif" font-size="14.00" fill="#000000"> &#160;&#160;&#160;_registerInterface(interfaceId: bytes4)</text>
<text text-anchor="start" x="1840.2849" y="-819.5" font-family="Times,serif" font-size="14.00" fill="#000000">Public:</text>
<text text-anchor="start" x="1840.2849" y="-802.7" font-family="Times,serif" font-size="14.00" fill="#000000"> &#160;&#160;&#160;constructor()</text>
<text text-anchor="start" x="1840.2849" y="-785.9" font-family="Times,serif" font-size="14.00" fill="#000000"> &#160;&#160;&#160;supportsInterface(interfaceId: bytes4): bool</text>
</g>
<!-- 11&#45;&gt;5 -->
<g id="edge9" class="edge">
<title>11&#45;&gt;5</title>
<path fill="none" stroke="#000000" stroke-dasharray="5,2" d="M1932.091,-969.7741C1900.6406,-1039.0676 1858.642,-1131.6014 1828.7968,-1197.3582"/>
<polygon fill="none" stroke="#000000" points="1819.0577,-1193.4104 1816.2201,-1225.0679 1838.1803,-1202.0896 1819.0577,-1193.4104"/>
</g>
<!-- 12 -->
<g id="node13" class="node">
<title>12</title>
<polygon fill="#f2f2f2" stroke="#000000" points="1171.8109,-263.1 1171.8109,-589.5 1735.5819,-589.5 1735.5819,-263.1 1171.8109,-263.1"/>
<text text-anchor="middle" x="1453.6964" y="-572.9" font-family="Times,serif" font-size="14.00" fill="#000000">ERC1363</text>
<polyline fill="none" stroke="#000000" points="1171.8109,-564.7 1735.5819,-564.7 "/>
<text text-anchor="start" x="1179.8109" y="-548.1" font-family="Times,serif" font-size="14.00" fill="#000000">Private:</text>
<text text-anchor="start" x="1179.8109" y="-531.3" font-family="Times,serif" font-size="14.00" fill="#000000"> &#160;&#160;_ERC1363_RECEIVED: bytes4</text>
<text text-anchor="start" x="1179.8109" y="-514.5" font-family="Times,serif" font-size="14.00" fill="#000000"> &#160;&#160;_ERC1363_APPROVED: bytes4</text>
<text text-anchor="start" x="1179.8109" y="-497.7" font-family="Times,serif" font-size="14.00" fill="#000000">Internal:</text>
<text text-anchor="start" x="1179.8109" y="-480.9" font-family="Times,serif" font-size="14.00" fill="#000000"> &#160;&#160;_INTERFACE_ID_ERC1363_TRANSFER: bytes4</text>
<text text-anchor="start" x="1179.8109" y="-464.1" font-family="Times,serif" font-size="14.00" fill="#000000"> &#160;&#160;_INTERFACE_ID_ERC1363_APPROVE: bytes4</text>
<polyline fill="none" stroke="#000000" points="1171.8109,-455.9 1735.5819,-455.9 "/>
<text text-anchor="start" x="1179.8109" y="-439.3" font-family="Times,serif" font-size="14.00" fill="#000000">Internal:</text>
<text text-anchor="start" x="1179.8109" y="-422.5" font-family="Times,serif" font-size="14.00" fill="#000000"> &#160;&#160;&#160;_checkAndCallTransfer(sender: address, recipient: address, amount: uint256, data: bytes): bool</text>
<text text-anchor="start" x="1179.8109" y="-405.7" font-family="Times,serif" font-size="14.00" fill="#000000"> &#160;&#160;&#160;_checkAndCallApprove(spender: address, amount: uint256, data: bytes): bool</text>
<text text-anchor="start" x="1179.8109" y="-388.9" font-family="Times,serif" font-size="14.00" fill="#000000">Public:</text>
<text text-anchor="start" x="1179.8109" y="-372.1" font-family="Times,serif" font-size="14.00" fill="#000000"> &#160;&#160;&#160;constructor(name: string, symbol: string)</text>
<text text-anchor="start" x="1179.8109" y="-355.3" font-family="Times,serif" font-size="14.00" fill="#000000"> &#160;&#160;&#160;transferAndCall(recipient: address, amount: uint256): bool</text>
<text text-anchor="start" x="1179.8109" y="-338.5" font-family="Times,serif" font-size="14.00" fill="#000000"> &#160;&#160;&#160;transferAndCall(recipient: address, amount: uint256, data: bytes): bool</text>
<text text-anchor="start" x="1179.8109" y="-321.7" font-family="Times,serif" font-size="14.00" fill="#000000"> &#160;&#160;&#160;transferFromAndCall(sender: address, recipient: address, amount: uint256): bool</text>
<text text-anchor="start" x="1179.8109" y="-304.9" font-family="Times,serif" font-size="14.00" fill="#000000"> &#160;&#160;&#160;transferFromAndCall(sender: address, recipient: address, amount: uint256, data: bytes): bool</text>
<text text-anchor="start" x="1179.8109" y="-288.1" font-family="Times,serif" font-size="14.00" fill="#000000"> &#160;&#160;&#160;approveAndCall(spender: address, amount: uint256): bool</text>
<text text-anchor="start" x="1179.8109" y="-271.3" font-family="Times,serif" font-size="14.00" fill="#000000"> &#160;&#160;&#160;approveAndCall(spender: address, amount: uint256, data: bytes): bool</text>
</g>
<!-- 12&#45;&gt;3 -->
<g id="edge10" class="edge">
<title>12&#45;&gt;3</title>
<path fill="none" stroke="#000000" d="M1171.5812,-587.513C1168.9512,-588.3677 1166.3226,-589.1971 1163.6964,-590 980.4802,-646.0109 900.7774,-548.1448 729.7164,-618.4513"/>
<polygon fill="none" stroke="#000000" points="725.3657,-608.8949 702.3304,-630.7952 733.9952,-628.0399 725.3657,-608.8949"/>
</g>
<!-- 12&#45;&gt;6 -->
<g id="edge11" class="edge">
<title>12&#45;&gt;6</title>
<path fill="none" stroke="#000000" stroke-dasharray="5,2" d="M1484.3789,-589.7208C1494.175,-641.8969 1504.8588,-698.8009 1514.0729,-747.8766"/>
<polygon fill="none" stroke="#000000" points="1503.8161,-750.1495 1519.6717,-777.6968 1524.4554,-746.2744 1503.8161,-750.1495"/>
</g>
<!-- 12&#45;&gt;7 -->
<g id="edge14" class="edge">
<title>12&#45;&gt;7</title>
<path fill="none" stroke="#000000" stroke-dasharray="5,2" d="M1735.9744,-587.1821C1738.8841,-588.1519 1741.7919,-589.0917 1744.6964,-590 1907.8768,-641.0272 1970.4124,-558.9677 2127.6964,-626 2224.0324,-667.0571 2311.4816,-752.7595 2363.8783,-811.753"/>
<polygon fill="#000000" stroke="#000000" points="2361.4883,-814.3351 2370.7215,-819.5311 2366.7438,-809.7113 2361.4883,-814.3351"/>
</g>
<!-- 12&#45;&gt;8 -->
<g id="edge15" class="edge">
<title>12&#45;&gt;8</title>
<path fill="none" stroke="#000000" stroke-dasharray="5,2" d="M1735.9044,-587.4177C1738.8364,-588.3122 1741.7675,-589.1736 1744.6964,-590 1949.5163,-647.7921 2507.5044,-538.9335 2701.6964,-626 2788.3144,-664.8354 2859.2292,-751.1366 2900.4823,-810.865"/>
<polygon fill="#000000" stroke="#000000" points="2897.8274,-813.1843 2906.352,-819.4758 2903.6115,-809.2415 2897.8274,-813.1843"/>
</g>
<!-- 12&#45;&gt;9 -->
<g id="edge13" class="edge">
<title>12&#45;&gt;9</title>
<path fill="none" stroke="#000000" stroke-dasharray="5,2" d="M1735.8897,-587.4704C1738.8264,-588.3481 1741.7624,-589.1919 1744.6964,-590 1898.2507,-632.294 3028.8769,-569.2508 3177.6964,-626 3240.1942,-649.8322 3298.6715,-693.1946 3346.6344,-737.0535"/>
<polygon fill="#000000" stroke="#000000" points="3344.5245,-739.8698 3354.2408,-744.0939 3349.2794,-734.7326 3344.5245,-739.8698"/>
</g>
<!-- 12&#45;&gt;11 -->
<g id="edge12" class="edge">
<title>12&#45;&gt;11</title>
<path fill="none" stroke="#000000" d="M1735.7436,-585.4286C1738.7398,-586.9662 1741.7248,-588.4905 1744.6964,-590 1779.0974,-607.4746 1794.7899,-600.4421 1823.6964,-626 1862.5895,-660.3876 1894.7733,-707.1479 1919.358,-750.7798"/>
<polygon fill="none" stroke="#000000" points="1910.2192,-755.9552 1933.6756,-777.4039 1928.7144,-746.009 1910.2192,-755.9552"/>
</g>
<!-- 13 -->
<g id="node14" class="node">
<title>13</title>
<polygon fill="#f2f2f2" stroke="#000000" points="720.2594,-769.3 720.2594,-978.1 1205.1334,-978.1 1205.1334,-769.3 720.2594,-769.3"/>
<text text-anchor="middle" x="962.6964" y="-961.5" font-family="Times,serif" font-size="14.00" fill="#000000">&lt;&lt;Abstract&gt;&gt;</text>
<text text-anchor="middle" x="962.6964" y="-944.7" font-family="Times,serif" font-size="14.00" fill="#000000">Ownable</text>
<polyline fill="none" stroke="#000000" points="720.2594,-936.5 1205.1334,-936.5 "/>
<text text-anchor="start" x="728.2594" y="-919.9" font-family="Times,serif" font-size="14.00" fill="#000000">Private:</text>
<text text-anchor="start" x="728.2594" y="-903.1" font-family="Times,serif" font-size="14.00" fill="#000000"> &#160;&#160;_owner: address</text>
<polyline fill="none" stroke="#000000" points="720.2594,-894.9 1205.1334,-894.9 "/>
<text text-anchor="start" x="728.2594" y="-878.3" font-family="Times,serif" font-size="14.00" fill="#000000">Public:</text>
<text text-anchor="start" x="728.2594" y="-861.5" font-family="Times,serif" font-size="14.00" fill="#000000"> &#160;&#160;&#160;&lt;&lt;event&gt;&gt; OwnershipTransferred(previousOwner: address, newOwner: address)</text>
<text text-anchor="start" x="728.2594" y="-844.7" font-family="Times,serif" font-size="14.00" fill="#000000"> &#160;&#160;&#160;&lt;&lt;modifier&gt;&gt; onlyOwner()</text>
<text text-anchor="start" x="728.2594" y="-827.9" font-family="Times,serif" font-size="14.00" fill="#000000"> &#160;&#160;&#160;constructor()</text>
<text text-anchor="start" x="728.2594" y="-811.1" font-family="Times,serif" font-size="14.00" fill="#000000"> &#160;&#160;&#160;owner(): address</text>
<text text-anchor="start" x="728.2594" y="-794.3" font-family="Times,serif" font-size="14.00" fill="#000000"> &#160;&#160;&#160;renounceOwnership()</text>
<text text-anchor="start" x="728.2594" y="-777.5" font-family="Times,serif" font-size="14.00" fill="#000000"> &#160;&#160;&#160;transferOwnership(newOwner: address)</text>
</g>
<!-- 13&#45;&gt;0 -->
<g id="edge16" class="edge">
<title>13&#45;&gt;0</title>
<path fill="none" stroke="#000000" d="M864.7607,-978.1555C819.8191,-1024.0004 764.8033,-1077.3026 711.6964,-1121.4 679.0972,-1148.4688 641.9796,-1175.6262 607.3391,-1199.5907"/>
<polygon fill="none" stroke="#000000" points="601.2223,-1191.0529 582.3538,-1216.6308 613.0546,-1208.4022 601.2223,-1191.0529"/>
</g>
<!-- 14 -->
<g id="node15" class="node">
<title>14</title>
<polygon fill="#f2f2f2" stroke="#000000" points="771.1851,-380.7 771.1851,-471.9 1154.2077,-471.9 1154.2077,-380.7 771.1851,-380.7"/>
<text text-anchor="middle" x="962.6964" y="-455.3" font-family="Times,serif" font-size="14.00" fill="#000000">TokenRecover</text>
<polyline fill="none" stroke="#000000" points="771.1851,-447.1 1154.2077,-447.1 "/>
<text text-anchor="middle" x="962.6964" y="-430.5" font-family="Times,serif" font-size="14.00" fill="#000000"> </text>
<polyline fill="none" stroke="#000000" points="771.1851,-422.3 1154.2077,-422.3 "/>
<text text-anchor="start" x="779.1851" y="-405.7" font-family="Times,serif" font-size="14.00" fill="#000000">Public:</text>
<text text-anchor="start" x="779.1851" y="-388.9" font-family="Times,serif" font-size="14.00" fill="#000000"> &#160;&#160;&#160;recoverERC20(tokenAddress: address, tokenAmount: uint256)</text>
</g>
<!-- 14&#45;&gt;1 -->
<g id="edge18" class="edge">
<title>14&#45;&gt;1</title>
<path fill="none" stroke="#000000" stroke-dasharray="5,2" d="M1016.6077,-472.1804C1056.3898,-505.6024 1112.1632,-551.5612 1162.6964,-590 1184.7787,-606.7973 1200.5751,-601.5539 1213.6964,-626 1260.3633,-712.9445 1252.3746,-983.3654 1242.4656,-1147.7168"/>
<polygon fill="#000000" stroke="#000000" points="1238.96,-1147.7023 1241.8412,-1157.8978 1245.9469,-1148.1309 1238.96,-1147.7023"/>
</g>
<!-- 14&#45;&gt;13 -->
<g id="edge17" class="edge">
<title>14&#45;&gt;13</title>
<path fill="none" stroke="#000000" d="M962.6964,-472.0771C962.6964,-534.3375 962.6964,-648.3441 962.6964,-739.0269"/>
<polygon fill="none" stroke="#000000" points="952.1965,-739.0842 962.6964,-769.0843 973.1965,-739.0843 952.1965,-739.0842"/>
</g>
<!-- 15 -->
<g id="node16" class="node">
<title>15</title>
<polygon fill="#f2f2f2" stroke="#000000" points="496.1641,-313.5 496.1641,-539.1 753.2287,-539.1 753.2287,-313.5 496.1641,-313.5"/>
<text text-anchor="middle" x="624.6964" y="-522.5" font-family="Times,serif" font-size="14.00" fill="#000000">&lt;&lt;Abstract&gt;&gt;</text>
<text text-anchor="middle" x="624.6964" y="-505.7" font-family="Times,serif" font-size="14.00" fill="#000000">ERC20Mintable</text>
<polyline fill="none" stroke="#000000" points="496.1641,-497.5 753.2287,-497.5 "/>
<text text-anchor="start" x="504.1641" y="-480.9" font-family="Times,serif" font-size="14.00" fill="#000000">Private:</text>
<text text-anchor="start" x="504.1641" y="-464.1" font-family="Times,serif" font-size="14.00" fill="#000000"> &#160;&#160;_mintingFinished: bool</text>
<polyline fill="none" stroke="#000000" points="496.1641,-455.9 753.2287,-455.9 "/>
<text text-anchor="start" x="504.1641" y="-439.3" font-family="Times,serif" font-size="14.00" fill="#000000">Internal:</text>
<text text-anchor="start" x="504.1641" y="-422.5" font-family="Times,serif" font-size="14.00" fill="#000000"> &#160;&#160;&#160;_finishMinting()</text>
<text text-anchor="start" x="504.1641" y="-405.7" font-family="Times,serif" font-size="14.00" fill="#000000">Public:</text>
<text text-anchor="start" x="504.1641" y="-388.9" font-family="Times,serif" font-size="14.00" fill="#000000"> &#160;&#160;&#160;&lt;&lt;event&gt;&gt; MintFinished()</text>
<text text-anchor="start" x="504.1641" y="-372.1" font-family="Times,serif" font-size="14.00" fill="#000000"> &#160;&#160;&#160;&lt;&lt;modifier&gt;&gt; canMint()</text>
<text text-anchor="start" x="504.1641" y="-355.3" font-family="Times,serif" font-size="14.00" fill="#000000"> &#160;&#160;&#160;mintingFinished(): bool</text>
<text text-anchor="start" x="504.1641" y="-338.5" font-family="Times,serif" font-size="14.00" fill="#000000"> &#160;&#160;&#160;mint(account: address, amount: uint256)</text>
<text text-anchor="start" x="504.1641" y="-321.7" font-family="Times,serif" font-size="14.00" fill="#000000"> &#160;&#160;&#160;finishMinting()</text>
</g>
<!-- 15&#45;&gt;3 -->
<g id="edge19" class="edge">
<title>15&#45;&gt;3</title>
<path fill="none" stroke="#000000" d="M589.3685,-539.1979C583.6425,-557.4964 577.5025,-577.1182 571.1719,-597.3491"/>
<polygon fill="none" stroke="#000000" points="561.0565,-594.5158 562.1181,-626.2825 581.0982,-600.7872 561.0565,-594.5158"/>
</g>
<!-- 16 -->
<g id="node17" class="node">
<title>16</title>
<polygon fill="#f2f2f2" stroke="#000000" points="1796.007,-59.3 1796.007,-167.3 1971.3858,-167.3 1971.3858,-59.3 1796.007,-59.3"/>
<text text-anchor="middle" x="1883.6964" y="-150.7" font-family="Times,serif" font-size="14.00" fill="#000000">&lt;&lt;Interface&gt;&gt;</text>
<text text-anchor="middle" x="1883.6964" y="-133.9" font-family="Times,serif" font-size="14.00" fill="#000000">IPayable</text>
<polyline fill="none" stroke="#000000" points="1796.007,-125.7 1971.3858,-125.7 "/>
<text text-anchor="middle" x="1883.6964" y="-109.1" font-family="Times,serif" font-size="14.00" fill="#000000"> </text>
<polyline fill="none" stroke="#000000" points="1796.007,-100.9 1971.3858,-100.9 "/>
<text text-anchor="start" x="1804.007" y="-84.3" font-family="Times,serif" font-size="14.00" fill="#000000">External:</text>
<text text-anchor="start" x="1804.007" y="-67.5" font-family="Times,serif" font-size="14.00" fill="#000000"> &#160;&#160;&#160;&#160;pay(serviceName: string)</text>
</g>
<!-- 17 -->
<g id="node18" class="node">
<title>17</title>
<polygon fill="#f2f2f2" stroke="#000000" points="1753.6563,-372.3 1753.6563,-480.3 2069.7365,-480.3 2069.7365,-372.3 1753.6563,-372.3"/>
<text text-anchor="middle" x="1911.6964" y="-463.7" font-family="Times,serif" font-size="14.00" fill="#000000">&lt;&lt;Abstract&gt;&gt;</text>
<text text-anchor="middle" x="1911.6964" y="-446.9" font-family="Times,serif" font-size="14.00" fill="#000000">ServicePayer</text>
<polyline fill="none" stroke="#000000" points="1753.6563,-438.7 2069.7365,-438.7 "/>
<text text-anchor="middle" x="1911.6964" y="-422.1" font-family="Times,serif" font-size="14.00" fill="#000000"> </text>
<polyline fill="none" stroke="#000000" points="1753.6563,-413.9 2069.7365,-413.9 "/>
<text text-anchor="start" x="1761.6563" y="-397.3" font-family="Times,serif" font-size="14.00" fill="#000000">Public:</text>
<text text-anchor="start" x="1761.6563" y="-380.5" font-family="Times,serif" font-size="14.00" fill="#000000"> &#160;&#160;&#160;constructor(receiver: address, serviceName: string)</text>
</g>
<!-- 18 -->
<g id="node19" class="node">
<title>18</title>
<polygon fill="#f2f2f2" stroke="#000000" points="657.4666,-42.5 657.4666,-184.1 1267.9262,-184.1 1267.9262,-42.5 657.4666,-42.5"/>
<text text-anchor="middle" x="962.6964" y="-167.5" font-family="Times,serif" font-size="14.00" fill="#000000">AmazingERC20</text>
<polyline fill="none" stroke="#000000" points="657.4666,-159.3 1267.9262,-159.3 "/>
<text text-anchor="middle" x="962.6964" y="-142.7" font-family="Times,serif" font-size="14.00" fill="#000000"> </text>
<polyline fill="none" stroke="#000000" points="657.4666,-134.5 1267.9262,-134.5 "/>
<text text-anchor="start" x="665.4666" y="-117.9" font-family="Times,serif" font-size="14.00" fill="#000000">Internal:</text>
<text text-anchor="start" x="665.4666" y="-101.1" font-family="Times,serif" font-size="14.00" fill="#000000"> &#160;&#160;&#160;_mint(account: address, amount: uint256)</text>
<text text-anchor="start" x="665.4666" y="-84.3" font-family="Times,serif" font-size="14.00" fill="#000000"> &#160;&#160;&#160;_finishMinting()</text>
<text text-anchor="start" x="665.4666" y="-67.5" font-family="Times,serif" font-size="14.00" fill="#000000">Public:</text>
<text text-anchor="start" x="665.4666" y="-50.7" font-family="Times,serif" font-size="14.00" fill="#000000"> &#160;&#160;&#160;constructor(name: string, symbol: string, decimals: uint8, initialBalance: uint256, feeReceiver: address)</text>
</g>
<!-- 18&#45;&gt;4 -->
<g id="edge21" class="edge">
<title>18&#45;&gt;4</title>
<path fill="none" stroke="#000000" d="M657.3759,-183.1924C598.2487,-203.7586 538.5999,-229.8281 486.6964,-262.6 454.1598,-283.1436 424.0115,-312.3528 399.2876,-340.4245"/>
<polygon fill="none" stroke="#000000" points="391.1357,-333.8042 379.862,-363.5221 407.2074,-347.3209 391.1357,-333.8042"/>
</g>
<!-- 18&#45;&gt;12 -->
<g id="edge22" class="edge">
<title>18&#45;&gt;12</title>
<path fill="none" stroke="#000000" d="M1073.8051,-184.129C1103.6259,-203.139 1137.2707,-224.5866 1171.9007,-246.6624"/>
<polygon fill="none" stroke="#000000" points="1166.3089,-255.5498 1197.2502,-262.8221 1177.5973,-237.8418 1166.3089,-255.5498"/>
</g>
<!-- 18&#45;&gt;14 -->
<g id="edge23" class="edge">
<title>18&#45;&gt;14</title>
<path fill="none" stroke="#000000" d="M962.6964,-184.3245C962.6964,-233.7118 962.6964,-299.4811 962.6964,-349.9854"/>
<polygon fill="none" stroke="#000000" points="952.1965,-350.276 962.6964,-380.2761 973.1965,-350.2761 952.1965,-350.276"/>
</g>
<!-- 18&#45;&gt;15 -->
<g id="edge20" class="edge">
<title>18&#45;&gt;15</title>
<path fill="none" stroke="#000000" d="M857.504,-184.25C825.4791,-207.7112 791.0196,-234.9293 761.6964,-262.6 752.2426,-271.521 742.8077,-281.0704 733.5639,-290.9085"/>
<polygon fill="none" stroke="#000000" points="725.4549,-284.2196 713.0695,-313.4917 741.0059,-298.3323 725.4549,-284.2196"/>
</g>
<!-- 18&#45;&gt;17 -->
<g id="edge24" class="edge">
<title>18&#45;&gt;17</title>
<path fill="none" stroke="#000000" d="M1133.0036,-184.1679C1178.9316,-200.667 1229.1,-216.379 1276.6964,-226.6 1378.6787,-248.5 1649.7156,-219.4879 1744.6964,-262.6 1786.9394,-281.7743 1824.7432,-316.4454 1853.6547,-348.9592"/>
<polygon fill="none" stroke="#000000" points="1845.7103,-355.826 1873.0715,-372.0006 1861.7688,-342.2937 1845.7103,-355.826"/>
</g>
</g>
</svg>
