<?xml version="1.0" encoding="UTF-8" standalone="no"?>
<!DOCTYPE svg PUBLIC "-//W3C//DTD SVG 1.1//EN"
 "http://www.w3.org/Graphics/SVG/1.1/DTD/svg11.dtd">
<!-- Generated by graphviz version 2.40.1 (20161225.0304)
 -->
<!-- Title: UmlClassDiagram Pages: 1 -->
<svg width="3761pt" height="1493pt"
 viewBox="0.00 0.00 3760.75 1492.80" xmlns="http://www.w3.org/2000/svg" xmlns:xlink="http://www.w3.org/1999/xlink">
<g id="graph0" class="graph" transform="scale(1 1) rotate(0) translate(4 1488.8)">
<title>UmlClassDiagram</title>
<polygon fill="#ffffff" stroke="transparent" points="-4,4 -4,-1488.8 3756.7544,-1488.8 3756.7544,4 -4,4"/>
<!-- 0 -->
<g id="node1" class="node">
<title>0</title>
<polygon fill="#f2f2f2" stroke="#000000" points="375.6241,-1267.1 375.6241,-1391.9 593.7687,-1391.9 593.7687,-1267.1 375.6241,-1267.1"/>
<text text-anchor="middle" x="484.6964" y="-1375.3" font-family="Times,serif" font-size="14.00" fill="#000000">&lt;&lt;Abstract&gt;&gt;</text>
<text text-anchor="middle" x="484.6964" y="-1358.5" font-family="Times,serif" font-size="14.00" fill="#000000">Context</text>
<polyline fill="none" stroke="#000000" points="375.6241,-1350.3 593.7687,-1350.3 "/>
<text text-anchor="middle" x="484.6964" y="-1333.7" font-family="Times,serif" font-size="14.00" fill="#000000"> </text>
<polyline fill="none" stroke="#000000" points="375.6241,-1325.5 593.7687,-1325.5 "/>
<text text-anchor="start" x="383.6241" y="-1308.9" font-family="Times,serif" font-size="14.00" fill="#000000">Internal:</text>
<text text-anchor="start" x="383.6241" y="-1292.1" font-family="Times,serif" font-size="14.00" fill="#000000"> &#160;&#160;&#160;_msgSender(): (payable: address)</text>
<text text-anchor="start" x="383.6241" y="-1275.3" font-family="Times,serif" font-size="14.00" fill="#000000"> &#160;&#160;&#160;_msgData(): bytes</text>
</g>
<!-- 1 -->
<g id="node2" class="node">
<title>1</title>
<polygon fill="#f2f2f2" stroke="#000000" points="1013.3965,-1208.3 1013.3965,-1450.7 1451.9963,-1450.7 1451.9963,-1208.3 1013.3965,-1208.3"/>
<text text-anchor="middle" x="1232.6964" y="-1434.1" font-family="Times,serif" font-size="14.00" fill="#000000">&lt;&lt;Interface&gt;&gt;</text>
<text text-anchor="middle" x="1232.6964" y="-1417.3" font-family="Times,serif" font-size="14.00" fill="#000000">IERC20</text>
<polyline fill="none" stroke="#000000" points="1013.3965,-1409.1 1451.9963,-1409.1 "/>
<text text-anchor="middle" x="1232.6964" y="-1392.5" font-family="Times,serif" font-size="14.00" fill="#000000"> </text>
<polyline fill="none" stroke="#000000" points="1013.3965,-1384.3 1451.9963,-1384.3 "/>
<text text-anchor="start" x="1021.3965" y="-1367.7" font-family="Times,serif" font-size="14.00" fill="#000000">External:</text>
<text text-anchor="start" x="1021.3965" y="-1350.9" font-family="Times,serif" font-size="14.00" fill="#000000"> &#160;&#160;&#160;&#160;totalSupply(): uint256</text>
<text text-anchor="start" x="1021.3965" y="-1334.1" font-family="Times,serif" font-size="14.00" fill="#000000"> &#160;&#160;&#160;&#160;balanceOf(account: address): uint256</text>
<text text-anchor="start" x="1021.3965" y="-1317.3" font-family="Times,serif" font-size="14.00" fill="#000000"> &#160;&#160;&#160;&#160;transfer(recipient: address, amount: uint256): bool</text>
<text text-anchor="start" x="1021.3965" y="-1300.5" font-family="Times,serif" font-size="14.00" fill="#000000"> &#160;&#160;&#160;&#160;allowance(owner: address, spender: address): uint256</text>
<text text-anchor="start" x="1021.3965" y="-1283.7" font-family="Times,serif" font-size="14.00" fill="#000000"> &#160;&#160;&#160;&#160;approve(spender: address, amount: uint256): bool</text>
<text text-anchor="start" x="1021.3965" y="-1266.9" font-family="Times,serif" font-size="14.00" fill="#000000"> &#160;&#160;&#160;&#160;transferFrom(sender: address, recipient: address, amount: uint256): bool</text>
<text text-anchor="start" x="1021.3965" y="-1250.1" font-family="Times,serif" font-size="14.00" fill="#000000">Public:</text>
<text text-anchor="start" x="1021.3965" y="-1233.3" font-family="Times,serif" font-size="14.00" fill="#000000"> &#160;&#160;&#160;&lt;&lt;event&gt;&gt; Transfer(from: address, to: address, value: uint256)</text>
<text text-anchor="start" x="1021.3965" y="-1216.5" font-family="Times,serif" font-size="14.00" fill="#000000"> &#160;&#160;&#160;&lt;&lt;event&gt;&gt; Approval(owner: address, spender: address, value: uint256)</text>
</g>
<!-- 2 -->
<g id="node3" class="node">
<title>2</title>
<polygon fill="#f2f2f2" stroke="#000000" points="0,-1174.7 0,-1484.3 357.3928,-1484.3 357.3928,-1174.7 0,-1174.7"/>
<text text-anchor="middle" x="178.6964" y="-1467.7" font-family="Times,serif" font-size="14.00" fill="#000000">&lt;&lt;Library&gt;&gt;</text>
<text text-anchor="middle" x="178.6964" y="-1450.9" font-family="Times,serif" font-size="14.00" fill="#000000">SafeMath</text>
<polyline fill="none" stroke="#000000" points="0,-1442.7 357.3928,-1442.7 "/>
<text text-anchor="middle" x="178.6964" y="-1426.1" font-family="Times,serif" font-size="14.00" fill="#000000"> </text>
<polyline fill="none" stroke="#000000" points="0,-1417.9 357.3928,-1417.9 "/>
<text text-anchor="start" x="8" y="-1401.3" font-family="Times,serif" font-size="14.00" fill="#000000">Internal:</text>
<text text-anchor="start" x="8" y="-1384.5" font-family="Times,serif" font-size="14.00" fill="#000000"> &#160;&#160;&#160;tryAdd(a: uint256, b: uint256): (bool, uint256)</text>
<text text-anchor="start" x="8" y="-1367.7" font-family="Times,serif" font-size="14.00" fill="#000000"> &#160;&#160;&#160;trySub(a: uint256, b: uint256): (bool, uint256)</text>
<text text-anchor="start" x="8" y="-1350.9" font-family="Times,serif" font-size="14.00" fill="#000000"> &#160;&#160;&#160;tryMul(a: uint256, b: uint256): (bool, uint256)</text>
<text text-anchor="start" x="8" y="-1334.1" font-family="Times,serif" font-size="14.00" fill="#000000"> &#160;&#160;&#160;tryDiv(a: uint256, b: uint256): (bool, uint256)</text>
<text text-anchor="start" x="8" y="-1317.3" font-family="Times,serif" font-size="14.00" fill="#000000"> &#160;&#160;&#160;tryMod(a: uint256, b: uint256): (bool, uint256)</text>
<text text-anchor="start" x="8" y="-1300.5" font-family="Times,serif" font-size="14.00" fill="#000000"> &#160;&#160;&#160;add(a: uint256, b: uint256): uint256</text>
<text text-anchor="start" x="8" y="-1283.7" font-family="Times,serif" font-size="14.00" fill="#000000"> &#160;&#160;&#160;sub(a: uint256, b: uint256): uint256</text>
<text text-anchor="start" x="8" y="-1266.9" font-family="Times,serif" font-size="14.00" fill="#000000"> &#160;&#160;&#160;mul(a: uint256, b: uint256): uint256</text>
<text text-anchor="start" x="8" y="-1250.1" font-family="Times,serif" font-size="14.00" fill="#000000"> &#160;&#160;&#160;div(a: uint256, b: uint256): uint256</text>
<text text-anchor="start" x="8" y="-1233.3" font-family="Times,serif" font-size="14.00" fill="#000000"> &#160;&#160;&#160;mod(a: uint256, b: uint256): uint256</text>
<text text-anchor="start" x="8" y="-1216.5" font-family="Times,serif" font-size="14.00" fill="#000000"> &#160;&#160;&#160;sub(a: uint256, b: uint256, errorMessage: string): uint256</text>
<text text-anchor="start" x="8" y="-1199.7" font-family="Times,serif" font-size="14.00" fill="#000000"> &#160;&#160;&#160;div(a: uint256, b: uint256, errorMessage: string): uint256</text>
<text text-anchor="start" x="8" y="-1182.9" font-family="Times,serif" font-size="14.00" fill="#000000"> &#160;&#160;&#160;mod(a: uint256, b: uint256, errorMessage: string): uint256</text>
</g>
<!-- 3 -->
<g id="node4" class="node">
<title>3</title>
<polygon fill="#f2f2f2" stroke="#000000" points="267.1465,-643.3 267.1465,-1137.7 702.2463,-1137.7 702.2463,-643.3 267.1465,-643.3"/>
<text text-anchor="middle" x="484.6964" y="-1121.1" font-family="Times,serif" font-size="14.00" fill="#000000">ERC20</text>
<polyline fill="none" stroke="#000000" points="267.1465,-1112.9 702.2463,-1112.9 "/>
<text text-anchor="start" x="275.1465" y="-1096.3" font-family="Times,serif" font-size="14.00" fill="#000000">Private:</text>
<text text-anchor="start" x="275.1465" y="-1079.5" font-family="Times,serif" font-size="14.00" fill="#000000"> &#160;&#160;_balances: mapping(address=&gt;uint256)</text>
<text text-anchor="start" x="275.1465" y="-1062.7" font-family="Times,serif" font-size="14.00" fill="#000000"> &#160;&#160;_allowances: mapping(address=&gt;mapping(address=&gt;uint256))</text>
<text text-anchor="start" x="275.1465" y="-1045.9" font-family="Times,serif" font-size="14.00" fill="#000000"> &#160;&#160;_totalSupply: uint256</text>
<text text-anchor="start" x="275.1465" y="-1029.1" font-family="Times,serif" font-size="14.00" fill="#000000"> &#160;&#160;_name: string</text>
<text text-anchor="start" x="275.1465" y="-1012.3" font-family="Times,serif" font-size="14.00" fill="#000000"> &#160;&#160;_symbol: string</text>
<text text-anchor="start" x="275.1465" y="-995.5" font-family="Times,serif" font-size="14.00" fill="#000000"> &#160;&#160;_decimals: uint8</text>
<polyline fill="none" stroke="#000000" points="267.1465,-987.3 702.2463,-987.3 "/>
<text text-anchor="start" x="275.1465" y="-970.7" font-family="Times,serif" font-size="14.00" fill="#000000">Internal:</text>
<text text-anchor="start" x="275.1465" y="-953.9" font-family="Times,serif" font-size="14.00" fill="#000000"> &#160;&#160;&#160;_transfer(sender: address, recipient: address, amount: uint256)</text>
<text text-anchor="start" x="275.1465" y="-937.1" font-family="Times,serif" font-size="14.00" fill="#000000"> &#160;&#160;&#160;_mint(account: address, amount: uint256)</text>
<text text-anchor="start" x="275.1465" y="-920.3" font-family="Times,serif" font-size="14.00" fill="#000000"> &#160;&#160;&#160;_burn(account: address, amount: uint256)</text>
<text text-anchor="start" x="275.1465" y="-903.5" font-family="Times,serif" font-size="14.00" fill="#000000"> &#160;&#160;&#160;_approve(owner: address, spender: address, amount: uint256)</text>
<text text-anchor="start" x="275.1465" y="-886.7" font-family="Times,serif" font-size="14.00" fill="#000000"> &#160;&#160;&#160;_setupDecimals(decimals_: uint8)</text>
<text text-anchor="start" x="275.1465" y="-869.9" font-family="Times,serif" font-size="14.00" fill="#000000"> &#160;&#160;&#160;_beforeTokenTransfer(from: address, to: address, amount: uint256)</text>
<text text-anchor="start" x="275.1465" y="-853.1" font-family="Times,serif" font-size="14.00" fill="#000000">Public:</text>
<text text-anchor="start" x="275.1465" y="-836.3" font-family="Times,serif" font-size="14.00" fill="#000000"> &#160;&#160;&#160;constructor(name_: string, symbol_: string)</text>
<text text-anchor="start" x="275.1465" y="-819.5" font-family="Times,serif" font-size="14.00" fill="#000000"> &#160;&#160;&#160;name(): string</text>
<text text-anchor="start" x="275.1465" y="-802.7" font-family="Times,serif" font-size="14.00" fill="#000000"> &#160;&#160;&#160;symbol(): string</text>
<text text-anchor="start" x="275.1465" y="-785.9" font-family="Times,serif" font-size="14.00" fill="#000000"> &#160;&#160;&#160;decimals(): uint8</text>
<text text-anchor="start" x="275.1465" y="-769.1" font-family="Times,serif" font-size="14.00" fill="#000000"> &#160;&#160;&#160;totalSupply(): uint256</text>
<text text-anchor="start" x="275.1465" y="-752.3" font-family="Times,serif" font-size="14.00" fill="#000000"> &#160;&#160;&#160;balanceOf(account: address): uint256</text>
<text text-anchor="start" x="275.1465" y="-735.5" font-family="Times,serif" font-size="14.00" fill="#000000"> &#160;&#160;&#160;transfer(recipient: address, amount: uint256): bool</text>
<text text-anchor="start" x="275.1465" y="-718.7" font-family="Times,serif" font-size="14.00" fill="#000000"> &#160;&#160;&#160;allowance(owner: address, spender: address): uint256</text>
<text text-anchor="start" x="275.1465" y="-701.9" font-family="Times,serif" font-size="14.00" fill="#000000"> &#160;&#160;&#160;approve(spender: address, amount: uint256): bool</text>
<text text-anchor="start" x="275.1465" y="-685.1" font-family="Times,serif" font-size="14.00" fill="#000000"> &#160;&#160;&#160;transferFrom(sender: address, recipient: address, amount: uint256): bool</text>
<text text-anchor="start" x="275.1465" y="-668.3" font-family="Times,serif" font-size="14.00" fill="#000000"> &#160;&#160;&#160;increaseAllowance(spender: address, addedValue: uint256): bool</text>
<text text-anchor="start" x="275.1465" y="-651.5" font-family="Times,serif" font-size="14.00" fill="#000000"> &#160;&#160;&#160;decreaseAllowance(spender: address, subtractedValue: uint256): bool</text>
</g>
<!-- 3&#45;&gt;0 -->
<g id="edge1" class="edge">
<title>3&#45;&gt;0</title>
<path fill="none" stroke="#000000" d="M484.6964,-1137.9061C484.6964,-1173.0849 484.6964,-1207.2917 484.6964,-1236.8326"/>
<polygon fill="none" stroke="#000000" points="474.1965,-1236.8817 484.6964,-1266.8817 495.1965,-1236.8817 474.1965,-1236.8817"/>
</g>
<!-- 3&#45;&gt;1 -->
<g id="edge2" class="edge">
<title>3&#45;&gt;1</title>
<path fill="none" stroke="#000000" stroke-dasharray="5,2" d="M702.2898,-1131.7141C705.4109,-1133.9259 708.5468,-1136.0892 711.6964,-1138.2 793.9424,-1193.3203 894.1002,-1235.0117 984.5409,-1265.1742"/>
<polygon fill="none" stroke="#000000" points="981.436,-1275.2055 1013.2118,-1274.4649 987.9096,-1255.2282 981.436,-1275.2055"/>
</g>
<!-- 3&#45;&gt;2 -->
<g id="edge3" class="edge">
<title>3&#45;&gt;2</title>
<path fill="none" stroke="#000000" stroke-dasharray="5,2" d="M312.2448,-1137.9061C305.6458,-1147.3732 299.096,-1156.7699 292.6453,-1166.0243"/>
<polygon fill="#000000" stroke="#000000" points="289.5977,-1164.2759 286.7506,-1174.481 295.3403,-1168.2787 289.5977,-1164.2759"/>
</g>
<!-- 4 -->
<g id="node5" class="node">
<title>4</title>
<polygon fill="#f2f2f2" stroke="#000000" points="191.0028,-380.7 191.0028,-505.5 478.39,-505.5 478.39,-380.7 191.0028,-380.7"/>
<text text-anchor="middle" x="334.6964" y="-488.9" font-family="Times,serif" font-size="14.00" fill="#000000">&lt;&lt;Abstract&gt;&gt;</text>
<text text-anchor="middle" x="334.6964" y="-472.1" font-family="Times,serif" font-size="14.00" fill="#000000">ERC20Burnable</text>
<polyline fill="none" stroke="#000000" points="191.0028,-463.9 478.39,-463.9 "/>
<text text-anchor="middle" x="334.6964" y="-447.3" font-family="Times,serif" font-size="14.00" fill="#000000"> </text>
<polyline fill="none" stroke="#000000" points="191.0028,-439.1 478.39,-439.1 "/>
<text text-anchor="start" x="199.0028" y="-422.5" font-family="Times,serif" font-size="14.00" fill="#000000">Public:</text>
<text text-anchor="start" x="199.0028" y="-405.7" font-family="Times,serif" font-size="14.00" fill="#000000"> &#160;&#160;&#160;burn(amount: uint256)</text>
<text text-anchor="start" x="199.0028" y="-388.9" font-family="Times,serif" font-size="14.00" fill="#000000"> &#160;&#160;&#160;burnFrom(account: address, amount: uint256)</text>
</g>
<!-- 4&#45;&gt;0 -->
<g id="edge4" class="edge">
<title>4&#45;&gt;0</title>
<path fill="none" stroke="#000000" d="M303.7211,-505.6536C286.4048,-544.1642 266.5688,-595.1273 257.6964,-642.8 237.5535,-751.0304 193.2033,-1048.98 257.6964,-1138.2 287.5843,-1179.547 325.1743,-1144.5558 366.6964,-1174.2 391.9872,-1192.256 414.3092,-1217.3235 432.541,-1242.0552"/>
<polygon fill="none" stroke="#000000" points="424.006,-1248.1739 449.6893,-1266.8987 441.2886,-1236.2445 424.006,-1248.1739"/>
</g>
<!-- 4&#45;&gt;2 -->
<g id="edge6" class="edge">
<title>4&#45;&gt;2</title>
<path fill="none" stroke="#000000" stroke-dasharray="5,2" d="M288.9428,-505.7835C264.0264,-543.5177 235.3606,-593.6414 220.6964,-642.8 169.1816,-815.4923 163.8004,-1023.1556 168.0673,-1164.5822"/>
<polygon fill="#000000" stroke="#000000" points="164.5713,-1164.7666 168.3907,-1174.6491 171.5677,-1164.5418 164.5713,-1164.7666"/>
</g>
<!-- 4&#45;&gt;3 -->
<g id="edge5" class="edge">
<title>4&#45;&gt;3</title>
<path fill="none" stroke="#000000" d="M355.7112,-505.7801C365.7672,-535.7737 378.5776,-573.983 392.2039,-614.6256"/>
<polygon fill="none" stroke="#000000" points="382.2521,-617.9744 401.744,-643.0806 402.1629,-611.2989 382.2521,-617.9744"/>
</g>
<!-- 5 -->
<g id="node6" class="node">
<title>5</title>
<polygon fill="#f2f2f2" stroke="#000000" points="1653.2787,-1275.5 1653.2787,-1383.5 1930.1141,-1383.5 1930.1141,-1275.5 1653.2787,-1275.5"/>
<text text-anchor="middle" x="1791.6964" y="-1366.9" font-family="Times,serif" font-size="14.00" fill="#000000">&lt;&lt;Interface&gt;&gt;</text>
<text text-anchor="middle" x="1791.6964" y="-1350.1" font-family="Times,serif" font-size="14.00" fill="#000000">IERC165</text>
<polyline fill="none" stroke="#000000" points="1653.2787,-1341.9 1930.1141,-1341.9 "/>
<text text-anchor="middle" x="1791.6964" y="-1325.3" font-family="Times,serif" font-size="14.00" fill="#000000"> </text>
<polyline fill="none" stroke="#000000" points="1653.2787,-1317.1 1930.1141,-1317.1 "/>
<text text-anchor="start" x="1661.2787" y="-1300.5" font-family="Times,serif" font-size="14.00" fill="#000000">External:</text>
<text text-anchor="start" x="1661.2787" y="-1283.7" font-family="Times,serif" font-size="14.00" fill="#000000"> &#160;&#160;&#160;&#160;supportsInterface(interfaceId: bytes4): bool</text>
</g>
<!-- 6 -->
<g id="node7" class="node">
<title>6</title>
<polygon fill="#f2f2f2" stroke="#000000" points="1261.0469,-794.5 1261.0469,-986.5 1814.3459,-986.5 1814.3459,-794.5 1261.0469,-794.5"/>
<text text-anchor="middle" x="1537.6964" y="-969.9" font-family="Times,serif" font-size="14.00" fill="#000000">&lt;&lt;Interface&gt;&gt;</text>
<text text-anchor="middle" x="1537.6964" y="-953.1" font-family="Times,serif" font-size="14.00" fill="#000000">IERC1363</text>
<polyline fill="none" stroke="#000000" points="1261.0469,-944.9 1814.3459,-944.9 "/>
<text text-anchor="middle" x="1537.6964" y="-928.3" font-family="Times,serif" font-size="14.00" fill="#000000"> </text>
<polyline fill="none" stroke="#000000" points="1261.0469,-920.1 1814.3459,-920.1 "/>
<text text-anchor="start" x="1269.0469" y="-903.5" font-family="Times,serif" font-size="14.00" fill="#000000">External:</text>
<text text-anchor="start" x="1269.0469" y="-886.7" font-family="Times,serif" font-size="14.00" fill="#000000"> &#160;&#160;&#160;&#160;transferAndCall(recipient: address, amount: uint256): bool</text>
<text text-anchor="start" x="1269.0469" y="-869.9" font-family="Times,serif" font-size="14.00" fill="#000000"> &#160;&#160;&#160;&#160;transferAndCall(recipient: address, amount: uint256, data: bytes): bool</text>
<text text-anchor="start" x="1269.0469" y="-853.1" font-family="Times,serif" font-size="14.00" fill="#000000"> &#160;&#160;&#160;&#160;transferFromAndCall(sender: address, recipient: address, amount: uint256): bool</text>
<text text-anchor="start" x="1269.0469" y="-836.3" font-family="Times,serif" font-size="14.00" fill="#000000"> &#160;&#160;&#160;&#160;transferFromAndCall(sender: address, recipient: address, amount: uint256, data: bytes): bool</text>
<text text-anchor="start" x="1269.0469" y="-819.5" font-family="Times,serif" font-size="14.00" fill="#000000"> &#160;&#160;&#160;&#160;approveAndCall(spender: address, amount: uint256): bool</text>
<text text-anchor="start" x="1269.0469" y="-802.7" font-family="Times,serif" font-size="14.00" fill="#000000"> &#160;&#160;&#160;&#160;approveAndCall(spender: address, amount: uint256, data: bytes): bool</text>
</g>
<!-- 6&#45;&gt;1 -->
<g id="edge7" class="edge">
<title>6&#45;&gt;1</title>
<path fill="none" stroke="#000000" stroke-dasharray="5,2" d="M1470.9514,-986.5691C1430.9318,-1044.1711 1379.2382,-1118.5758 1334.235,-1183.351"/>
<polygon fill="none" stroke="#000000" points="1325.526,-1177.4836 1317.032,-1208.1121 1342.7723,-1189.4656 1325.526,-1177.4836"/>
</g>
<!-- 6&#45;&gt;5 -->
<g id="edge8" class="edge">
<title>6&#45;&gt;5</title>
<path fill="none" stroke="#000000" stroke-dasharray="5,2" d="M1593.2808,-986.5691C1638.8223,-1065.2806 1702.5169,-1175.3669 1745.3429,-1249.3851"/>
<polygon fill="none" stroke="#000000" points="1736.2662,-1254.6638 1760.3787,-1275.3722 1754.443,-1244.1469 1736.2662,-1254.6638"/>
</g>
<!-- 7 -->
<g id="node8" class="node">
<title>7</title>
<polygon fill="#f2f2f2" stroke="#000000" points="2136.8975,-836.5 2136.8975,-944.5 2692.4953,-944.5 2692.4953,-836.5 2136.8975,-836.5"/>
<text text-anchor="middle" x="2414.6964" y="-927.9" font-family="Times,serif" font-size="14.00" fill="#000000">&lt;&lt;Interface&gt;&gt;</text>
<text text-anchor="middle" x="2414.6964" y="-911.1" font-family="Times,serif" font-size="14.00" fill="#000000">IERC1363Receiver</text>
<polyline fill="none" stroke="#000000" points="2136.8975,-902.9 2692.4953,-902.9 "/>
<text text-anchor="middle" x="2414.6964" y="-886.3" font-family="Times,serif" font-size="14.00" fill="#000000"> </text>
<polyline fill="none" stroke="#000000" points="2136.8975,-878.1 2692.4953,-878.1 "/>
<text text-anchor="start" x="2144.8975" y="-861.5" font-family="Times,serif" font-size="14.00" fill="#000000">External:</text>
<text text-anchor="start" x="2144.8975" y="-844.7" font-family="Times,serif" font-size="14.00" fill="#000000"> &#160;&#160;&#160;&#160;onTransferReceived(operator: address, sender: address, amount: uint256, data: bytes): bytes4</text>
</g>
<!-- 8 -->
<g id="node9" class="node">
<title>8</title>
<polygon fill="#f2f2f2" stroke="#000000" points="2710.6707,-836.5 2710.6707,-944.5 3168.7221,-944.5 3168.7221,-836.5 2710.6707,-836.5"/>
<text text-anchor="middle" x="2939.6964" y="-927.9" font-family="Times,serif" font-size="14.00" fill="#000000">&lt;&lt;Interface&gt;&gt;</text>
<text text-anchor="middle" x="2939.6964" y="-911.1" font-family="Times,serif" font-size="14.00" fill="#000000">IERC1363Spender</text>
<polyline fill="none" stroke="#000000" points="2710.6707,-902.9 3168.7221,-902.9 "/>
<text text-anchor="middle" x="2939.6964" y="-886.3" font-family="Times,serif" font-size="14.00" fill="#000000"> </text>
<polyline fill="none" stroke="#000000" points="2710.6707,-878.1 3168.7221,-878.1 "/>
<text text-anchor="start" x="2718.6707" y="-861.5" font-family="Times,serif" font-size="14.00" fill="#000000">External:</text>
<text text-anchor="start" x="2718.6707" y="-844.7" font-family="Times,serif" font-size="14.00" fill="#000000"> &#160;&#160;&#160;&#160;onApprovalReceived(sender: address, amount: uint256, data: bytes): bytes4</text>
</g>
<!-- 9 -->
<g id="node10" class="node">
<title>9</title>
<polygon fill="#f2f2f2" stroke="#000000" points="3186.6384,-744.1 3186.6384,-1036.9 3752.7544,-1036.9 3752.7544,-744.1 3186.6384,-744.1"/>
<text text-anchor="middle" x="3469.6964" y="-1020.3" font-family="Times,serif" font-size="14.00" fill="#000000">&lt;&lt;Library&gt;&gt;</text>
<text text-anchor="middle" x="3469.6964" y="-1003.5" font-family="Times,serif" font-size="14.00" fill="#000000">Address</text>
<polyline fill="none" stroke="#000000" points="3186.6384,-995.3 3752.7544,-995.3 "/>
<text text-anchor="middle" x="3469.6964" y="-978.7" font-family="Times,serif" font-size="14.00" fill="#000000"> </text>
<polyline fill="none" stroke="#000000" points="3186.6384,-970.5 3752.7544,-970.5 "/>
<text text-anchor="start" x="3194.6384" y="-953.9" font-family="Times,serif" font-size="14.00" fill="#000000">Private:</text>
<text text-anchor="start" x="3194.6384" y="-937.1" font-family="Times,serif" font-size="14.00" fill="#000000"> &#160;&#160;&#160;_verifyCallResult(success: bool, returndata: bytes, errorMessage: string): bytes</text>
<text text-anchor="start" x="3194.6384" y="-920.3" font-family="Times,serif" font-size="14.00" fill="#000000">Internal:</text>
<text text-anchor="start" x="3194.6384" y="-903.5" font-family="Times,serif" font-size="14.00" fill="#000000"> &#160;&#160;&#160;isContract(account: address): bool</text>
<text text-anchor="start" x="3194.6384" y="-886.7" font-family="Times,serif" font-size="14.00" fill="#000000"> &#160;&#160;&#160;sendValue(recipient: address, amount: uint256)</text>
<text text-anchor="start" x="3194.6384" y="-869.9" font-family="Times,serif" font-size="14.00" fill="#000000"> &#160;&#160;&#160;functionCall(target: address, data: bytes): bytes</text>
<text text-anchor="start" x="3194.6384" y="-853.1" font-family="Times,serif" font-size="14.00" fill="#000000"> &#160;&#160;&#160;functionCall(target: address, data: bytes, errorMessage: string): bytes</text>
<text text-anchor="start" x="3194.6384" y="-836.3" font-family="Times,serif" font-size="14.00" fill="#000000"> &#160;&#160;&#160;functionCallWithValue(target: address, data: bytes, value: uint256): bytes</text>
<text text-anchor="start" x="3194.6384" y="-819.5" font-family="Times,serif" font-size="14.00" fill="#000000"> &#160;&#160;&#160;functionCallWithValue(target: address, data: bytes, value: uint256, errorMessage: string): bytes</text>
<text text-anchor="start" x="3194.6384" y="-802.7" font-family="Times,serif" font-size="14.00" fill="#000000"> &#160;&#160;&#160;functionStaticCall(target: address, data: bytes): bytes</text>
<text text-anchor="start" x="3194.6384" y="-785.9" font-family="Times,serif" font-size="14.00" fill="#000000"> &#160;&#160;&#160;functionStaticCall(target: address, data: bytes, errorMessage: string): bytes</text>
<text text-anchor="start" x="3194.6384" y="-769.1" font-family="Times,serif" font-size="14.00" fill="#000000"> &#160;&#160;&#160;functionDelegateCall(target: address, data: bytes): bytes</text>
<text text-anchor="start" x="3194.6384" y="-752.3" font-family="Times,serif" font-size="14.00" fill="#000000"> &#160;&#160;&#160;functionDelegateCall(target: address, data: bytes, errorMessage: string): bytes</text>
</g>
<!-- 10 -->
<g id="node11" class="node">
<title>10</title>
<polygon fill="#f2f2f2" stroke="#000000" points="1285.5837,-.5 1285.5837,-242.9 1777.8091,-242.9 1777.8091,-.5 1285.5837,-.5"/>
<text text-anchor="middle" x="1531.6964" y="-226.3" font-family="Times,serif" font-size="14.00" fill="#000000">&lt;&lt;Library&gt;&gt;</text>
<text text-anchor="middle" x="1531.6964" y="-209.5" font-family="Times,serif" font-size="14.00" fill="#000000">ERC165Checker</text>
<polyline fill="none" stroke="#000000" points="1285.5837,-201.3 1777.8091,-201.3 "/>
<text text-anchor="start" x="1293.5837" y="-184.7" font-family="Times,serif" font-size="14.00" fill="#000000">Private:</text>
<text text-anchor="start" x="1293.5837" y="-167.9" font-family="Times,serif" font-size="14.00" fill="#000000"> &#160;&#160;_INTERFACE_ID_INVALID: bytes4</text>
<text text-anchor="start" x="1293.5837" y="-151.1" font-family="Times,serif" font-size="14.00" fill="#000000"> &#160;&#160;_INTERFACE_ID_ERC165: bytes4</text>
<polyline fill="none" stroke="#000000" points="1285.5837,-142.9 1777.8091,-142.9 "/>
<text text-anchor="start" x="1293.5837" y="-126.3" font-family="Times,serif" font-size="14.00" fill="#000000">Private:</text>
<text text-anchor="start" x="1293.5837" y="-109.5" font-family="Times,serif" font-size="14.00" fill="#000000"> &#160;&#160;&#160;_supportsERC165Interface(account: address, interfaceId: bytes4): bool</text>
<text text-anchor="start" x="1293.5837" y="-92.7" font-family="Times,serif" font-size="14.00" fill="#000000"> &#160;&#160;&#160;_callERC165SupportsInterface(account: address, interfaceId: bytes4): (bool, bool)</text>
<text text-anchor="start" x="1293.5837" y="-75.9" font-family="Times,serif" font-size="14.00" fill="#000000">Internal:</text>
<text text-anchor="start" x="1293.5837" y="-59.1" font-family="Times,serif" font-size="14.00" fill="#000000"> &#160;&#160;&#160;supportsERC165(account: address): bool</text>
<text text-anchor="start" x="1293.5837" y="-42.3" font-family="Times,serif" font-size="14.00" fill="#000000"> &#160;&#160;&#160;supportsInterface(account: address, interfaceId: bytes4): bool</text>
<text text-anchor="start" x="1293.5837" y="-25.5" font-family="Times,serif" font-size="14.00" fill="#000000"> &#160;&#160;&#160;getSupportedInterfaces(account: address, interfaceIds: bytes4[]): bool[]</text>
<text text-anchor="start" x="1293.5837" y="-8.7" font-family="Times,serif" font-size="14.00" fill="#000000"> &#160;&#160;&#160;supportsAllInterfaces(account: address, interfaceIds: bytes4[]): bool</text>
</g>
<!-- 11 -->
<g id="node12" class="node">
<title>11</title>
<polygon fill="#f2f2f2" stroke="#000000" points="1832.2849,-794.5 1832.2849,-986.5 2119.1079,-986.5 2119.1079,-794.5 1832.2849,-794.5"/>
<text text-anchor="middle" x="1975.6964" y="-969.9" font-family="Times,serif" font-size="14.00" fill="#000000">&lt;&lt;Abstract&gt;&gt;</text>
<text text-anchor="middle" x="1975.6964" y="-953.1" font-family="Times,serif" font-size="14.00" fill="#000000">ERC165</text>
<polyline fill="none" stroke="#000000" points="1832.2849,-944.9 2119.1079,-944.9 "/>
<text text-anchor="start" x="1840.2849" y="-928.3" font-family="Times,serif" font-size="14.00" fill="#000000">Private:</text>
<text text-anchor="start" x="1840.2849" y="-911.5" font-family="Times,serif" font-size="14.00" fill="#000000"> &#160;&#160;_INTERFACE_ID_ERC165: bytes4</text>
<text text-anchor="start" x="1840.2849" y="-894.7" font-family="Times,serif" font-size="14.00" fill="#000000"> &#160;&#160;_supportedInterfaces: mapping(bytes4=&gt;bool)</text>
<polyline fill="none" stroke="#000000" points="1832.2849,-886.5 2119.1079,-886.5 "/>
<text text-anchor="start" x="1840.2849" y="-869.9" font-family="Times,serif" font-size="14.00" fill="#000000">Internal:</text>
<text text-anchor="start" x="1840.2849" y="-853.1" font-family="Times,serif" font-size="14.00" fill="#000000"> &#160;&#160;&#160;_registerInterface(interfaceId: bytes4)</text>
<text text-anchor="start" x="1840.2849" y="-836.3" font-family="Times,serif" font-size="14.00" fill="#000000">Public:</text>
<text text-anchor="start" x="1840.2849" y="-819.5" font-family="Times,serif" font-size="14.00" fill="#000000"> &#160;&#160;&#160;constructor()</text>
<text text-anchor="start" x="1840.2849" y="-802.7" font-family="Times,serif" font-size="14.00" fill="#000000"> &#160;&#160;&#160;supportsInterface(interfaceId: bytes4): bool</text>
</g>
<!-- 11&#45;&gt;5 -->
<g id="edge9" class="edge">
<title>11&#45;&gt;5</title>
<path fill="none" stroke="#000000" stroke-dasharray="5,2" d="M1935.4306,-986.5691C1902.7299,-1064.5886 1857.1091,-1173.4338 1826.097,-1247.4246"/>
<polygon fill="none" stroke="#000000" points="1816.2961,-1243.6453 1814.3832,-1275.3722 1835.6637,-1251.763 1816.2961,-1243.6453"/>
</g>
<!-- 12 -->
<g id="node13" class="node">
<title>12</title>
<polygon fill="#f2f2f2" stroke="#000000" points="1171.8109,-279.9 1171.8109,-606.3 1735.5819,-606.3 1735.5819,-279.9 1171.8109,-279.9"/>
<text text-anchor="middle" x="1453.6964" y="-589.7" font-family="Times,serif" font-size="14.00" fill="#000000">ERC1363</text>
<polyline fill="none" stroke="#000000" points="1171.8109,-581.5 1735.5819,-581.5 "/>
<text text-anchor="start" x="1179.8109" y="-564.9" font-family="Times,serif" font-size="14.00" fill="#000000">Private:</text>
<text text-anchor="start" x="1179.8109" y="-548.1" font-family="Times,serif" font-size="14.00" fill="#000000"> &#160;&#160;_ERC1363_RECEIVED: bytes4</text>
<text text-anchor="start" x="1179.8109" y="-531.3" font-family="Times,serif" font-size="14.00" fill="#000000"> &#160;&#160;_ERC1363_APPROVED: bytes4</text>
<text text-anchor="start" x="1179.8109" y="-514.5" font-family="Times,serif" font-size="14.00" fill="#000000">Internal:</text>
<text text-anchor="start" x="1179.8109" y="-497.7" font-family="Times,serif" font-size="14.00" fill="#000000"> &#160;&#160;_INTERFACE_ID_ERC1363_TRANSFER: bytes4</text>
<text text-anchor="start" x="1179.8109" y="-480.9" font-family="Times,serif" font-size="14.00" fill="#000000"> &#160;&#160;_INTERFACE_ID_ERC1363_APPROVE: bytes4</text>
<polyline fill="none" stroke="#000000" points="1171.8109,-472.7 1735.5819,-472.7 "/>
<text text-anchor="start" x="1179.8109" y="-456.1" font-family="Times,serif" font-size="14.00" fill="#000000">Internal:</text>
<text text-anchor="start" x="1179.8109" y="-439.3" font-family="Times,serif" font-size="14.00" fill="#000000"> &#160;&#160;&#160;_checkAndCallTransfer(sender: address, recipient: address, amount: uint256, data: bytes): bool</text>
<text text-anchor="start" x="1179.8109" y="-422.5" font-family="Times,serif" font-size="14.00" fill="#000000"> &#160;&#160;&#160;_checkAndCallApprove(spender: address, amount: uint256, data: bytes): bool</text>
<text text-anchor="start" x="1179.8109" y="-405.7" font-family="Times,serif" font-size="14.00" fill="#000000">Public:</text>
<text text-anchor="start" x="1179.8109" y="-388.9" font-family="Times,serif" font-size="14.00" fill="#000000"> &#160;&#160;&#160;constructor(name: string, symbol: string)</text>
<text text-anchor="start" x="1179.8109" y="-372.1" font-family="Times,serif" font-size="14.00" fill="#000000"> &#160;&#160;&#160;transferAndCall(recipient: address, amount: uint256): bool</text>
<text text-anchor="start" x="1179.8109" y="-355.3" font-family="Times,serif" font-size="14.00" fill="#000000"> &#160;&#160;&#160;transferAndCall(recipient: address, amount: uint256, data: bytes): bool</text>
<text text-anchor="start" x="1179.8109" y="-338.5" font-family="Times,serif" font-size="14.00" fill="#000000"> &#160;&#160;&#160;transferFromAndCall(sender: address, recipient: address, amount: uint256): bool</text>
<text text-anchor="start" x="1179.8109" y="-321.7" font-family="Times,serif" font-size="14.00" fill="#000000"> &#160;&#160;&#160;transferFromAndCall(sender: address, recipient: address, amount: uint256, data: bytes): bool</text>
<text text-anchor="start" x="1179.8109" y="-304.9" font-family="Times,serif" font-size="14.00" fill="#000000"> &#160;&#160;&#160;approveAndCall(spender: address, amount: uint256): bool</text>
<text text-anchor="start" x="1179.8109" y="-288.1" font-family="Times,serif" font-size="14.00" fill="#000000"> &#160;&#160;&#160;approveAndCall(spender: address, amount: uint256, data: bytes): bool</text>
</g>
<!-- 12&#45;&gt;3 -->
<g id="edge10" class="edge">
<title>12&#45;&gt;3</title>
<path fill="none" stroke="#000000" d="M1171.5812,-604.313C1168.9512,-605.1677 1166.3226,-605.9971 1163.6964,-606.8 980.4802,-662.8109 900.7774,-564.9448 729.7164,-635.2513"/>
<polygon fill="none" stroke="#000000" points="725.3657,-625.6949 702.3304,-647.5952 733.9952,-644.8399 725.3657,-625.6949"/>
</g>
<!-- 12&#45;&gt;6 -->
<g id="edge11" class="edge">
<title>12&#45;&gt;6</title>
<path fill="none" stroke="#000000" stroke-dasharray="5,2" d="M1484.3789,-606.5208C1494.175,-658.6969 1504.8588,-715.6009 1514.0729,-764.6766"/>
<polygon fill="none" stroke="#000000" points="1503.8161,-766.9495 1519.6717,-794.4968 1524.4554,-763.0744 1503.8161,-766.9495"/>
</g>
<!-- 12&#45;&gt;7 -->
<g id="edge14" class="edge">
<title>12&#45;&gt;7</title>
<path fill="none" stroke="#000000" stroke-dasharray="5,2" d="M1735.9744,-603.9821C1738.8841,-604.9519 1741.7919,-605.8917 1744.6964,-606.8 1907.8768,-657.8272 1970.4124,-575.7677 2127.6964,-642.8 2224.0324,-683.8571 2311.4816,-769.5595 2363.8783,-828.553"/>
<polygon fill="#000000" stroke="#000000" points="2361.4883,-831.1351 2370.7215,-836.3311 2366.7438,-826.5113 2361.4883,-831.1351"/>
</g>
<!-- 12&#45;&gt;8 -->
<g id="edge15" class="edge">
<title>12&#45;&gt;8</title>
<path fill="none" stroke="#000000" stroke-dasharray="5,2" d="M1735.9044,-604.2177C1738.8364,-605.1122 1741.7675,-605.9736 1744.6964,-606.8 1949.5163,-664.5921 2507.5044,-555.7335 2701.6964,-642.8 2788.3144,-681.6354 2859.2292,-767.9366 2900.4823,-827.665"/>
<polygon fill="#000000" stroke="#000000" points="2897.8274,-829.9843 2906.352,-836.2758 2903.6115,-826.0415 2897.8274,-829.9843"/>
</g>
<!-- 12&#45;&gt;9 -->
<g id="edge13" class="edge">
<title>12&#45;&gt;9</title>
<path fill="none" stroke="#000000" stroke-dasharray="5,2" d="M1735.8897,-604.2704C1738.8264,-605.1481 1741.7624,-605.9919 1744.6964,-606.8 1898.2507,-649.094 3028.8769,-586.0508 3177.6964,-642.8 3232.3037,-663.6234 3283.8417,-699.3567 3327.9784,-737.3037"/>
<polygon fill="#000000" stroke="#000000" points="3325.7236,-739.9813 3335.5634,-743.9093 3330.3208,-734.7025 3325.7236,-739.9813"/>
</g>
<!-- 12&#45;&gt;11 -->
<g id="edge12" class="edge">
<title>12&#45;&gt;11</title>
<path fill="none" stroke="#000000" d="M1735.7436,-602.2286C1738.7398,-603.7662 1741.7248,-605.2905 1744.6964,-606.8 1779.0974,-624.2746 1794.7899,-617.2421 1823.6964,-642.8 1862.5895,-677.1876 1894.7733,-723.9479 1919.358,-767.5798"/>
<polygon fill="none" stroke="#000000" points="1910.2192,-772.7552 1933.6756,-794.2039 1928.7144,-762.809 1910.2192,-772.7552"/>
</g>
<!-- 13 -->
<g id="node14" class="node">
<title>13</title>
<polygon fill="#f2f2f2" stroke="#000000" points="720.2594,-786.1 720.2594,-994.9 1205.1334,-994.9 1205.1334,-786.1 720.2594,-786.1"/>
<text text-anchor="middle" x="962.6964" y="-978.3" font-family="Times,serif" font-size="14.00" fill="#000000">&lt;&lt;Abstract&gt;&gt;</text>
<text text-anchor="middle" x="962.6964" y="-961.5" font-family="Times,serif" font-size="14.00" fill="#000000">Ownable</text>
<polyline fill="none" stroke="#000000" points="720.2594,-953.3 1205.1334,-953.3 "/>
<text text-anchor="start" x="728.2594" y="-936.7" font-family="Times,serif" font-size="14.00" fill="#000000">Private:</text>
<text text-anchor="start" x="728.2594" y="-919.9" font-family="Times,serif" font-size="14.00" fill="#000000"> &#160;&#160;_owner: address</text>
<polyline fill="none" stroke="#000000" points="720.2594,-911.7 1205.1334,-911.7 "/>
<text text-anchor="start" x="728.2594" y="-895.1" font-family="Times,serif" font-size="14.00" fill="#000000">Public:</text>
<text text-anchor="start" x="728.2594" y="-878.3" font-family="Times,serif" font-size="14.00" fill="#000000"> &#160;&#160;&#160;&lt;&lt;event&gt;&gt; OwnershipTransferred(previousOwner: address, newOwner: address)</text>
<text text-anchor="start" x="728.2594" y="-861.5" font-family="Times,serif" font-size="14.00" fill="#000000"> &#160;&#160;&#160;&lt;&lt;modifier&gt;&gt; onlyOwner()</text>
<text text-anchor="start" x="728.2594" y="-844.7" font-family="Times,serif" font-size="14.00" fill="#000000"> &#160;&#160;&#160;constructor()</text>
<text text-anchor="start" x="728.2594" y="-827.9" font-family="Times,serif" font-size="14.00" fill="#000000"> &#160;&#160;&#160;owner(): address</text>
<text text-anchor="start" x="728.2594" y="-811.1" font-family="Times,serif" font-size="14.00" fill="#000000"> &#160;&#160;&#160;renounceOwnership()</text>
<text text-anchor="start" x="728.2594" y="-794.3" font-family="Times,serif" font-size="14.00" fill="#000000"> &#160;&#160;&#160;transferOwnership(newOwner: address)</text>
</g>
<!-- 13&#45;&gt;0 -->
<g id="edge16" class="edge">
<title>13&#45;&gt;0</title>
<path fill="none" stroke="#000000" d="M860.3587,-995.1033C815.5168,-1039.9875 761.7894,-1092.5046 711.6964,-1138.2 671.2249,-1175.1185 625.2279,-1214.3585 585.2707,-1247.6278"/>
<polygon fill="none" stroke="#000000" points="578.3129,-1239.7567 561.9049,-1266.9785 591.7075,-1255.9304 578.3129,-1239.7567"/>
</g>
<!-- 14 -->
<g id="node15" class="node">
<title>14</title>
<polygon fill="#f2f2f2" stroke="#000000" points="771.1851,-397.5 771.1851,-488.7 1154.2077,-488.7 1154.2077,-397.5 771.1851,-397.5"/>
<text text-anchor="middle" x="962.6964" y="-472.1" font-family="Times,serif" font-size="14.00" fill="#000000">TokenRecover</text>
<polyline fill="none" stroke="#000000" points="771.1851,-463.9 1154.2077,-463.9 "/>
<text text-anchor="middle" x="962.6964" y="-447.3" font-family="Times,serif" font-size="14.00" fill="#000000"> </text>
<polyline fill="none" stroke="#000000" points="771.1851,-439.1 1154.2077,-439.1 "/>
<text text-anchor="start" x="779.1851" y="-422.5" font-family="Times,serif" font-size="14.00" fill="#000000">Public:</text>
<text text-anchor="start" x="779.1851" y="-405.7" font-family="Times,serif" font-size="14.00" fill="#000000"> &#160;&#160;&#160;recoverERC20(tokenAddress: address, tokenAmount: uint256)</text>
</g>
<!-- 14&#45;&gt;1 -->
<g id="edge18" class="edge">
<title>14&#45;&gt;1</title>
<path fill="none" stroke="#000000" stroke-dasharray="5,2" d="M1016.6077,-488.9804C1056.3898,-522.4024 1112.1632,-568.3612 1162.6964,-606.8 1184.7787,-623.5973 1200.5925,-618.3446 1213.6964,-642.8 1263.3328,-735.435 1253.6313,-1025.9799 1242.7676,-1198.0349"/>
<polygon fill="#000000" stroke="#000000" points="1239.2647,-1197.97 1242.1175,-1208.1735 1246.2503,-1198.418 1239.2647,-1197.97"/>
</g>
<!-- 14&#45;&gt;13 -->
<g id="edge17" class="edge">
<title>14&#45;&gt;13</title>
<path fill="none" stroke="#000000" d="M962.6964,-488.8771C962.6964,-551.1375 962.6964,-665.1441 962.6964,-755.8269"/>
<polygon fill="none" stroke="#000000" points="952.1965,-755.8842 962.6964,-785.8843 973.1965,-755.8843 952.1965,-755.8842"/>
</g>
<!-- 15 -->
<g id="node16" class="node">
<title>15</title>
<polygon fill="#f2f2f2" stroke="#000000" points="496.1641,-330.3 496.1641,-555.9 753.2287,-555.9 753.2287,-330.3 496.1641,-330.3"/>
<text text-anchor="middle" x="624.6964" y="-539.3" font-family="Times,serif" font-size="14.00" fill="#000000">&lt;&lt;Abstract&gt;&gt;</text>
<text text-anchor="middle" x="624.6964" y="-522.5" font-family="Times,serif" font-size="14.00" fill="#000000">ERC20Mintable</text>
<polyline fill="none" stroke="#000000" points="496.1641,-514.3 753.2287,-514.3 "/>
<text text-anchor="start" x="504.1641" y="-497.7" font-family="Times,serif" font-size="14.00" fill="#000000">Private:</text>
<text text-anchor="start" x="504.1641" y="-480.9" font-family="Times,serif" font-size="14.00" fill="#000000"> &#160;&#160;_mintingFinished: bool</text>
<polyline fill="none" stroke="#000000" points="496.1641,-472.7 753.2287,-472.7 "/>
<text text-anchor="start" x="504.1641" y="-456.1" font-family="Times,serif" font-size="14.00" fill="#000000">Internal:</text>
<text text-anchor="start" x="504.1641" y="-439.3" font-family="Times,serif" font-size="14.00" fill="#000000"> &#160;&#160;&#160;_finishMinting()</text>
<text text-anchor="start" x="504.1641" y="-422.5" font-family="Times,serif" font-size="14.00" fill="#000000">Public:</text>
<text text-anchor="start" x="504.1641" y="-405.7" font-family="Times,serif" font-size="14.00" fill="#000000"> &#160;&#160;&#160;&lt;&lt;event&gt;&gt; MintFinished()</text>
<text text-anchor="start" x="504.1641" y="-388.9" font-family="Times,serif" font-size="14.00" fill="#000000"> &#160;&#160;&#160;&lt;&lt;modifier&gt;&gt; canMint()</text>
<text text-anchor="start" x="504.1641" y="-372.1" font-family="Times,serif" font-size="14.00" fill="#000000"> &#160;&#160;&#160;mintingFinished(): bool</text>
<text text-anchor="start" x="504.1641" y="-355.3" font-family="Times,serif" font-size="14.00" fill="#000000"> &#160;&#160;&#160;mint(account: address, amount: uint256)</text>
<text text-anchor="start" x="504.1641" y="-338.5" font-family="Times,serif" font-size="14.00" fill="#000000"> &#160;&#160;&#160;finishMinting()</text>
</g>
<!-- 15&#45;&gt;3 -->
<g id="edge19" class="edge">
<title>15&#45;&gt;3</title>
<path fill="none" stroke="#000000" d="M589.3685,-555.9979C583.6425,-574.2964 577.5025,-593.9182 571.1719,-614.1491"/>
<polygon fill="none" stroke="#000000" points="561.0565,-611.3158 562.1181,-643.0825 581.0982,-617.5872 561.0565,-611.3158"/>
</g>
<!-- 16 -->
<g id="node17" class="node">
<title>16</title>
<polygon fill="#f2f2f2" stroke="#000000" points="1796.007,-67.7 1796.007,-175.7 1971.3858,-175.7 1971.3858,-67.7 1796.007,-67.7"/>
<text text-anchor="middle" x="1883.6964" y="-159.1" font-family="Times,serif" font-size="14.00" fill="#000000">&lt;&lt;Interface&gt;&gt;</text>
<text text-anchor="middle" x="1883.6964" y="-142.3" font-family="Times,serif" font-size="14.00" fill="#000000">IPayable</text>
<polyline fill="none" stroke="#000000" points="1796.007,-134.1 1971.3858,-134.1 "/>
<text text-anchor="middle" x="1883.6964" y="-117.5" font-family="Times,serif" font-size="14.00" fill="#000000"> </text>
<polyline fill="none" stroke="#000000" points="1796.007,-109.3 1971.3858,-109.3 "/>
<text text-anchor="start" x="1804.007" y="-92.7" font-family="Times,serif" font-size="14.00" fill="#000000">External:</text>
<text text-anchor="start" x="1804.007" y="-75.9" font-family="Times,serif" font-size="14.00" fill="#000000"> &#160;&#160;&#160;&#160;pay(serviceName: string)</text>
</g>
<!-- 17 -->
<g id="node18" class="node">
<title>17</title>
<polygon fill="#f2f2f2" stroke="#000000" points="1753.6563,-389.1 1753.6563,-497.1 2069.7365,-497.1 2069.7365,-389.1 1753.6563,-389.1"/>
<text text-anchor="middle" x="1911.6964" y="-480.5" font-family="Times,serif" font-size="14.00" fill="#000000">&lt;&lt;Abstract&gt;&gt;</text>
<text text-anchor="middle" x="1911.6964" y="-463.7" font-family="Times,serif" font-size="14.00" fill="#000000">ServicePayer</text>
<polyline fill="none" stroke="#000000" points="1753.6563,-455.5 2069.7365,-455.5 "/>
<text text-anchor="middle" x="1911.6964" y="-438.9" font-family="Times,serif" font-size="14.00" fill="#000000"> </text>
<polyline fill="none" stroke="#000000" points="1753.6563,-430.7 2069.7365,-430.7 "/>
<text text-anchor="start" x="1761.6563" y="-414.1" font-family="Times,serif" font-size="14.00" fill="#000000">Public:</text>
<text text-anchor="start" x="1761.6563" y="-397.3" font-family="Times,serif" font-size="14.00" fill="#000000"> &#160;&#160;&#160;constructor(receiver: address, serviceName: string)</text>
</g>
<!-- 18 -->
<g id="node19" class="node">
<title>18</title>
<polygon fill="#f2f2f2" stroke="#000000" points="657.4666,-50.9 657.4666,-192.5 1267.9262,-192.5 1267.9262,-50.9 657.4666,-50.9"/>
<text text-anchor="middle" x="962.6964" y="-175.9" font-family="Times,serif" font-size="14.00" fill="#000000">AmazingERC20</text>
<polyline fill="none" stroke="#000000" points="657.4666,-167.7 1267.9262,-167.7 "/>
<text text-anchor="middle" x="962.6964" y="-151.1" font-family="Times,serif" font-size="14.00" fill="#000000"> </text>
<polyline fill="none" stroke="#000000" points="657.4666,-142.9 1267.9262,-142.9 "/>
<text text-anchor="start" x="665.4666" y="-126.3" font-family="Times,serif" font-size="14.00" fill="#000000">Internal:</text>
<text text-anchor="start" x="665.4666" y="-109.5" font-family="Times,serif" font-size="14.00" fill="#000000"> &#160;&#160;&#160;_mint(account: address, amount: uint256)</text>
<text text-anchor="start" x="665.4666" y="-92.7" font-family="Times,serif" font-size="14.00" fill="#000000"> &#160;&#160;&#160;_finishMinting()</text>
<text text-anchor="start" x="665.4666" y="-75.9" font-family="Times,serif" font-size="14.00" fill="#000000">Public:</text>
<text text-anchor="start" x="665.4666" y="-59.1" font-family="Times,serif" font-size="14.00" fill="#000000"> &#160;&#160;&#160;constructor(name: string, symbol: string, decimals: uint8, initialBalance: uint256, feeReceiver: address)</text>
</g>
<!-- 18&#45;&gt;4 -->
<g id="edge21" class="edge">
<title>18&#45;&gt;4</title>
<path fill="none" stroke="#000000" d="M671.1329,-192.5749C607.558,-214.9202 542.6312,-243.4542 486.6964,-279.4 454.3251,-300.203 424.2139,-329.4705 399.4735,-357.5164"/>
<polygon fill="none" stroke="#000000" points="391.3402,-350.8736 380.0231,-380.575 407.3921,-364.4137 391.3402,-350.8736"/>
</g>
<!-- 18&#45;&gt;12 -->
<g id="edge22" class="edge">
<title>18&#45;&gt;12</title>
<path fill="none" stroke="#000000" d="M1071.0563,-192.6305C1103.6052,-213.9364 1140.8896,-238.3421 1179.1281,-263.3724"/>
<polygon fill="none" stroke="#000000" points="1173.5025,-272.2395 1204.3538,-279.8847 1185.0038,-254.669 1173.5025,-272.2395"/>
</g>
<!-- 18&#45;&gt;14 -->
<g id="edge23" class="edge">
<title>18&#45;&gt;14</title>
<path fill="none" stroke="#000000" d="M962.6964,-192.6305C962.6964,-244.2212 962.6964,-313.9864 962.6964,-366.7852"/>
<polygon fill="none" stroke="#000000" points="952.1965,-367.1533 962.6964,-397.1533 973.1965,-367.1533 952.1965,-367.1533"/>
</g>
<!-- 18&#45;&gt;15 -->
<g id="edge20" class="edge">
<title>18&#45;&gt;15</title>
<path fill="none" stroke="#000000" d="M863.9537,-192.6076C830.249,-218.4915 793.1526,-248.9216 761.6964,-279.4 752.4371,-288.3715 743.1644,-297.9277 734.0528,-307.7441"/>
<polygon fill="none" stroke="#000000" points="726.0737,-300.9138 713.8074,-330.236 741.682,-314.9631 726.0737,-300.9138"/>
</g>
<!-- 18&#45;&gt;17 -->
<g id="edge24" class="edge">
<title>18&#45;&gt;17</title>
<path fill="none" stroke="#000000" d="M1118.8004,-192.5628C1168.3366,-212.2161 1223.9584,-231.4259 1276.6964,-243.4 1378.4148,-266.4949 1649.7156,-236.2879 1744.6964,-279.4 1786.9394,-298.5743 1824.7432,-333.2454 1853.6547,-365.7592"/>
<polygon fill="none" stroke="#000000" points="1845.7103,-372.626 1873.0715,-388.8006 1861.7688,-359.0937 1845.7103,-372.626"/>
</g>
</g>
</svg>
