<?xml version="1.0" encoding="UTF-8" standalone="no"?>
<!DOCTYPE svg PUBLIC "-//W3C//DTD SVG 1.1//EN"
 "http://www.w3.org/Graphics/SVG/1.1/DTD/svg11.dtd">
<!-- Generated by graphviz version 2.40.1 (20161225.0304)
 -->
<!-- Title: UmlClassDiagram Pages: 1 -->
<svg width="1672pt" height="1190pt"
 viewBox="0.00 0.00 1672.00 1190.40" xmlns="http://www.w3.org/2000/svg" xmlns:xlink="http://www.w3.org/1999/xlink">
<g id="graph0" class="graph" transform="scale(1 1) rotate(0) translate(4 1186.4)">
<title>UmlClassDiagram</title>
<polygon fill="#ffffff" stroke="transparent" points="-4,4 -4,-1186.4 1667.9963,-1186.4 1667.9963,4 -4,4"/>
<!-- 0 -->
<g id="node1" class="node">
<title>0</title>
<polygon fill="#f2f2f2" stroke="#000000" points="989.6241,-998.3 989.6241,-1123.1 1207.7687,-1123.1 1207.7687,-998.3 989.6241,-998.3"/>
<text text-anchor="middle" x="1098.6964" y="-1106.5" font-family="Times,serif" font-size="14.00" fill="#000000">&lt;&lt;Abstract&gt;&gt;</text>
<text text-anchor="middle" x="1098.6964" y="-1089.7" font-family="Times,serif" font-size="14.00" fill="#000000">Context</text>
<polyline fill="none" stroke="#000000" points="989.6241,-1081.5 1207.7687,-1081.5 "/>
<text text-anchor="middle" x="1098.6964" y="-1064.9" font-family="Times,serif" font-size="14.00" fill="#000000"> </text>
<polyline fill="none" stroke="#000000" points="989.6241,-1056.7 1207.7687,-1056.7 "/>
<text text-anchor="start" x="997.6241" y="-1040.1" font-family="Times,serif" font-size="14.00" fill="#000000">Internal:</text>
<text text-anchor="start" x="997.6241" y="-1023.3" font-family="Times,serif" font-size="14.00" fill="#000000"> &#160;&#160;&#160;_msgSender(): (payable: address)</text>
<text text-anchor="start" x="997.6241" y="-1006.5" font-family="Times,serif" font-size="14.00" fill="#000000"> &#160;&#160;&#160;_msgData(): bytes</text>
</g>
<!-- 1 -->
<g id="node2" class="node">
<title>1</title>
<polygon fill="#f2f2f2" stroke="#000000" points="1225.3965,-939.5 1225.3965,-1181.9 1663.9963,-1181.9 1663.9963,-939.5 1225.3965,-939.5"/>
<text text-anchor="middle" x="1444.6964" y="-1165.3" font-family="Times,serif" font-size="14.00" fill="#000000">&lt;&lt;Interface&gt;&gt;</text>
<text text-anchor="middle" x="1444.6964" y="-1148.5" font-family="Times,serif" font-size="14.00" fill="#000000">IERC20</text>
<polyline fill="none" stroke="#000000" points="1225.3965,-1140.3 1663.9963,-1140.3 "/>
<text text-anchor="middle" x="1444.6964" y="-1123.7" font-family="Times,serif" font-size="14.00" fill="#000000"> </text>
<polyline fill="none" stroke="#000000" points="1225.3965,-1115.5 1663.9963,-1115.5 "/>
<text text-anchor="start" x="1233.3965" y="-1098.9" font-family="Times,serif" font-size="14.00" fill="#000000">External:</text>
<text text-anchor="start" x="1233.3965" y="-1082.1" font-family="Times,serif" font-size="14.00" fill="#000000"> &#160;&#160;&#160;&#160;totalSupply(): uint256</text>
<text text-anchor="start" x="1233.3965" y="-1065.3" font-family="Times,serif" font-size="14.00" fill="#000000"> &#160;&#160;&#160;&#160;balanceOf(account: address): uint256</text>
<text text-anchor="start" x="1233.3965" y="-1048.5" font-family="Times,serif" font-size="14.00" fill="#000000"> &#160;&#160;&#160;&#160;transfer(recipient: address, amount: uint256): bool</text>
<text text-anchor="start" x="1233.3965" y="-1031.7" font-family="Times,serif" font-size="14.00" fill="#000000"> &#160;&#160;&#160;&#160;allowance(owner: address, spender: address): uint256</text>
<text text-anchor="start" x="1233.3965" y="-1014.9" font-family="Times,serif" font-size="14.00" fill="#000000"> &#160;&#160;&#160;&#160;approve(spender: address, amount: uint256): bool</text>
<text text-anchor="start" x="1233.3965" y="-998.1" font-family="Times,serif" font-size="14.00" fill="#000000"> &#160;&#160;&#160;&#160;transferFrom(sender: address, recipient: address, amount: uint256): bool</text>
<text text-anchor="start" x="1233.3965" y="-981.3" font-family="Times,serif" font-size="14.00" fill="#000000">Public:</text>
<text text-anchor="start" x="1233.3965" y="-964.5" font-family="Times,serif" font-size="14.00" fill="#000000"> &#160;&#160;&#160;&lt;&lt;event&gt;&gt; Transfer(from: address, to: address, value: uint256)</text>
<text text-anchor="start" x="1233.3965" y="-947.7" font-family="Times,serif" font-size="14.00" fill="#000000"> &#160;&#160;&#160;&lt;&lt;event&gt;&gt; Approval(owner: address, spender: address, value: uint256)</text>
</g>
<!-- 2 -->
<g id="node3" class="node">
<title>2</title>
<polygon fill="#f2f2f2" stroke="#000000" points="0,-947.9 0,-1173.5 357.3928,-1173.5 357.3928,-947.9 0,-947.9"/>
<text text-anchor="middle" x="178.6964" y="-1156.9" font-family="Times,serif" font-size="14.00" fill="#000000">&lt;&lt;Library&gt;&gt;</text>
<text text-anchor="middle" x="178.6964" y="-1140.1" font-family="Times,serif" font-size="14.00" fill="#000000">SafeMath</text>
<polyline fill="none" stroke="#000000" points="0,-1131.9 357.3928,-1131.9 "/>
<text text-anchor="middle" x="178.6964" y="-1115.3" font-family="Times,serif" font-size="14.00" fill="#000000"> </text>
<polyline fill="none" stroke="#000000" points="0,-1107.1 357.3928,-1107.1 "/>
<text text-anchor="start" x="8" y="-1090.5" font-family="Times,serif" font-size="14.00" fill="#000000">Internal:</text>
<text text-anchor="start" x="8" y="-1073.7" font-family="Times,serif" font-size="14.00" fill="#000000"> &#160;&#160;&#160;add(a: uint256, b: uint256): uint256</text>
<text text-anchor="start" x="8" y="-1056.9" font-family="Times,serif" font-size="14.00" fill="#000000"> &#160;&#160;&#160;sub(a: uint256, b: uint256): uint256</text>
<text text-anchor="start" x="8" y="-1040.1" font-family="Times,serif" font-size="14.00" fill="#000000"> &#160;&#160;&#160;sub(a: uint256, b: uint256, errorMessage: string): uint256</text>
<text text-anchor="start" x="8" y="-1023.3" font-family="Times,serif" font-size="14.00" fill="#000000"> &#160;&#160;&#160;mul(a: uint256, b: uint256): uint256</text>
<text text-anchor="start" x="8" y="-1006.5" font-family="Times,serif" font-size="14.00" fill="#000000"> &#160;&#160;&#160;div(a: uint256, b: uint256): uint256</text>
<text text-anchor="start" x="8" y="-989.7" font-family="Times,serif" font-size="14.00" fill="#000000"> &#160;&#160;&#160;div(a: uint256, b: uint256, errorMessage: string): uint256</text>
<text text-anchor="start" x="8" y="-972.9" font-family="Times,serif" font-size="14.00" fill="#000000"> &#160;&#160;&#160;mod(a: uint256, b: uint256): uint256</text>
<text text-anchor="start" x="8" y="-956.1" font-family="Times,serif" font-size="14.00" fill="#000000"> &#160;&#160;&#160;mod(a: uint256, b: uint256, errorMessage: string): uint256</text>
</g>
<!-- 3 -->
<g id="node4" class="node">
<title>3</title>
<polygon fill="#f2f2f2" stroke="#000000" points="375.4792,-947.9 375.4792,-1173.5 971.9136,-1173.5 971.9136,-947.9 375.4792,-947.9"/>
<text text-anchor="middle" x="673.6964" y="-1156.9" font-family="Times,serif" font-size="14.00" fill="#000000">&lt;&lt;Library&gt;&gt;</text>
<text text-anchor="middle" x="673.6964" y="-1140.1" font-family="Times,serif" font-size="14.00" fill="#000000">Address</text>
<polyline fill="none" stroke="#000000" points="375.4792,-1131.9 971.9136,-1131.9 "/>
<text text-anchor="middle" x="673.6964" y="-1115.3" font-family="Times,serif" font-size="14.00" fill="#000000"> </text>
<polyline fill="none" stroke="#000000" points="375.4792,-1107.1 971.9136,-1107.1 "/>
<text text-anchor="start" x="383.4792" y="-1090.5" font-family="Times,serif" font-size="14.00" fill="#000000">Private:</text>
<text text-anchor="start" x="383.4792" y="-1073.7" font-family="Times,serif" font-size="14.00" fill="#000000"> &#160;&#160;&#160;_functionCallWithValue(target: address, data: bytes, weiValue: uint256, errorMessage: string): bytes</text>
<text text-anchor="start" x="383.4792" y="-1056.9" font-family="Times,serif" font-size="14.00" fill="#000000">Internal:</text>
<text text-anchor="start" x="383.4792" y="-1040.1" font-family="Times,serif" font-size="14.00" fill="#000000"> &#160;&#160;&#160;isContract(account: address): bool</text>
<text text-anchor="start" x="383.4792" y="-1023.3" font-family="Times,serif" font-size="14.00" fill="#000000"> &#160;&#160;&#160;sendValue(recipient: address, amount: uint256)</text>
<text text-anchor="start" x="383.4792" y="-1006.5" font-family="Times,serif" font-size="14.00" fill="#000000"> &#160;&#160;&#160;functionCall(target: address, data: bytes): bytes</text>
<text text-anchor="start" x="383.4792" y="-989.7" font-family="Times,serif" font-size="14.00" fill="#000000"> &#160;&#160;&#160;functionCall(target: address, data: bytes, errorMessage: string): bytes</text>
<text text-anchor="start" x="383.4792" y="-972.9" font-family="Times,serif" font-size="14.00" fill="#000000"> &#160;&#160;&#160;functionCallWithValue(target: address, data: bytes, value: uint256): bytes</text>
<text text-anchor="start" x="383.4792" y="-956.1" font-family="Times,serif" font-size="14.00" fill="#000000"> &#160;&#160;&#160;functionCallWithValue(target: address, data: bytes, value: uint256, errorMessage: string): bytes</text>
</g>
<!-- 4 -->
<g id="node5" class="node">
<title>4</title>
<polygon fill="#f2f2f2" stroke="#000000" points="635.1465,-408.1 635.1465,-902.5 1070.2463,-902.5 1070.2463,-408.1 635.1465,-408.1"/>
<text text-anchor="middle" x="852.6964" y="-885.9" font-family="Times,serif" font-size="14.00" fill="#000000">ERC20</text>
<polyline fill="none" stroke="#000000" points="635.1465,-877.7 1070.2463,-877.7 "/>
<text text-anchor="start" x="643.1465" y="-861.1" font-family="Times,serif" font-size="14.00" fill="#000000">Private:</text>
<text text-anchor="start" x="643.1465" y="-844.3" font-family="Times,serif" font-size="14.00" fill="#000000"> &#160;&#160;_balances: mapping(address=&gt;uint256)</text>
<text text-anchor="start" x="643.1465" y="-827.5" font-family="Times,serif" font-size="14.00" fill="#000000"> &#160;&#160;_allowances: mapping(address=&gt;mapping(address=&gt;uint256))</text>
<text text-anchor="start" x="643.1465" y="-810.7" font-family="Times,serif" font-size="14.00" fill="#000000"> &#160;&#160;_totalSupply: uint256</text>
<text text-anchor="start" x="643.1465" y="-793.9" font-family="Times,serif" font-size="14.00" fill="#000000"> &#160;&#160;_name: string</text>
<text text-anchor="start" x="643.1465" y="-777.1" font-family="Times,serif" font-size="14.00" fill="#000000"> &#160;&#160;_symbol: string</text>
<text text-anchor="start" x="643.1465" y="-760.3" font-family="Times,serif" font-size="14.00" fill="#000000"> &#160;&#160;_decimals: uint8</text>
<polyline fill="none" stroke="#000000" points="635.1465,-752.1 1070.2463,-752.1 "/>
<text text-anchor="start" x="643.1465" y="-735.5" font-family="Times,serif" font-size="14.00" fill="#000000">Internal:</text>
<text text-anchor="start" x="643.1465" y="-718.7" font-family="Times,serif" font-size="14.00" fill="#000000"> &#160;&#160;&#160;_transfer(sender: address, recipient: address, amount: uint256)</text>
<text text-anchor="start" x="643.1465" y="-701.9" font-family="Times,serif" font-size="14.00" fill="#000000"> &#160;&#160;&#160;_mint(account: address, amount: uint256)</text>
<text text-anchor="start" x="643.1465" y="-685.1" font-family="Times,serif" font-size="14.00" fill="#000000"> &#160;&#160;&#160;_burn(account: address, amount: uint256)</text>
<text text-anchor="start" x="643.1465" y="-668.3" font-family="Times,serif" font-size="14.00" fill="#000000"> &#160;&#160;&#160;_approve(owner: address, spender: address, amount: uint256)</text>
<text text-anchor="start" x="643.1465" y="-651.5" font-family="Times,serif" font-size="14.00" fill="#000000"> &#160;&#160;&#160;_setupDecimals(decimals_: uint8)</text>
<text text-anchor="start" x="643.1465" y="-634.7" font-family="Times,serif" font-size="14.00" fill="#000000"> &#160;&#160;&#160;_beforeTokenTransfer(from: address, to: address, amount: uint256)</text>
<text text-anchor="start" x="643.1465" y="-617.9" font-family="Times,serif" font-size="14.00" fill="#000000">Public:</text>
<text text-anchor="start" x="643.1465" y="-601.1" font-family="Times,serif" font-size="14.00" fill="#000000"> &#160;&#160;&#160;constructor(name_: string, symbol_: string)</text>
<text text-anchor="start" x="643.1465" y="-584.3" font-family="Times,serif" font-size="14.00" fill="#000000"> &#160;&#160;&#160;name(): string</text>
<text text-anchor="start" x="643.1465" y="-567.5" font-family="Times,serif" font-size="14.00" fill="#000000"> &#160;&#160;&#160;symbol(): string</text>
<text text-anchor="start" x="643.1465" y="-550.7" font-family="Times,serif" font-size="14.00" fill="#000000"> &#160;&#160;&#160;decimals(): uint8</text>
<text text-anchor="start" x="643.1465" y="-533.9" font-family="Times,serif" font-size="14.00" fill="#000000"> &#160;&#160;&#160;totalSupply(): uint256</text>
<text text-anchor="start" x="643.1465" y="-517.1" font-family="Times,serif" font-size="14.00" fill="#000000"> &#160;&#160;&#160;balanceOf(account: address): uint256</text>
<text text-anchor="start" x="643.1465" y="-500.3" font-family="Times,serif" font-size="14.00" fill="#000000"> &#160;&#160;&#160;transfer(recipient: address, amount: uint256): bool</text>
<text text-anchor="start" x="643.1465" y="-483.5" font-family="Times,serif" font-size="14.00" fill="#000000"> &#160;&#160;&#160;allowance(owner: address, spender: address): uint256</text>
<text text-anchor="start" x="643.1465" y="-466.7" font-family="Times,serif" font-size="14.00" fill="#000000"> &#160;&#160;&#160;approve(spender: address, amount: uint256): bool</text>
<text text-anchor="start" x="643.1465" y="-449.9" font-family="Times,serif" font-size="14.00" fill="#000000"> &#160;&#160;&#160;transferFrom(sender: address, recipient: address, amount: uint256): bool</text>
<text text-anchor="start" x="643.1465" y="-433.1" font-family="Times,serif" font-size="14.00" fill="#000000"> &#160;&#160;&#160;increaseAllowance(spender: address, addedValue: uint256): bool</text>
<text text-anchor="start" x="643.1465" y="-416.3" font-family="Times,serif" font-size="14.00" fill="#000000"> &#160;&#160;&#160;decreaseAllowance(spender: address, subtractedValue: uint256): bool</text>
</g>
<!-- 4&#45;&gt;0 -->
<g id="edge1" class="edge">
<title>4&#45;&gt;0</title>
<path fill="none" stroke="#000000" d="M1002.7057,-902.5105C1017.6956,-927.2134 1032.1225,-950.9884 1045.0352,-972.2681"/>
<polygon fill="none" stroke="#000000" points="1036.2431,-978.0192 1060.7828,-998.2196 1054.1963,-967.1251 1036.2431,-978.0192"/>
</g>
<!-- 4&#45;&gt;1 -->
<g id="edge2" class="edge">
<title>4&#45;&gt;1</title>
<path fill="none" stroke="#000000" stroke-dasharray="5,2" d="M1070.3698,-870.787C1085.8891,-882.3393 1101.7263,-893.2038 1117.6964,-903 1149.1869,-922.3165 1165.9985,-921.6895 1196.9427,-931.8504"/>
<polygon fill="none" stroke="#000000" points="1193.5741,-941.8064 1225.3397,-942.8991 1201.1887,-922.2356 1193.5741,-941.8064"/>
</g>
<!-- 4&#45;&gt;2 -->
<g id="edge3" class="edge">
<title>4&#45;&gt;2</title>
<path fill="none" stroke="#000000" stroke-dasharray="5,2" d="M634.8964,-779.5756C550.6057,-828.4175 453.658,-885.5107 366.6964,-939 364.7792,-940.1792 362.8526,-941.3674 360.918,-942.5634"/>
<polygon fill="#000000" stroke="#000000" points="359.0408,-939.6091 352.3883,-947.8551 362.731,-945.5574 359.0408,-939.6091"/>
</g>
<!-- 4&#45;&gt;3 -->
<g id="edge4" class="edge">
<title>4&#45;&gt;3</title>
<path fill="none" stroke="#000000" stroke-dasharray="5,2" d="M743.5433,-902.5105C738.1366,-914.7555 732.8306,-926.7726 727.7096,-938.3708"/>
<polygon fill="#000000" stroke="#000000" points="724.4813,-937.0171 723.6438,-947.5788 730.8849,-939.8446 724.4813,-937.0171"/>
</g>
<!-- 5 -->
<g id="node6" class="node">
<title>5</title>
<polygon fill="#f2f2f2" stroke="#000000" points="709.0028,-246.3 709.0028,-371.1 996.39,-371.1 996.39,-246.3 709.0028,-246.3"/>
<text text-anchor="middle" x="852.6964" y="-354.5" font-family="Times,serif" font-size="14.00" fill="#000000">&lt;&lt;Abstract&gt;&gt;</text>
<text text-anchor="middle" x="852.6964" y="-337.7" font-family="Times,serif" font-size="14.00" fill="#000000">ERC20Burnable</text>
<polyline fill="none" stroke="#000000" points="709.0028,-329.5 996.39,-329.5 "/>
<text text-anchor="middle" x="852.6964" y="-312.9" font-family="Times,serif" font-size="14.00" fill="#000000"> </text>
<polyline fill="none" stroke="#000000" points="709.0028,-304.7 996.39,-304.7 "/>
<text text-anchor="start" x="717.0028" y="-288.1" font-family="Times,serif" font-size="14.00" fill="#000000">Public:</text>
<text text-anchor="start" x="717.0028" y="-271.3" font-family="Times,serif" font-size="14.00" fill="#000000"> &#160;&#160;&#160;burn(amount: uint256)</text>
<text text-anchor="start" x="717.0028" y="-254.5" font-family="Times,serif" font-size="14.00" fill="#000000"> &#160;&#160;&#160;burnFrom(account: address, amount: uint256)</text>
</g>
<!-- 5&#45;&gt;0 -->
<g id="edge5" class="edge">
<title>5&#45;&gt;0</title>
<path fill="none" stroke="#000000" d="M996.4999,-342.789C1029.011,-357.3794 1059.7726,-378.1308 1079.6964,-407.6 1110.2456,-452.7852 1105.6158,-798.7279 1101.4237,-967.998"/>
<polygon fill="none" stroke="#000000" points="1090.923,-967.8923 1100.6348,-998.1566 1111.9158,-968.4415 1090.923,-967.8923"/>
</g>
<!-- 5&#45;&gt;2 -->
<g id="edge7" class="edge">
<title>5&#45;&gt;2</title>
<path fill="none" stroke="#000000" stroke-dasharray="5,2" d="M708.9929,-367.6807C668.8033,-384.9059 633.7935,-400.9071 625.6964,-407.6 446.1595,-556.0021 308.3836,-794.2609 235.7918,-938.2877"/>
<polygon fill="#000000" stroke="#000000" points="232.4579,-937.1282 231.1048,-947.6362 238.7155,-940.2655 232.4579,-937.1282"/>
</g>
<!-- 5&#45;&gt;4 -->
<g id="edge6" class="edge">
<title>5&#45;&gt;4</title>
<path fill="none" stroke="#000000" d="M852.6964,-371.4666C852.6964,-373.5698 852.6964,-375.7103 852.6964,-377.8856"/>
<polygon fill="none" stroke="#000000" points="842.1965,-377.9192 852.6964,-407.9192 863.1965,-377.9193 842.1965,-377.9192"/>
</g>
<!-- 6 -->
<g id="node7" class="node">
<title>6</title>
<polygon fill="#f2f2f2" stroke="#000000" points="1126.2594,-550.9 1126.2594,-759.7 1611.1334,-759.7 1611.1334,-550.9 1126.2594,-550.9"/>
<text text-anchor="middle" x="1368.6964" y="-743.1" font-family="Times,serif" font-size="14.00" fill="#000000">&lt;&lt;Abstract&gt;&gt;</text>
<text text-anchor="middle" x="1368.6964" y="-726.3" font-family="Times,serif" font-size="14.00" fill="#000000">Ownable</text>
<polyline fill="none" stroke="#000000" points="1126.2594,-718.1 1611.1334,-718.1 "/>
<text text-anchor="start" x="1134.2594" y="-701.5" font-family="Times,serif" font-size="14.00" fill="#000000">Private:</text>
<text text-anchor="start" x="1134.2594" y="-684.7" font-family="Times,serif" font-size="14.00" fill="#000000"> &#160;&#160;_owner: address</text>
<polyline fill="none" stroke="#000000" points="1126.2594,-676.5 1611.1334,-676.5 "/>
<text text-anchor="start" x="1134.2594" y="-659.9" font-family="Times,serif" font-size="14.00" fill="#000000">Public:</text>
<text text-anchor="start" x="1134.2594" y="-643.1" font-family="Times,serif" font-size="14.00" fill="#000000"> &#160;&#160;&#160;&lt;&lt;event&gt;&gt; OwnershipTransferred(previousOwner: address, newOwner: address)</text>
<text text-anchor="start" x="1134.2594" y="-626.3" font-family="Times,serif" font-size="14.00" fill="#000000"> &#160;&#160;&#160;&lt;&lt;modifier&gt;&gt; onlyOwner()</text>
<text text-anchor="start" x="1134.2594" y="-609.5" font-family="Times,serif" font-size="14.00" fill="#000000"> &#160;&#160;&#160;constructor()</text>
<text text-anchor="start" x="1134.2594" y="-592.7" font-family="Times,serif" font-size="14.00" fill="#000000"> &#160;&#160;&#160;owner(): address</text>
<text text-anchor="start" x="1134.2594" y="-575.9" font-family="Times,serif" font-size="14.00" fill="#000000"> &#160;&#160;&#160;renounceOwnership()</text>
<text text-anchor="start" x="1134.2594" y="-559.1" font-family="Times,serif" font-size="14.00" fill="#000000"> &#160;&#160;&#160;transferOwnership(newOwner: address)</text>
</g>
<!-- 6&#45;&gt;0 -->
<g id="edge8" class="edge">
<title>6&#45;&gt;0</title>
<path fill="none" stroke="#000000" d="M1299.1647,-759.7006C1255.2101,-825.6976 1199.0383,-910.0385 1157.3436,-972.6423"/>
<polygon fill="none" stroke="#000000" points="1148.3292,-967.2353 1140.4387,-998.0248 1165.8075,-978.876 1148.3292,-967.2353"/>
</g>
<!-- 7 -->
<g id="node8" class="node">
<title>7</title>
<polygon fill="#f2f2f2" stroke="#000000" points="1177.1851,-263.1 1177.1851,-354.3 1560.2077,-354.3 1560.2077,-263.1 1177.1851,-263.1"/>
<text text-anchor="middle" x="1368.6964" y="-337.7" font-family="Times,serif" font-size="14.00" fill="#000000">TokenRecover</text>
<polyline fill="none" stroke="#000000" points="1177.1851,-329.5 1560.2077,-329.5 "/>
<text text-anchor="middle" x="1368.6964" y="-312.9" font-family="Times,serif" font-size="14.00" fill="#000000"> </text>
<polyline fill="none" stroke="#000000" points="1177.1851,-304.7 1560.2077,-304.7 "/>
<text text-anchor="start" x="1185.1851" y="-288.1" font-family="Times,serif" font-size="14.00" fill="#000000">Public:</text>
<text text-anchor="start" x="1185.1851" y="-271.3" font-family="Times,serif" font-size="14.00" fill="#000000"> &#160;&#160;&#160;recoverERC20(tokenAddress: address, tokenAmount: uint256)</text>
</g>
<!-- 7&#45;&gt;1 -->
<g id="edge10" class="edge">
<title>7&#45;&gt;1</title>
<path fill="none" stroke="#000000" stroke-dasharray="5,2" d="M1525.1148,-354.405C1568.3841,-370.3657 1607.0115,-388.9677 1619.6964,-407.6 1681.6505,-498.6014 1664.4531,-802.4197 1619.6964,-903 1615.4123,-912.6275 1610.2179,-921.9145 1604.3398,-930.832"/>
<polygon fill="#000000" stroke="#000000" points="1601.3146,-929.0529 1598.5019,-939.2676 1607.0706,-933.0364 1601.3146,-929.0529"/>
</g>
<!-- 7&#45;&gt;6 -->
<g id="edge9" class="edge">
<title>7&#45;&gt;6</title>
<path fill="none" stroke="#000000" d="M1368.6964,-354.3683C1368.6964,-396.7113 1368.6964,-461.8652 1368.6964,-520.7344"/>
<polygon fill="none" stroke="#000000" points="1358.1965,-520.7921 1368.6964,-550.7922 1379.1965,-520.7922 1358.1965,-520.7921"/>
</g>
<!-- 8 -->
<g id="node9" class="node">
<title>8</title>
<polygon fill="#f2f2f2" stroke="#000000" points="1167.4593,-.5 1167.4593,-209.3 1569.9335,-209.3 1569.9335,-.5 1167.4593,-.5"/>
<text text-anchor="middle" x="1368.6964" y="-192.7" font-family="Times,serif" font-size="14.00" fill="#000000">ServiceReceiver</text>
<polyline fill="none" stroke="#000000" points="1167.4593,-184.5 1569.9335,-184.5 "/>
<text text-anchor="start" x="1175.4593" y="-167.9" font-family="Times,serif" font-size="14.00" fill="#000000">Private:</text>
<text text-anchor="start" x="1175.4593" y="-151.1" font-family="Times,serif" font-size="14.00" fill="#000000"> &#160;&#160;_prices: mapping(bytes32=&gt;uint256)</text>
<polyline fill="none" stroke="#000000" points="1167.4593,-142.9 1569.9335,-142.9 "/>
<text text-anchor="start" x="1175.4593" y="-126.3" font-family="Times,serif" font-size="14.00" fill="#000000">Private:</text>
<text text-anchor="start" x="1175.4593" y="-109.5" font-family="Times,serif" font-size="14.00" fill="#000000"> &#160;&#160;&#160;_toBytes32(serviceName: string): bytes32</text>
<text text-anchor="start" x="1175.4593" y="-92.7" font-family="Times,serif" font-size="14.00" fill="#000000">Public:</text>
<text text-anchor="start" x="1175.4593" y="-75.9" font-family="Times,serif" font-size="14.00" fill="#000000"> &#160;&#160;&#160;&lt;&lt;payable&gt;&gt; pay(serviceName: string)</text>
<text text-anchor="start" x="1175.4593" y="-59.1" font-family="Times,serif" font-size="14.00" fill="#000000"> &#160;&#160;&#160;&lt;&lt;event&gt;&gt; Created(serviceName: string, serviceAddress: address)</text>
<text text-anchor="start" x="1175.4593" y="-42.3" font-family="Times,serif" font-size="14.00" fill="#000000"> &#160;&#160;&#160;getPrice(serviceName: string): uint256</text>
<text text-anchor="start" x="1175.4593" y="-25.5" font-family="Times,serif" font-size="14.00" fill="#000000"> &#160;&#160;&#160;setPrice(serviceName: string, amount: uint256)</text>
<text text-anchor="start" x="1175.4593" y="-8.7" font-family="Times,serif" font-size="14.00" fill="#000000"> &#160;&#160;&#160;withdraw(amount: uint256)</text>
</g>
<!-- 8&#45;&gt;7 -->
<g id="edge11" class="edge">
<title>8&#45;&gt;7</title>
<path fill="none" stroke="#000000" d="M1368.6964,-209.4865C1368.6964,-217.2563 1368.6964,-225.0051 1368.6964,-232.5523"/>
<polygon fill="none" stroke="#000000" points="1358.1965,-232.868 1368.6964,-262.8681 1379.1965,-232.8681 1358.1965,-232.868"/>
</g>
<!-- 9 -->
<g id="node10" class="node">
<title>9</title>
<polygon fill="#f2f2f2" stroke="#000000" points="374.6563,-254.7 374.6563,-362.7 690.7365,-362.7 690.7365,-254.7 374.6563,-254.7"/>
<text text-anchor="middle" x="532.6964" y="-346.1" font-family="Times,serif" font-size="14.00" fill="#000000">&lt;&lt;Abstract&gt;&gt;</text>
<text text-anchor="middle" x="532.6964" y="-329.3" font-family="Times,serif" font-size="14.00" fill="#000000">ServicePayer</text>
<polyline fill="none" stroke="#000000" points="374.6563,-321.1 690.7365,-321.1 "/>
<text text-anchor="middle" x="532.6964" y="-304.5" font-family="Times,serif" font-size="14.00" fill="#000000"> </text>
<polyline fill="none" stroke="#000000" points="374.6563,-296.3 690.7365,-296.3 "/>
<text text-anchor="start" x="382.6563" y="-279.7" font-family="Times,serif" font-size="14.00" fill="#000000">Public:</text>
<text text-anchor="start" x="382.6563" y="-262.9" font-family="Times,serif" font-size="14.00" fill="#000000"> &#160;&#160;&#160;constructor(receiver: address, serviceName: string)</text>
</g>
<!-- 10 -->
<g id="node11" class="node">
<title>10</title>
<polygon fill="#f2f2f2" stroke="#000000" points="383.4666,-59.3 383.4666,-150.5 993.9262,-150.5 993.9262,-59.3 383.4666,-59.3"/>
<text text-anchor="middle" x="688.6964" y="-133.9" font-family="Times,serif" font-size="14.00" fill="#000000">BurnableERC20</text>
<polyline fill="none" stroke="#000000" points="383.4666,-125.7 993.9262,-125.7 "/>
<text text-anchor="middle" x="688.6964" y="-109.1" font-family="Times,serif" font-size="14.00" fill="#000000"> </text>
<polyline fill="none" stroke="#000000" points="383.4666,-100.9 993.9262,-100.9 "/>
<text text-anchor="start" x="391.4666" y="-84.3" font-family="Times,serif" font-size="14.00" fill="#000000">Public:</text>
<text text-anchor="start" x="391.4666" y="-67.5" font-family="Times,serif" font-size="14.00" fill="#000000"> &#160;&#160;&#160;constructor(name: string, symbol: string, decimals: uint8, initialBalance: uint256, feeReceiver: address)</text>
</g>
<!-- 10&#45;&gt;5 -->
<g id="edge12" class="edge">
<title>10&#45;&gt;5</title>
<path fill="none" stroke="#000000" d="M725.5012,-150.6367C742.5887,-171.8711 763.484,-197.8373 783.3618,-222.5391"/>
<polygon fill="none" stroke="#000000" points="775.3463,-229.3267 802.3345,-246.1162 791.7069,-216.1611 775.3463,-229.3267"/>
</g>
<!-- 10&#45;&gt;9 -->
<g id="edge13" class="edge">
<title>10&#45;&gt;9</title>
<path fill="none" stroke="#000000" d="M653.687,-150.6367C635.6672,-174.1779 613.1957,-203.5349 592.5267,-230.5371"/>
<polygon fill="none" stroke="#000000" points="584.1281,-224.2344 574.231,-254.4387 600.8036,-236.9988 584.1281,-224.2344"/>
</g>
</g>
</svg>
