<?xml version="1.0" encoding="UTF-8" standalone="no"?>
<!DOCTYPE svg PUBLIC "-//W3C//DTD SVG 1.1//EN"
 "http://www.w3.org/Graphics/SVG/1.1/DTD/svg11.dtd">
<!-- Generated by graphviz version 2.40.1 (20161225.0304)
 -->
<!-- Title: UmlClassDiagram Pages: 1 -->
<svg width="1636pt" height="1241pt"
 viewBox="0.00 0.00 1636.48 1240.80" xmlns="http://www.w3.org/2000/svg" xmlns:xlink="http://www.w3.org/1999/xlink">
<g id="graph0" class="graph" transform="scale(1 1) rotate(0) translate(4 1236.8)">
<title>UmlClassDiagram</title>
<polygon fill="#ffffff" stroke="transparent" points="-4,4 -4,-1236.8 1632.4771,-1236.8 1632.4771,4 -4,4"/>
<!-- 0 -->
<g id="node1" class="node">
<title>0</title>
<polygon fill="#f2f2f2" stroke="#000000" points="303.3647,-1048.7 303.3647,-1173.5 521.5093,-1173.5 521.5093,-1048.7 303.3647,-1048.7"/>
<text text-anchor="middle" x="412.437" y="-1156.9" font-family="Times,serif" font-size="14.00" fill="#000000">&lt;&lt;Abstract&gt;&gt;</text>
<text text-anchor="middle" x="412.437" y="-1140.1" font-family="Times,serif" font-size="14.00" fill="#000000">Context</text>
<polyline fill="none" stroke="#000000" points="303.3647,-1131.9 521.5093,-1131.9 "/>
<text text-anchor="middle" x="412.437" y="-1115.3" font-family="Times,serif" font-size="14.00" fill="#000000"> </text>
<polyline fill="none" stroke="#000000" points="303.3647,-1107.1 521.5093,-1107.1 "/>
<text text-anchor="start" x="311.3647" y="-1090.5" font-family="Times,serif" font-size="14.00" fill="#000000">Internal:</text>
<text text-anchor="start" x="311.3647" y="-1073.7" font-family="Times,serif" font-size="14.00" fill="#000000"> &#160;&#160;&#160;_msgSender(): (payable: address)</text>
<text text-anchor="start" x="311.3647" y="-1056.9" font-family="Times,serif" font-size="14.00" fill="#000000"> &#160;&#160;&#160;_msgData(): bytes</text>
</g>
<!-- 1 -->
<g id="node2" class="node">
<title>1</title>
<polygon fill="#f2f2f2" stroke="#000000" points="0,-601.3 0,-810.1 484.874,-810.1 484.874,-601.3 0,-601.3"/>
<text text-anchor="middle" x="242.437" y="-793.5" font-family="Times,serif" font-size="14.00" fill="#000000">&lt;&lt;Abstract&gt;&gt;</text>
<text text-anchor="middle" x="242.437" y="-776.7" font-family="Times,serif" font-size="14.00" fill="#000000">Ownable</text>
<polyline fill="none" stroke="#000000" points="0,-768.5 484.874,-768.5 "/>
<text text-anchor="start" x="8" y="-751.9" font-family="Times,serif" font-size="14.00" fill="#000000">Private:</text>
<text text-anchor="start" x="8" y="-735.1" font-family="Times,serif" font-size="14.00" fill="#000000"> &#160;&#160;_owner: address</text>
<polyline fill="none" stroke="#000000" points="0,-726.9 484.874,-726.9 "/>
<text text-anchor="start" x="8" y="-710.3" font-family="Times,serif" font-size="14.00" fill="#000000">Public:</text>
<text text-anchor="start" x="8" y="-693.5" font-family="Times,serif" font-size="14.00" fill="#000000"> &#160;&#160;&#160;&lt;&lt;event&gt;&gt; OwnershipTransferred(previousOwner: address, newOwner: address)</text>
<text text-anchor="start" x="8" y="-676.7" font-family="Times,serif" font-size="14.00" fill="#000000"> &#160;&#160;&#160;&lt;&lt;modifier&gt;&gt; onlyOwner()</text>
<text text-anchor="start" x="8" y="-659.9" font-family="Times,serif" font-size="14.00" fill="#000000"> &#160;&#160;&#160;constructor()</text>
<text text-anchor="start" x="8" y="-643.1" font-family="Times,serif" font-size="14.00" fill="#000000"> &#160;&#160;&#160;owner(): address</text>
<text text-anchor="start" x="8" y="-626.3" font-family="Times,serif" font-size="14.00" fill="#000000"> &#160;&#160;&#160;renounceOwnership()</text>
<text text-anchor="start" x="8" y="-609.5" font-family="Times,serif" font-size="14.00" fill="#000000"> &#160;&#160;&#160;transferOwnership(newOwner: address)</text>
</g>
<!-- 1&#45;&gt;0 -->
<g id="edge1" class="edge">
<title>1&#45;&gt;0</title>
<path fill="none" stroke="#000000" d="M286.2162,-810.1006C313.5207,-875.2137 348.3128,-958.1826 374.4513,-1020.5153"/>
<polygon fill="none" stroke="#000000" points="364.8702,-1024.8193 386.1548,-1048.4248 384.2364,-1016.6982 364.8702,-1024.8193"/>
</g>
<!-- 2 -->
<g id="node3" class="node">
<title>2</title>
<polygon fill="#f2f2f2" stroke="#000000" points="539.1371,-989.9 539.1371,-1232.3 977.7369,-1232.3 977.7369,-989.9 539.1371,-989.9"/>
<text text-anchor="middle" x="758.437" y="-1215.7" font-family="Times,serif" font-size="14.00" fill="#000000">&lt;&lt;Interface&gt;&gt;</text>
<text text-anchor="middle" x="758.437" y="-1198.9" font-family="Times,serif" font-size="14.00" fill="#000000">IERC20</text>
<polyline fill="none" stroke="#000000" points="539.1371,-1190.7 977.7369,-1190.7 "/>
<text text-anchor="middle" x="758.437" y="-1174.1" font-family="Times,serif" font-size="14.00" fill="#000000"> </text>
<polyline fill="none" stroke="#000000" points="539.1371,-1165.9 977.7369,-1165.9 "/>
<text text-anchor="start" x="547.1371" y="-1149.3" font-family="Times,serif" font-size="14.00" fill="#000000">External:</text>
<text text-anchor="start" x="547.1371" y="-1132.5" font-family="Times,serif" font-size="14.00" fill="#000000"> &#160;&#160;&#160;&#160;totalSupply(): uint256</text>
<text text-anchor="start" x="547.1371" y="-1115.7" font-family="Times,serif" font-size="14.00" fill="#000000"> &#160;&#160;&#160;&#160;balanceOf(account: address): uint256</text>
<text text-anchor="start" x="547.1371" y="-1098.9" font-family="Times,serif" font-size="14.00" fill="#000000"> &#160;&#160;&#160;&#160;transfer(recipient: address, amount: uint256): bool</text>
<text text-anchor="start" x="547.1371" y="-1082.1" font-family="Times,serif" font-size="14.00" fill="#000000"> &#160;&#160;&#160;&#160;allowance(owner: address, spender: address): uint256</text>
<text text-anchor="start" x="547.1371" y="-1065.3" font-family="Times,serif" font-size="14.00" fill="#000000"> &#160;&#160;&#160;&#160;approve(spender: address, amount: uint256): bool</text>
<text text-anchor="start" x="547.1371" y="-1048.5" font-family="Times,serif" font-size="14.00" fill="#000000"> &#160;&#160;&#160;&#160;transferFrom(sender: address, recipient: address, amount: uint256): bool</text>
<text text-anchor="start" x="547.1371" y="-1031.7" font-family="Times,serif" font-size="14.00" fill="#000000">Public:</text>
<text text-anchor="start" x="547.1371" y="-1014.9" font-family="Times,serif" font-size="14.00" fill="#000000"> &#160;&#160;&#160;&lt;&lt;event&gt;&gt; Transfer(from: address, to: address, value: uint256)</text>
<text text-anchor="start" x="547.1371" y="-998.1" font-family="Times,serif" font-size="14.00" fill="#000000"> &#160;&#160;&#160;&lt;&lt;event&gt;&gt; Approval(owner: address, spender: address, value: uint256)</text>
</g>
<!-- 3 -->
<g id="node4" class="node">
<title>3</title>
<polygon fill="#f2f2f2" stroke="#000000" points="995.7406,-998.3 995.7406,-1223.9 1353.1334,-1223.9 1353.1334,-998.3 995.7406,-998.3"/>
<text text-anchor="middle" x="1174.437" y="-1207.3" font-family="Times,serif" font-size="14.00" fill="#000000">&lt;&lt;Library&gt;&gt;</text>
<text text-anchor="middle" x="1174.437" y="-1190.5" font-family="Times,serif" font-size="14.00" fill="#000000">SafeMath</text>
<polyline fill="none" stroke="#000000" points="995.7406,-1182.3 1353.1334,-1182.3 "/>
<text text-anchor="middle" x="1174.437" y="-1165.7" font-family="Times,serif" font-size="14.00" fill="#000000"> </text>
<polyline fill="none" stroke="#000000" points="995.7406,-1157.5 1353.1334,-1157.5 "/>
<text text-anchor="start" x="1003.7406" y="-1140.9" font-family="Times,serif" font-size="14.00" fill="#000000">Internal:</text>
<text text-anchor="start" x="1003.7406" y="-1124.1" font-family="Times,serif" font-size="14.00" fill="#000000"> &#160;&#160;&#160;add(a: uint256, b: uint256): uint256</text>
<text text-anchor="start" x="1003.7406" y="-1107.3" font-family="Times,serif" font-size="14.00" fill="#000000"> &#160;&#160;&#160;sub(a: uint256, b: uint256): uint256</text>
<text text-anchor="start" x="1003.7406" y="-1090.5" font-family="Times,serif" font-size="14.00" fill="#000000"> &#160;&#160;&#160;sub(a: uint256, b: uint256, errorMessage: string): uint256</text>
<text text-anchor="start" x="1003.7406" y="-1073.7" font-family="Times,serif" font-size="14.00" fill="#000000"> &#160;&#160;&#160;mul(a: uint256, b: uint256): uint256</text>
<text text-anchor="start" x="1003.7406" y="-1056.9" font-family="Times,serif" font-size="14.00" fill="#000000"> &#160;&#160;&#160;div(a: uint256, b: uint256): uint256</text>
<text text-anchor="start" x="1003.7406" y="-1040.1" font-family="Times,serif" font-size="14.00" fill="#000000"> &#160;&#160;&#160;div(a: uint256, b: uint256, errorMessage: string): uint256</text>
<text text-anchor="start" x="1003.7406" y="-1023.3" font-family="Times,serif" font-size="14.00" fill="#000000"> &#160;&#160;&#160;mod(a: uint256, b: uint256): uint256</text>
<text text-anchor="start" x="1003.7406" y="-1006.5" font-family="Times,serif" font-size="14.00" fill="#000000"> &#160;&#160;&#160;mod(a: uint256, b: uint256, errorMessage: string): uint256</text>
</g>
<!-- 4 -->
<g id="node5" class="node">
<title>4</title>
<polygon fill="#f2f2f2" stroke="#000000" points="540.8871,-458.5 540.8871,-952.9 975.9869,-952.9 975.9869,-458.5 540.8871,-458.5"/>
<text text-anchor="middle" x="758.437" y="-936.3" font-family="Times,serif" font-size="14.00" fill="#000000">ERC20</text>
<polyline fill="none" stroke="#000000" points="540.8871,-928.1 975.9869,-928.1 "/>
<text text-anchor="start" x="548.8871" y="-911.5" font-family="Times,serif" font-size="14.00" fill="#000000">Private:</text>
<text text-anchor="start" x="548.8871" y="-894.7" font-family="Times,serif" font-size="14.00" fill="#000000"> &#160;&#160;_balances: mapping(address=&gt;uint256)</text>
<text text-anchor="start" x="548.8871" y="-877.9" font-family="Times,serif" font-size="14.00" fill="#000000"> &#160;&#160;_allowances: mapping(address=&gt;mapping(address=&gt;uint256))</text>
<text text-anchor="start" x="548.8871" y="-861.1" font-family="Times,serif" font-size="14.00" fill="#000000"> &#160;&#160;_totalSupply: uint256</text>
<text text-anchor="start" x="548.8871" y="-844.3" font-family="Times,serif" font-size="14.00" fill="#000000"> &#160;&#160;_name: string</text>
<text text-anchor="start" x="548.8871" y="-827.5" font-family="Times,serif" font-size="14.00" fill="#000000"> &#160;&#160;_symbol: string</text>
<text text-anchor="start" x="548.8871" y="-810.7" font-family="Times,serif" font-size="14.00" fill="#000000"> &#160;&#160;_decimals: uint8</text>
<polyline fill="none" stroke="#000000" points="540.8871,-802.5 975.9869,-802.5 "/>
<text text-anchor="start" x="548.8871" y="-785.9" font-family="Times,serif" font-size="14.00" fill="#000000">Internal:</text>
<text text-anchor="start" x="548.8871" y="-769.1" font-family="Times,serif" font-size="14.00" fill="#000000"> &#160;&#160;&#160;_transfer(sender: address, recipient: address, amount: uint256)</text>
<text text-anchor="start" x="548.8871" y="-752.3" font-family="Times,serif" font-size="14.00" fill="#000000"> &#160;&#160;&#160;_mint(account: address, amount: uint256)</text>
<text text-anchor="start" x="548.8871" y="-735.5" font-family="Times,serif" font-size="14.00" fill="#000000"> &#160;&#160;&#160;_burn(account: address, amount: uint256)</text>
<text text-anchor="start" x="548.8871" y="-718.7" font-family="Times,serif" font-size="14.00" fill="#000000"> &#160;&#160;&#160;_approve(owner: address, spender: address, amount: uint256)</text>
<text text-anchor="start" x="548.8871" y="-701.9" font-family="Times,serif" font-size="14.00" fill="#000000"> &#160;&#160;&#160;_setupDecimals(decimals_: uint8)</text>
<text text-anchor="start" x="548.8871" y="-685.1" font-family="Times,serif" font-size="14.00" fill="#000000"> &#160;&#160;&#160;_beforeTokenTransfer(from: address, to: address, amount: uint256)</text>
<text text-anchor="start" x="548.8871" y="-668.3" font-family="Times,serif" font-size="14.00" fill="#000000">Public:</text>
<text text-anchor="start" x="548.8871" y="-651.5" font-family="Times,serif" font-size="14.00" fill="#000000"> &#160;&#160;&#160;constructor(name_: string, symbol_: string)</text>
<text text-anchor="start" x="548.8871" y="-634.7" font-family="Times,serif" font-size="14.00" fill="#000000"> &#160;&#160;&#160;name(): string</text>
<text text-anchor="start" x="548.8871" y="-617.9" font-family="Times,serif" font-size="14.00" fill="#000000"> &#160;&#160;&#160;symbol(): string</text>
<text text-anchor="start" x="548.8871" y="-601.1" font-family="Times,serif" font-size="14.00" fill="#000000"> &#160;&#160;&#160;decimals(): uint8</text>
<text text-anchor="start" x="548.8871" y="-584.3" font-family="Times,serif" font-size="14.00" fill="#000000"> &#160;&#160;&#160;totalSupply(): uint256</text>
<text text-anchor="start" x="548.8871" y="-567.5" font-family="Times,serif" font-size="14.00" fill="#000000"> &#160;&#160;&#160;balanceOf(account: address): uint256</text>
<text text-anchor="start" x="548.8871" y="-550.7" font-family="Times,serif" font-size="14.00" fill="#000000"> &#160;&#160;&#160;transfer(recipient: address, amount: uint256): bool</text>
<text text-anchor="start" x="548.8871" y="-533.9" font-family="Times,serif" font-size="14.00" fill="#000000"> &#160;&#160;&#160;allowance(owner: address, spender: address): uint256</text>
<text text-anchor="start" x="548.8871" y="-517.1" font-family="Times,serif" font-size="14.00" fill="#000000"> &#160;&#160;&#160;approve(spender: address, amount: uint256): bool</text>
<text text-anchor="start" x="548.8871" y="-500.3" font-family="Times,serif" font-size="14.00" fill="#000000"> &#160;&#160;&#160;transferFrom(sender: address, recipient: address, amount: uint256): bool</text>
<text text-anchor="start" x="548.8871" y="-483.5" font-family="Times,serif" font-size="14.00" fill="#000000"> &#160;&#160;&#160;increaseAllowance(spender: address, addedValue: uint256): bool</text>
<text text-anchor="start" x="548.8871" y="-466.7" font-family="Times,serif" font-size="14.00" fill="#000000"> &#160;&#160;&#160;decreaseAllowance(spender: address, subtractedValue: uint256): bool</text>
</g>
<!-- 4&#45;&gt;0 -->
<g id="edge2" class="edge">
<title>4&#45;&gt;0</title>
<path fill="none" stroke="#000000" d="M547.4482,-952.9105C525.4226,-978.7174 504.2612,-1003.5117 485.4894,-1025.5062"/>
<polygon fill="none" stroke="#000000" points="477.2515,-1018.9842 465.7627,-1048.6196 493.2248,-1032.617 477.2515,-1018.9842"/>
</g>
<!-- 4&#45;&gt;2 -->
<g id="edge3" class="edge">
<title>4&#45;&gt;2</title>
<path fill="none" stroke="#000000" stroke-dasharray="5,2" d="M758.437,-952.9105C758.437,-955.067 758.437,-957.2164 758.437,-959.3577"/>
<polygon fill="none" stroke="#000000" points="747.9371,-959.6275 758.437,-989.6276 768.9371,-959.6276 747.9371,-959.6275"/>
</g>
<!-- 4&#45;&gt;3 -->
<g id="edge4" class="edge">
<title>4&#45;&gt;3</title>
<path fill="none" stroke="#000000" stroke-dasharray="5,2" d="M976.1838,-917.8985C1001.9273,-942.986 1027.4712,-967.879 1051.2336,-991.0359"/>
<polygon fill="#000000" stroke="#000000" points="1048.9447,-993.6924 1058.5492,-998.1651 1053.8302,-988.6792 1048.9447,-993.6924"/>
</g>
<!-- 5 -->
<g id="node6" class="node">
<title>5</title>
<polygon fill="#f2f2f2" stroke="#000000" points="886.3089,-221.1 886.3089,-396.3 1294.5651,-396.3 1294.5651,-221.1 886.3089,-221.1"/>
<text text-anchor="middle" x="1090.437" y="-379.7" font-family="Times,serif" font-size="14.00" fill="#000000">&lt;&lt;Abstract&gt;&gt;</text>
<text text-anchor="middle" x="1090.437" y="-362.9" font-family="Times,serif" font-size="14.00" fill="#000000">ERC20Capped</text>
<polyline fill="none" stroke="#000000" points="886.3089,-354.7 1294.5651,-354.7 "/>
<text text-anchor="start" x="894.3089" y="-338.1" font-family="Times,serif" font-size="14.00" fill="#000000">Private:</text>
<text text-anchor="start" x="894.3089" y="-321.3" font-family="Times,serif" font-size="14.00" fill="#000000"> &#160;&#160;_cap: uint256</text>
<polyline fill="none" stroke="#000000" points="886.3089,-313.1 1294.5651,-313.1 "/>
<text text-anchor="start" x="894.3089" y="-296.5" font-family="Times,serif" font-size="14.00" fill="#000000">Internal:</text>
<text text-anchor="start" x="894.3089" y="-279.7" font-family="Times,serif" font-size="14.00" fill="#000000"> &#160;&#160;&#160;_beforeTokenTransfer(from: address, to: address, amount: uint256)</text>
<text text-anchor="start" x="894.3089" y="-262.9" font-family="Times,serif" font-size="14.00" fill="#000000">Public:</text>
<text text-anchor="start" x="894.3089" y="-246.1" font-family="Times,serif" font-size="14.00" fill="#000000"> &#160;&#160;&#160;constructor(cap_: uint256)</text>
<text text-anchor="start" x="894.3089" y="-229.3" font-family="Times,serif" font-size="14.00" fill="#000000"> &#160;&#160;&#160;cap(): uint256</text>
</g>
<!-- 5&#45;&gt;3 -->
<g id="edge6" class="edge">
<title>5&#45;&gt;3</title>
<path fill="none" stroke="#000000" stroke-dasharray="5,2" d="M1099.6265,-396.4819C1114.6375,-539.8729 1144.456,-824.7098 1161.566,-988.1509"/>
<polygon fill="#000000" stroke="#000000" points="1158.1015,-988.6737 1162.6237,-998.2549 1165.0634,-987.9448 1158.1015,-988.6737"/>
</g>
<!-- 5&#45;&gt;4 -->
<g id="edge5" class="edge">
<title>5&#45;&gt;4</title>
<path fill="none" stroke="#000000" d="M1017.1672,-396.3148C1006.9524,-408.5294 996.0479,-421.5689 984.7093,-435.1274"/>
<polygon fill="none" stroke="#000000" points="976.4533,-428.6322 965.2626,-458.3815 992.5627,-442.104 976.4533,-428.6322"/>
</g>
<!-- 6 -->
<g id="node7" class="node">
<title>6</title>
<polygon fill="#f2f2f2" stroke="#000000" points="580.7434,-246.3 580.7434,-371.1 868.1306,-371.1 868.1306,-246.3 580.7434,-246.3"/>
<text text-anchor="middle" x="724.437" y="-354.5" font-family="Times,serif" font-size="14.00" fill="#000000">&lt;&lt;Abstract&gt;&gt;</text>
<text text-anchor="middle" x="724.437" y="-337.7" font-family="Times,serif" font-size="14.00" fill="#000000">ERC20Burnable</text>
<polyline fill="none" stroke="#000000" points="580.7434,-329.5 868.1306,-329.5 "/>
<text text-anchor="middle" x="724.437" y="-312.9" font-family="Times,serif" font-size="14.00" fill="#000000"> </text>
<polyline fill="none" stroke="#000000" points="580.7434,-304.7 868.1306,-304.7 "/>
<text text-anchor="start" x="588.7434" y="-288.1" font-family="Times,serif" font-size="14.00" fill="#000000">Public:</text>
<text text-anchor="start" x="588.7434" y="-271.3" font-family="Times,serif" font-size="14.00" fill="#000000"> &#160;&#160;&#160;burn(amount: uint256)</text>
<text text-anchor="start" x="588.7434" y="-254.5" font-family="Times,serif" font-size="14.00" fill="#000000"> &#160;&#160;&#160;burnFrom(account: address, amount: uint256)</text>
</g>
<!-- 6&#45;&gt;0 -->
<g id="edge7" class="edge">
<title>6&#45;&gt;0</title>
<path fill="none" stroke="#000000" d="M640.6056,-371.1426C590.1124,-409.1505 534.886,-451.6027 531.437,-458 479.0395,-555.1873 523.4749,-847.1522 493.437,-953.4 486.9088,-976.491 476.8444,-1000.1436 466.0031,-1021.8743"/>
<polygon fill="none" stroke="#000000" points="456.5809,-1017.2301 451.8007,-1048.6531 475.1332,-1027.0695 456.5809,-1017.2301"/>
</g>
<!-- 6&#45;&gt;3 -->
<g id="edge9" class="edge">
<title>6&#45;&gt;3</title>
<path fill="none" stroke="#000000" stroke-dasharray="5,2" d="M799.144,-371.3445C823.1113,-389.3905 850.4589,-407.9693 877.437,-422 922.3256,-445.3455 951.3023,-420.6526 985.437,-458 1138.0654,-624.9935 1029.1034,-739.3803 1102.437,-953.4 1106.4015,-964.9701 1110.9215,-976.8406 1115.7209,-988.6246"/>
<polygon fill="#000000" stroke="#000000" points="1112.5642,-990.1498 1119.6246,-998.0493 1119.0314,-987.471 1112.5642,-990.1498"/>
</g>
<!-- 6&#45;&gt;4 -->
<g id="edge8" class="edge">
<title>6&#45;&gt;4</title>
<path fill="none" stroke="#000000" d="M729.7869,-371.168C731.2296,-388.0133 732.8879,-407.377 734.6642,-428.1178"/>
<polygon fill="none" stroke="#000000" points="724.2222,-429.2444 737.2439,-458.239 745.1456,-427.4524 724.2222,-429.2444"/>
</g>
<!-- 7 -->
<g id="node8" class="node">
<title>7</title>
<polygon fill="#f2f2f2" stroke="#000000" points="305.9047,-195.9 305.9047,-421.5 562.9693,-421.5 562.9693,-195.9 305.9047,-195.9"/>
<text text-anchor="middle" x="434.437" y="-404.9" font-family="Times,serif" font-size="14.00" fill="#000000">&lt;&lt;Abstract&gt;&gt;</text>
<text text-anchor="middle" x="434.437" y="-388.1" font-family="Times,serif" font-size="14.00" fill="#000000">ERC20Mintable</text>
<polyline fill="none" stroke="#000000" points="305.9047,-379.9 562.9693,-379.9 "/>
<text text-anchor="start" x="313.9047" y="-363.3" font-family="Times,serif" font-size="14.00" fill="#000000">Private:</text>
<text text-anchor="start" x="313.9047" y="-346.5" font-family="Times,serif" font-size="14.00" fill="#000000"> &#160;&#160;_mintingFinished: bool</text>
<polyline fill="none" stroke="#000000" points="305.9047,-338.3 562.9693,-338.3 "/>
<text text-anchor="start" x="313.9047" y="-321.7" font-family="Times,serif" font-size="14.00" fill="#000000">Internal:</text>
<text text-anchor="start" x="313.9047" y="-304.9" font-family="Times,serif" font-size="14.00" fill="#000000"> &#160;&#160;&#160;_finishMinting()</text>
<text text-anchor="start" x="313.9047" y="-288.1" font-family="Times,serif" font-size="14.00" fill="#000000">Public:</text>
<text text-anchor="start" x="313.9047" y="-271.3" font-family="Times,serif" font-size="14.00" fill="#000000"> &#160;&#160;&#160;&lt;&lt;event&gt;&gt; MintFinished()</text>
<text text-anchor="start" x="313.9047" y="-254.5" font-family="Times,serif" font-size="14.00" fill="#000000"> &#160;&#160;&#160;&lt;&lt;modifier&gt;&gt; canMint()</text>
<text text-anchor="start" x="313.9047" y="-237.7" font-family="Times,serif" font-size="14.00" fill="#000000"> &#160;&#160;&#160;mintingFinished(): bool</text>
<text text-anchor="start" x="313.9047" y="-220.9" font-family="Times,serif" font-size="14.00" fill="#000000"> &#160;&#160;&#160;mint(account: address, amount: uint256)</text>
<text text-anchor="start" x="313.9047" y="-204.1" font-family="Times,serif" font-size="14.00" fill="#000000"> &#160;&#160;&#160;finishMinting()</text>
</g>
<!-- 7&#45;&gt;4 -->
<g id="edge10" class="edge">
<title>7&#45;&gt;4</title>
<path fill="none" stroke="#000000" d="M526.6322,-421.6676C530.1696,-426.002 533.762,-430.4037 537.4003,-434.8618"/>
<polygon fill="none" stroke="#000000" points="529.4728,-441.7548 556.576,-458.358 545.7423,-428.4769 529.4728,-441.7548"/>
</g>
<!-- 8 -->
<g id="node9" class="node">
<title>8</title>
<polygon fill="#f2f2f2" stroke="#000000" points="1085.7476,-25.7 1085.7476,-133.7 1261.1264,-133.7 1261.1264,-25.7 1085.7476,-25.7"/>
<text text-anchor="middle" x="1173.437" y="-117.1" font-family="Times,serif" font-size="14.00" fill="#000000">&lt;&lt;Interface&gt;&gt;</text>
<text text-anchor="middle" x="1173.437" y="-100.3" font-family="Times,serif" font-size="14.00" fill="#000000">IPayable</text>
<polyline fill="none" stroke="#000000" points="1085.7476,-92.1 1261.1264,-92.1 "/>
<text text-anchor="middle" x="1173.437" y="-75.5" font-family="Times,serif" font-size="14.00" fill="#000000"> </text>
<polyline fill="none" stroke="#000000" points="1085.7476,-67.3 1261.1264,-67.3 "/>
<text text-anchor="start" x="1093.7476" y="-50.7" font-family="Times,serif" font-size="14.00" fill="#000000">External:</text>
<text text-anchor="start" x="1093.7476" y="-33.9" font-family="Times,serif" font-size="14.00" fill="#000000"> &#160;&#160;&#160;&#160;pay(serviceName: string)</text>
</g>
<!-- 9 -->
<g id="node10" class="node">
<title>9</title>
<polygon fill="#f2f2f2" stroke="#000000" points="1312.3969,-254.7 1312.3969,-362.7 1628.4771,-362.7 1628.4771,-254.7 1312.3969,-254.7"/>
<text text-anchor="middle" x="1470.437" y="-346.1" font-family="Times,serif" font-size="14.00" fill="#000000">&lt;&lt;Abstract&gt;&gt;</text>
<text text-anchor="middle" x="1470.437" y="-329.3" font-family="Times,serif" font-size="14.00" fill="#000000">ServicePayer</text>
<polyline fill="none" stroke="#000000" points="1312.3969,-321.1 1628.4771,-321.1 "/>
<text text-anchor="middle" x="1470.437" y="-304.5" font-family="Times,serif" font-size="14.00" fill="#000000"> </text>
<polyline fill="none" stroke="#000000" points="1312.3969,-296.3 1628.4771,-296.3 "/>
<text text-anchor="start" x="1320.3969" y="-279.7" font-family="Times,serif" font-size="14.00" fill="#000000">Public:</text>
<text text-anchor="start" x="1320.3969" y="-262.9" font-family="Times,serif" font-size="14.00" fill="#000000"> &#160;&#160;&#160;constructor(receiver: address, serviceName: string)</text>
</g>
<!-- 10 -->
<g id="node11" class="node">
<title>10</title>
<polygon fill="#f2f2f2" stroke="#000000" points="380.9067,-.5 380.9067,-158.9 1067.9673,-158.9 1067.9673,-.5 380.9067,-.5"/>
<text text-anchor="middle" x="724.437" y="-142.3" font-family="Times,serif" font-size="14.00" fill="#000000">CommonERC20</text>
<polyline fill="none" stroke="#000000" points="380.9067,-134.1 1067.9673,-134.1 "/>
<text text-anchor="middle" x="724.437" y="-117.5" font-family="Times,serif" font-size="14.00" fill="#000000"> </text>
<polyline fill="none" stroke="#000000" points="380.9067,-109.3 1067.9673,-109.3 "/>
<text text-anchor="start" x="388.9067" y="-92.7" font-family="Times,serif" font-size="14.00" fill="#000000">Internal:</text>
<text text-anchor="start" x="388.9067" y="-75.9" font-family="Times,serif" font-size="14.00" fill="#000000"> &#160;&#160;&#160;_mint(account: address, amount: uint256)</text>
<text text-anchor="start" x="388.9067" y="-59.1" font-family="Times,serif" font-size="14.00" fill="#000000"> &#160;&#160;&#160;_finishMinting()</text>
<text text-anchor="start" x="388.9067" y="-42.3" font-family="Times,serif" font-size="14.00" fill="#000000"> &#160;&#160;&#160;_beforeTokenTransfer(from: address, to: address, amount: uint256)</text>
<text text-anchor="start" x="388.9067" y="-25.5" font-family="Times,serif" font-size="14.00" fill="#000000">Public:</text>
<text text-anchor="start" x="388.9067" y="-8.7" font-family="Times,serif" font-size="14.00" fill="#000000"> &#160;&#160;&#160;constructor(name: string, symbol: string, decimals: uint8, cap: uint256, initialBalance: uint256, feeReceiver: address)</text>
</g>
<!-- 10&#45;&gt;1 -->
<g id="edge14" class="edge">
<title>10&#45;&gt;1</title>
<path fill="none" stroke="#000000" d="M380.824,-148.9296C342.1073,-162.5322 311.2334,-178.0492 296.437,-195.4 208.8672,-298.0879 206.0264,-457.9324 218.3024,-571.3325"/>
<polygon fill="none" stroke="#000000" points="207.9024,-572.7887 222.0065,-601.2725 228.7435,-570.2102 207.9024,-572.7887"/>
</g>
<!-- 10&#45;&gt;5 -->
<g id="edge11" class="edge">
<title>10&#45;&gt;5</title>
<path fill="none" stroke="#000000" d="M851.1623,-158.9899C874.9229,-173.8565 900.0856,-189.6004 924.8209,-205.0768"/>
<polygon fill="none" stroke="#000000" points="919.3646,-214.0488 950.3662,-221.0601 930.5034,-196.2463 919.3646,-214.0488"/>
</g>
<!-- 10&#45;&gt;6 -->
<g id="edge13" class="edge">
<title>10&#45;&gt;6</title>
<path fill="none" stroke="#000000" d="M724.437,-159.1504C724.437,-177.4679 724.437,-197.1098 724.437,-215.9376"/>
<polygon fill="none" stroke="#000000" points="713.9371,-215.9875 724.437,-245.9875 734.9371,-215.9876 713.9371,-215.9875"/>
</g>
<!-- 10&#45;&gt;7 -->
<g id="edge12" class="edge">
<title>10&#45;&gt;7</title>
<path fill="none" stroke="#000000" d="M618.2145,-159.084C608.3593,-166.6192 598.4172,-174.2809 586.6236,-183.5014"/>
<polygon fill="none" stroke="#000000" points="580.089,-175.2824 563.0144,-202.0912 593.0805,-191.7816 580.089,-175.2824"/>
</g>
<!-- 10&#45;&gt;9 -->
<g id="edge15" class="edge">
<title>10&#45;&gt;9</title>
<path fill="none" stroke="#000000" d="M1068.0973,-157.7853C1070.8878,-158.3292 1073.6681,-158.8676 1076.437,-159.4 1176.749,-178.6892 1208.4495,-157.8242 1303.437,-195.4 1329.9942,-205.9057 1356.5711,-221.2086 1380.4625,-237.1885"/>
<polygon fill="none" stroke="#000000" points="1374.628,-245.9219 1405.2051,-254.599 1386.713,-228.7477 1374.628,-245.9219"/>
</g>
</g>
</svg>
