<?xml version="1.0" encoding="UTF-8" standalone="no"?>
<!DOCTYPE svg PUBLIC "-//W3C//DTD SVG 1.1//EN"
 "http://www.w3.org/Graphics/SVG/1.1/DTD/svg11.dtd">
<!-- Generated by graphviz version 2.40.1 (20161225.0304)
 -->
<!-- Title: UmlClassDiagram Pages: 1 -->
<svg width="1700pt" height="1258pt"
 viewBox="0.00 0.00 1699.93 1257.60" xmlns="http://www.w3.org/2000/svg" xmlns:xlink="http://www.w3.org/1999/xlink">
<g id="graph0" class="graph" transform="scale(1 1) rotate(0) translate(4 1253.6)">
<title>UmlClassDiagram</title>
<polygon fill="#ffffff" stroke="transparent" points="-4,4 -4,-1253.6 1695.9335,-1253.6 1695.9335,4 -4,4"/>
<!-- 0 -->
<g id="node1" class="node">
<title>0</title>
<polygon fill="#f2f2f2" stroke="#000000" points="989.6241,-1065.5 989.6241,-1190.3 1207.7687,-1190.3 1207.7687,-1065.5 989.6241,-1065.5"/>
<text text-anchor="middle" x="1098.6964" y="-1173.7" font-family="Times,serif" font-size="14.00" fill="#000000">&lt;&lt;Abstract&gt;&gt;</text>
<text text-anchor="middle" x="1098.6964" y="-1156.9" font-family="Times,serif" font-size="14.00" fill="#000000">Context</text>
<polyline fill="none" stroke="#000000" points="989.6241,-1148.7 1207.7687,-1148.7 "/>
<text text-anchor="middle" x="1098.6964" y="-1132.1" font-family="Times,serif" font-size="14.00" fill="#000000"> </text>
<polyline fill="none" stroke="#000000" points="989.6241,-1123.9 1207.7687,-1123.9 "/>
<text text-anchor="start" x="997.6241" y="-1107.3" font-family="Times,serif" font-size="14.00" fill="#000000">Internal:</text>
<text text-anchor="start" x="997.6241" y="-1090.5" font-family="Times,serif" font-size="14.00" fill="#000000"> &#160;&#160;&#160;_msgSender(): (payable: address)</text>
<text text-anchor="start" x="997.6241" y="-1073.7" font-family="Times,serif" font-size="14.00" fill="#000000"> &#160;&#160;&#160;_msgData(): bytes</text>
</g>
<!-- 1 -->
<g id="node2" class="node">
<title>1</title>
<polygon fill="#f2f2f2" stroke="#000000" points="1126.2594,-618.1 1126.2594,-826.9 1611.1334,-826.9 1611.1334,-618.1 1126.2594,-618.1"/>
<text text-anchor="middle" x="1368.6964" y="-810.3" font-family="Times,serif" font-size="14.00" fill="#000000">&lt;&lt;Abstract&gt;&gt;</text>
<text text-anchor="middle" x="1368.6964" y="-793.5" font-family="Times,serif" font-size="14.00" fill="#000000">Ownable</text>
<polyline fill="none" stroke="#000000" points="1126.2594,-785.3 1611.1334,-785.3 "/>
<text text-anchor="start" x="1134.2594" y="-768.7" font-family="Times,serif" font-size="14.00" fill="#000000">Private:</text>
<text text-anchor="start" x="1134.2594" y="-751.9" font-family="Times,serif" font-size="14.00" fill="#000000"> &#160;&#160;_owner: address</text>
<polyline fill="none" stroke="#000000" points="1126.2594,-743.7 1611.1334,-743.7 "/>
<text text-anchor="start" x="1134.2594" y="-727.1" font-family="Times,serif" font-size="14.00" fill="#000000">Public:</text>
<text text-anchor="start" x="1134.2594" y="-710.3" font-family="Times,serif" font-size="14.00" fill="#000000"> &#160;&#160;&#160;&lt;&lt;event&gt;&gt; OwnershipTransferred(previousOwner: address, newOwner: address)</text>
<text text-anchor="start" x="1134.2594" y="-693.5" font-family="Times,serif" font-size="14.00" fill="#000000"> &#160;&#160;&#160;&lt;&lt;modifier&gt;&gt; onlyOwner()</text>
<text text-anchor="start" x="1134.2594" y="-676.7" font-family="Times,serif" font-size="14.00" fill="#000000"> &#160;&#160;&#160;constructor()</text>
<text text-anchor="start" x="1134.2594" y="-659.9" font-family="Times,serif" font-size="14.00" fill="#000000"> &#160;&#160;&#160;owner(): address</text>
<text text-anchor="start" x="1134.2594" y="-643.1" font-family="Times,serif" font-size="14.00" fill="#000000"> &#160;&#160;&#160;renounceOwnership()</text>
<text text-anchor="start" x="1134.2594" y="-626.3" font-family="Times,serif" font-size="14.00" fill="#000000"> &#160;&#160;&#160;transferOwnership(newOwner: address)</text>
</g>
<!-- 1&#45;&gt;0 -->
<g id="edge1" class="edge">
<title>1&#45;&gt;0</title>
<path fill="none" stroke="#000000" d="M1299.1647,-826.9006C1255.2101,-892.8976 1199.0383,-977.2385 1157.3436,-1039.8423"/>
<polygon fill="none" stroke="#000000" points="1148.3292,-1034.4353 1140.4387,-1065.2248 1165.8075,-1046.076 1148.3292,-1034.4353"/>
</g>
<!-- 2 -->
<g id="node3" class="node">
<title>2</title>
<polygon fill="#f2f2f2" stroke="#000000" points="1225.3965,-1006.7 1225.3965,-1249.1 1663.9963,-1249.1 1663.9963,-1006.7 1225.3965,-1006.7"/>
<text text-anchor="middle" x="1444.6964" y="-1232.5" font-family="Times,serif" font-size="14.00" fill="#000000">&lt;&lt;Interface&gt;&gt;</text>
<text text-anchor="middle" x="1444.6964" y="-1215.7" font-family="Times,serif" font-size="14.00" fill="#000000">IERC20</text>
<polyline fill="none" stroke="#000000" points="1225.3965,-1207.5 1663.9963,-1207.5 "/>
<text text-anchor="middle" x="1444.6964" y="-1190.9" font-family="Times,serif" font-size="14.00" fill="#000000"> </text>
<polyline fill="none" stroke="#000000" points="1225.3965,-1182.7 1663.9963,-1182.7 "/>
<text text-anchor="start" x="1233.3965" y="-1166.1" font-family="Times,serif" font-size="14.00" fill="#000000">External:</text>
<text text-anchor="start" x="1233.3965" y="-1149.3" font-family="Times,serif" font-size="14.00" fill="#000000"> &#160;&#160;&#160;&#160;totalSupply(): uint256</text>
<text text-anchor="start" x="1233.3965" y="-1132.5" font-family="Times,serif" font-size="14.00" fill="#000000"> &#160;&#160;&#160;&#160;balanceOf(account: address): uint256</text>
<text text-anchor="start" x="1233.3965" y="-1115.7" font-family="Times,serif" font-size="14.00" fill="#000000"> &#160;&#160;&#160;&#160;transfer(recipient: address, amount: uint256): bool</text>
<text text-anchor="start" x="1233.3965" y="-1098.9" font-family="Times,serif" font-size="14.00" fill="#000000"> &#160;&#160;&#160;&#160;allowance(owner: address, spender: address): uint256</text>
<text text-anchor="start" x="1233.3965" y="-1082.1" font-family="Times,serif" font-size="14.00" fill="#000000"> &#160;&#160;&#160;&#160;approve(spender: address, amount: uint256): bool</text>
<text text-anchor="start" x="1233.3965" y="-1065.3" font-family="Times,serif" font-size="14.00" fill="#000000"> &#160;&#160;&#160;&#160;transferFrom(sender: address, recipient: address, amount: uint256): bool</text>
<text text-anchor="start" x="1233.3965" y="-1048.5" font-family="Times,serif" font-size="14.00" fill="#000000">Public:</text>
<text text-anchor="start" x="1233.3965" y="-1031.7" font-family="Times,serif" font-size="14.00" fill="#000000"> &#160;&#160;&#160;&lt;&lt;event&gt;&gt; Transfer(from: address, to: address, value: uint256)</text>
<text text-anchor="start" x="1233.3965" y="-1014.9" font-family="Times,serif" font-size="14.00" fill="#000000"> &#160;&#160;&#160;&lt;&lt;event&gt;&gt; Approval(owner: address, spender: address, value: uint256)</text>
</g>
<!-- 3 -->
<g id="node4" class="node">
<title>3</title>
<polygon fill="#f2f2f2" stroke="#000000" points="0,-1015.1 0,-1240.7 357.3928,-1240.7 357.3928,-1015.1 0,-1015.1"/>
<text text-anchor="middle" x="178.6964" y="-1224.1" font-family="Times,serif" font-size="14.00" fill="#000000">&lt;&lt;Library&gt;&gt;</text>
<text text-anchor="middle" x="178.6964" y="-1207.3" font-family="Times,serif" font-size="14.00" fill="#000000">SafeMath</text>
<polyline fill="none" stroke="#000000" points="0,-1199.1 357.3928,-1199.1 "/>
<text text-anchor="middle" x="178.6964" y="-1182.5" font-family="Times,serif" font-size="14.00" fill="#000000"> </text>
<polyline fill="none" stroke="#000000" points="0,-1174.3 357.3928,-1174.3 "/>
<text text-anchor="start" x="8" y="-1157.7" font-family="Times,serif" font-size="14.00" fill="#000000">Internal:</text>
<text text-anchor="start" x="8" y="-1140.9" font-family="Times,serif" font-size="14.00" fill="#000000"> &#160;&#160;&#160;add(a: uint256, b: uint256): uint256</text>
<text text-anchor="start" x="8" y="-1124.1" font-family="Times,serif" font-size="14.00" fill="#000000"> &#160;&#160;&#160;sub(a: uint256, b: uint256): uint256</text>
<text text-anchor="start" x="8" y="-1107.3" font-family="Times,serif" font-size="14.00" fill="#000000"> &#160;&#160;&#160;sub(a: uint256, b: uint256, errorMessage: string): uint256</text>
<text text-anchor="start" x="8" y="-1090.5" font-family="Times,serif" font-size="14.00" fill="#000000"> &#160;&#160;&#160;mul(a: uint256, b: uint256): uint256</text>
<text text-anchor="start" x="8" y="-1073.7" font-family="Times,serif" font-size="14.00" fill="#000000"> &#160;&#160;&#160;div(a: uint256, b: uint256): uint256</text>
<text text-anchor="start" x="8" y="-1056.9" font-family="Times,serif" font-size="14.00" fill="#000000"> &#160;&#160;&#160;div(a: uint256, b: uint256, errorMessage: string): uint256</text>
<text text-anchor="start" x="8" y="-1040.1" font-family="Times,serif" font-size="14.00" fill="#000000"> &#160;&#160;&#160;mod(a: uint256, b: uint256): uint256</text>
<text text-anchor="start" x="8" y="-1023.3" font-family="Times,serif" font-size="14.00" fill="#000000"> &#160;&#160;&#160;mod(a: uint256, b: uint256, errorMessage: string): uint256</text>
</g>
<!-- 4 -->
<g id="node5" class="node">
<title>4</title>
<polygon fill="#f2f2f2" stroke="#000000" points="375.4792,-1015.1 375.4792,-1240.7 971.9136,-1240.7 971.9136,-1015.1 375.4792,-1015.1"/>
<text text-anchor="middle" x="673.6964" y="-1224.1" font-family="Times,serif" font-size="14.00" fill="#000000">&lt;&lt;Library&gt;&gt;</text>
<text text-anchor="middle" x="673.6964" y="-1207.3" font-family="Times,serif" font-size="14.00" fill="#000000">Address</text>
<polyline fill="none" stroke="#000000" points="375.4792,-1199.1 971.9136,-1199.1 "/>
<text text-anchor="middle" x="673.6964" y="-1182.5" font-family="Times,serif" font-size="14.00" fill="#000000"> </text>
<polyline fill="none" stroke="#000000" points="375.4792,-1174.3 971.9136,-1174.3 "/>
<text text-anchor="start" x="383.4792" y="-1157.7" font-family="Times,serif" font-size="14.00" fill="#000000">Private:</text>
<text text-anchor="start" x="383.4792" y="-1140.9" font-family="Times,serif" font-size="14.00" fill="#000000"> &#160;&#160;&#160;_functionCallWithValue(target: address, data: bytes, weiValue: uint256, errorMessage: string): bytes</text>
<text text-anchor="start" x="383.4792" y="-1124.1" font-family="Times,serif" font-size="14.00" fill="#000000">Internal:</text>
<text text-anchor="start" x="383.4792" y="-1107.3" font-family="Times,serif" font-size="14.00" fill="#000000"> &#160;&#160;&#160;isContract(account: address): bool</text>
<text text-anchor="start" x="383.4792" y="-1090.5" font-family="Times,serif" font-size="14.00" fill="#000000"> &#160;&#160;&#160;sendValue(recipient: address, amount: uint256)</text>
<text text-anchor="start" x="383.4792" y="-1073.7" font-family="Times,serif" font-size="14.00" fill="#000000"> &#160;&#160;&#160;functionCall(target: address, data: bytes): bytes</text>
<text text-anchor="start" x="383.4792" y="-1056.9" font-family="Times,serif" font-size="14.00" fill="#000000"> &#160;&#160;&#160;functionCall(target: address, data: bytes, errorMessage: string): bytes</text>
<text text-anchor="start" x="383.4792" y="-1040.1" font-family="Times,serif" font-size="14.00" fill="#000000"> &#160;&#160;&#160;functionCallWithValue(target: address, data: bytes, value: uint256): bytes</text>
<text text-anchor="start" x="383.4792" y="-1023.3" font-family="Times,serif" font-size="14.00" fill="#000000"> &#160;&#160;&#160;functionCallWithValue(target: address, data: bytes, value: uint256, errorMessage: string): bytes</text>
</g>
<!-- 5 -->
<g id="node6" class="node">
<title>5</title>
<polygon fill="#f2f2f2" stroke="#000000" points="635.1465,-475.3 635.1465,-969.7 1070.2463,-969.7 1070.2463,-475.3 635.1465,-475.3"/>
<text text-anchor="middle" x="852.6964" y="-953.1" font-family="Times,serif" font-size="14.00" fill="#000000">ERC20</text>
<polyline fill="none" stroke="#000000" points="635.1465,-944.9 1070.2463,-944.9 "/>
<text text-anchor="start" x="643.1465" y="-928.3" font-family="Times,serif" font-size="14.00" fill="#000000">Private:</text>
<text text-anchor="start" x="643.1465" y="-911.5" font-family="Times,serif" font-size="14.00" fill="#000000"> &#160;&#160;_balances: mapping(address=&gt;uint256)</text>
<text text-anchor="start" x="643.1465" y="-894.7" font-family="Times,serif" font-size="14.00" fill="#000000"> &#160;&#160;_allowances: mapping(address=&gt;mapping(address=&gt;uint256))</text>
<text text-anchor="start" x="643.1465" y="-877.9" font-family="Times,serif" font-size="14.00" fill="#000000"> &#160;&#160;_totalSupply: uint256</text>
<text text-anchor="start" x="643.1465" y="-861.1" font-family="Times,serif" font-size="14.00" fill="#000000"> &#160;&#160;_name: string</text>
<text text-anchor="start" x="643.1465" y="-844.3" font-family="Times,serif" font-size="14.00" fill="#000000"> &#160;&#160;_symbol: string</text>
<text text-anchor="start" x="643.1465" y="-827.5" font-family="Times,serif" font-size="14.00" fill="#000000"> &#160;&#160;_decimals: uint8</text>
<polyline fill="none" stroke="#000000" points="635.1465,-819.3 1070.2463,-819.3 "/>
<text text-anchor="start" x="643.1465" y="-802.7" font-family="Times,serif" font-size="14.00" fill="#000000">Internal:</text>
<text text-anchor="start" x="643.1465" y="-785.9" font-family="Times,serif" font-size="14.00" fill="#000000"> &#160;&#160;&#160;_transfer(sender: address, recipient: address, amount: uint256)</text>
<text text-anchor="start" x="643.1465" y="-769.1" font-family="Times,serif" font-size="14.00" fill="#000000"> &#160;&#160;&#160;_mint(account: address, amount: uint256)</text>
<text text-anchor="start" x="643.1465" y="-752.3" font-family="Times,serif" font-size="14.00" fill="#000000"> &#160;&#160;&#160;_burn(account: address, amount: uint256)</text>
<text text-anchor="start" x="643.1465" y="-735.5" font-family="Times,serif" font-size="14.00" fill="#000000"> &#160;&#160;&#160;_approve(owner: address, spender: address, amount: uint256)</text>
<text text-anchor="start" x="643.1465" y="-718.7" font-family="Times,serif" font-size="14.00" fill="#000000"> &#160;&#160;&#160;_setupDecimals(decimals_: uint8)</text>
<text text-anchor="start" x="643.1465" y="-701.9" font-family="Times,serif" font-size="14.00" fill="#000000"> &#160;&#160;&#160;_beforeTokenTransfer(from: address, to: address, amount: uint256)</text>
<text text-anchor="start" x="643.1465" y="-685.1" font-family="Times,serif" font-size="14.00" fill="#000000">Public:</text>
<text text-anchor="start" x="643.1465" y="-668.3" font-family="Times,serif" font-size="14.00" fill="#000000"> &#160;&#160;&#160;constructor(name_: string, symbol_: string)</text>
<text text-anchor="start" x="643.1465" y="-651.5" font-family="Times,serif" font-size="14.00" fill="#000000"> &#160;&#160;&#160;name(): string</text>
<text text-anchor="start" x="643.1465" y="-634.7" font-family="Times,serif" font-size="14.00" fill="#000000"> &#160;&#160;&#160;symbol(): string</text>
<text text-anchor="start" x="643.1465" y="-617.9" font-family="Times,serif" font-size="14.00" fill="#000000"> &#160;&#160;&#160;decimals(): uint8</text>
<text text-anchor="start" x="643.1465" y="-601.1" font-family="Times,serif" font-size="14.00" fill="#000000"> &#160;&#160;&#160;totalSupply(): uint256</text>
<text text-anchor="start" x="643.1465" y="-584.3" font-family="Times,serif" font-size="14.00" fill="#000000"> &#160;&#160;&#160;balanceOf(account: address): uint256</text>
<text text-anchor="start" x="643.1465" y="-567.5" font-family="Times,serif" font-size="14.00" fill="#000000"> &#160;&#160;&#160;transfer(recipient: address, amount: uint256): bool</text>
<text text-anchor="start" x="643.1465" y="-550.7" font-family="Times,serif" font-size="14.00" fill="#000000"> &#160;&#160;&#160;allowance(owner: address, spender: address): uint256</text>
<text text-anchor="start" x="643.1465" y="-533.9" font-family="Times,serif" font-size="14.00" fill="#000000"> &#160;&#160;&#160;approve(spender: address, amount: uint256): bool</text>
<text text-anchor="start" x="643.1465" y="-517.1" font-family="Times,serif" font-size="14.00" fill="#000000"> &#160;&#160;&#160;transferFrom(sender: address, recipient: address, amount: uint256): bool</text>
<text text-anchor="start" x="643.1465" y="-500.3" font-family="Times,serif" font-size="14.00" fill="#000000"> &#160;&#160;&#160;increaseAllowance(spender: address, addedValue: uint256): bool</text>
<text text-anchor="start" x="643.1465" y="-483.5" font-family="Times,serif" font-size="14.00" fill="#000000"> &#160;&#160;&#160;decreaseAllowance(spender: address, subtractedValue: uint256): bool</text>
</g>
<!-- 5&#45;&gt;0 -->
<g id="edge2" class="edge">
<title>5&#45;&gt;0</title>
<path fill="none" stroke="#000000" d="M1002.7057,-969.7105C1017.6956,-994.4134 1032.1225,-1018.1884 1045.0352,-1039.4681"/>
<polygon fill="none" stroke="#000000" points="1036.2431,-1045.2192 1060.7828,-1065.4196 1054.1963,-1034.3251 1036.2431,-1045.2192"/>
</g>
<!-- 5&#45;&gt;2 -->
<g id="edge3" class="edge">
<title>5&#45;&gt;2</title>
<path fill="none" stroke="#000000" stroke-dasharray="5,2" d="M1070.3698,-937.987C1085.8891,-949.5393 1101.7263,-960.4038 1117.6964,-970.2 1149.1869,-989.5165 1165.9985,-988.8895 1196.9427,-999.0504"/>
<polygon fill="none" stroke="#000000" points="1193.5741,-1009.0064 1225.3397,-1010.0991 1201.1887,-989.4356 1193.5741,-1009.0064"/>
</g>
<!-- 5&#45;&gt;3 -->
<g id="edge4" class="edge">
<title>5&#45;&gt;3</title>
<path fill="none" stroke="#000000" stroke-dasharray="5,2" d="M635.1003,-905.8101C599.3917,-930.0474 561.6201,-952.5601 523.6964,-970.2 458.7861,-1000.3925 432.6352,-978.3252 366.6964,-1006.2 363.2719,-1007.6477 359.8408,-1009.157 356.4086,-1010.7214"/>
<polygon fill="#000000" stroke="#000000" points="354.8887,-1007.5683 347.3241,-1014.9863 357.8636,-1013.9048 354.8887,-1007.5683"/>
</g>
<!-- 5&#45;&gt;4 -->
<g id="edge5" class="edge">
<title>5&#45;&gt;4</title>
<path fill="none" stroke="#000000" stroke-dasharray="5,2" d="M743.5433,-969.7105C738.1366,-981.9555 732.8306,-993.9726 727.7096,-1005.5708"/>
<polygon fill="#000000" stroke="#000000" points="724.4813,-1004.2171 723.6438,-1014.7788 730.8849,-1007.0446 724.4813,-1004.2171"/>
</g>
<!-- 6 -->
<g id="node7" class="node">
<title>6</title>
<polygon fill="#f2f2f2" stroke="#000000" points="955.0028,-288.3 955.0028,-413.1 1242.39,-413.1 1242.39,-288.3 955.0028,-288.3"/>
<text text-anchor="middle" x="1098.6964" y="-396.5" font-family="Times,serif" font-size="14.00" fill="#000000">&lt;&lt;Abstract&gt;&gt;</text>
<text text-anchor="middle" x="1098.6964" y="-379.7" font-family="Times,serif" font-size="14.00" fill="#000000">ERC20Burnable</text>
<polyline fill="none" stroke="#000000" points="955.0028,-371.5 1242.39,-371.5 "/>
<text text-anchor="middle" x="1098.6964" y="-354.9" font-family="Times,serif" font-size="14.00" fill="#000000"> </text>
<polyline fill="none" stroke="#000000" points="955.0028,-346.7 1242.39,-346.7 "/>
<text text-anchor="start" x="963.0028" y="-330.1" font-family="Times,serif" font-size="14.00" fill="#000000">Public:</text>
<text text-anchor="start" x="963.0028" y="-313.3" font-family="Times,serif" font-size="14.00" fill="#000000"> &#160;&#160;&#160;burn(amount: uint256)</text>
<text text-anchor="start" x="963.0028" y="-296.5" font-family="Times,serif" font-size="14.00" fill="#000000"> &#160;&#160;&#160;burnFrom(account: address, amount: uint256)</text>
</g>
<!-- 6&#45;&gt;0 -->
<g id="edge6" class="edge">
<title>6&#45;&gt;0</title>
<path fill="none" stroke="#000000" d="M1098.6964,-413.3151C1098.6964,-549.8232 1098.6964,-874.803 1098.6964,-1035.1575"/>
<polygon fill="none" stroke="#000000" points="1088.1965,-1035.3847 1098.6964,-1065.3847 1109.1965,-1035.3847 1088.1965,-1035.3847"/>
</g>
<!-- 6&#45;&gt;3 -->
<g id="edge8" class="edge">
<title>6&#45;&gt;3</title>
<path fill="none" stroke="#000000" stroke-dasharray="5,2" d="M1003.9713,-413.1574C985.2818,-423.1705 965.3537,-432.346 945.6964,-438.8 809.7186,-483.4452 743.255,-393.1719 625.6964,-474.8 422.9533,-615.5769 530.112,-778.4478 374.6964,-970.2 364.2367,-983.1052 352.5585,-995.6567 340.2548,-1007.6749"/>
<polygon fill="#000000" stroke="#000000" points="337.7371,-1005.24 332.9428,-1014.688 342.5826,-1010.2919 337.7371,-1005.24"/>
</g>
<!-- 6&#45;&gt;5 -->
<g id="edge7" class="edge">
<title>6&#45;&gt;5</title>
<path fill="none" stroke="#000000" d="M1057.244,-413.3504C1049.807,-424.5905 1041.6461,-436.9248 1032.9986,-449.9945"/>
<polygon fill="none" stroke="#000000" points="1024.1997,-444.2643 1016.4025,-475.0775 1041.7133,-455.852 1024.1997,-444.2643"/>
</g>
<!-- 7 -->
<g id="node8" class="node">
<title>7</title>
<polygon fill="#f2f2f2" stroke="#000000" points="528.5683,-263.1 528.5683,-438.3 936.8245,-438.3 936.8245,-263.1 528.5683,-263.1"/>
<text text-anchor="middle" x="732.6964" y="-421.7" font-family="Times,serif" font-size="14.00" fill="#000000">&lt;&lt;Abstract&gt;&gt;</text>
<text text-anchor="middle" x="732.6964" y="-404.9" font-family="Times,serif" font-size="14.00" fill="#000000">ERC20Capped</text>
<polyline fill="none" stroke="#000000" points="528.5683,-396.7 936.8245,-396.7 "/>
<text text-anchor="start" x="536.5683" y="-380.1" font-family="Times,serif" font-size="14.00" fill="#000000">Private:</text>
<text text-anchor="start" x="536.5683" y="-363.3" font-family="Times,serif" font-size="14.00" fill="#000000"> &#160;&#160;_cap: uint256</text>
<polyline fill="none" stroke="#000000" points="528.5683,-355.1 936.8245,-355.1 "/>
<text text-anchor="start" x="536.5683" y="-338.5" font-family="Times,serif" font-size="14.00" fill="#000000">Internal:</text>
<text text-anchor="start" x="536.5683" y="-321.7" font-family="Times,serif" font-size="14.00" fill="#000000"> &#160;&#160;&#160;_beforeTokenTransfer(from: address, to: address, amount: uint256)</text>
<text text-anchor="start" x="536.5683" y="-304.9" font-family="Times,serif" font-size="14.00" fill="#000000">Public:</text>
<text text-anchor="start" x="536.5683" y="-288.1" font-family="Times,serif" font-size="14.00" fill="#000000"> &#160;&#160;&#160;constructor(cap_: uint256)</text>
<text text-anchor="start" x="536.5683" y="-271.3" font-family="Times,serif" font-size="14.00" fill="#000000"> &#160;&#160;&#160;cap(): uint256</text>
</g>
<!-- 7&#45;&gt;3 -->
<g id="edge10" class="edge">
<title>7&#45;&gt;3</title>
<path fill="none" stroke="#000000" stroke-dasharray="5,2" d="M538.5807,-438.3844C523.1268,-449.4191 508.5505,-461.5479 495.6964,-474.8 347.617,-627.4646 257.0184,-862.641 212.4627,-1005.2168"/>
<polygon fill="#000000" stroke="#000000" points="209.0802,-1004.308 209.4642,-1014.8959 215.7667,-1006.3795 209.0802,-1004.308"/>
</g>
<!-- 7&#45;&gt;5 -->
<g id="edge9" class="edge">
<title>7&#45;&gt;5</title>
<path fill="none" stroke="#000000" d="M760.9828,-438.3406C761.8305,-440.9672 762.6901,-443.6305 763.5605,-446.3272"/>
<polygon fill="none" stroke="#000000" points="753.6033,-449.6619 772.8104,-474.9866 773.5882,-443.2116 753.6033,-449.6619"/>
</g>
<!-- 8 -->
<g id="node9" class="node">
<title>8</title>
<polygon fill="#f2f2f2" stroke="#000000" points="1299.1851,-305.1 1299.1851,-396.3 1682.2077,-396.3 1682.2077,-305.1 1299.1851,-305.1"/>
<text text-anchor="middle" x="1490.6964" y="-379.7" font-family="Times,serif" font-size="14.00" fill="#000000">TokenRecover</text>
<polyline fill="none" stroke="#000000" points="1299.1851,-371.5 1682.2077,-371.5 "/>
<text text-anchor="middle" x="1490.6964" y="-354.9" font-family="Times,serif" font-size="14.00" fill="#000000"> </text>
<polyline fill="none" stroke="#000000" points="1299.1851,-346.7 1682.2077,-346.7 "/>
<text text-anchor="start" x="1307.1851" y="-330.1" font-family="Times,serif" font-size="14.00" fill="#000000">Public:</text>
<text text-anchor="start" x="1307.1851" y="-313.3" font-family="Times,serif" font-size="14.00" fill="#000000"> &#160;&#160;&#160;recoverERC20(tokenAddress: address, tokenAmount: uint256)</text>
</g>
<!-- 8&#45;&gt;1 -->
<g id="edge11" class="edge">
<title>8&#45;&gt;1</title>
<path fill="none" stroke="#000000" d="M1475.6144,-396.6629C1459.8908,-444.5812 1434.5059,-521.9429 1412.4161,-589.2623"/>
<polygon fill="none" stroke="#000000" points="1402.4053,-586.0931 1403.0285,-617.8715 1422.3585,-592.6405 1402.4053,-586.0931"/>
</g>
<!-- 8&#45;&gt;2 -->
<g id="edge12" class="edge">
<title>8&#45;&gt;2</title>
<path fill="none" stroke="#000000" stroke-dasharray="5,2" d="M1557.3525,-396.4986C1581.7714,-417.2544 1606.6138,-444.0606 1619.6964,-474.8 1705.9196,-677.3927 1709.2097,-769.0393 1619.6964,-970.2 1615.4123,-979.8275 1610.2179,-989.1145 1604.3398,-998.032"/>
<polygon fill="#000000" stroke="#000000" points="1601.3146,-996.2529 1598.5019,-1006.4676 1607.0706,-1000.2364 1601.3146,-996.2529"/>
</g>
<!-- 9 -->
<g id="node10" class="node">
<title>9</title>
<polygon fill="#f2f2f2" stroke="#000000" points="1289.4593,-8.9 1289.4593,-217.7 1691.9335,-217.7 1691.9335,-8.9 1289.4593,-8.9"/>
<text text-anchor="middle" x="1490.6964" y="-201.1" font-family="Times,serif" font-size="14.00" fill="#000000">ServiceReceiver</text>
<polyline fill="none" stroke="#000000" points="1289.4593,-192.9 1691.9335,-192.9 "/>
<text text-anchor="start" x="1297.4593" y="-176.3" font-family="Times,serif" font-size="14.00" fill="#000000">Private:</text>
<text text-anchor="start" x="1297.4593" y="-159.5" font-family="Times,serif" font-size="14.00" fill="#000000"> &#160;&#160;_prices: mapping(bytes32=&gt;uint256)</text>
<polyline fill="none" stroke="#000000" points="1289.4593,-151.3 1691.9335,-151.3 "/>
<text text-anchor="start" x="1297.4593" y="-134.7" font-family="Times,serif" font-size="14.00" fill="#000000">Private:</text>
<text text-anchor="start" x="1297.4593" y="-117.9" font-family="Times,serif" font-size="14.00" fill="#000000"> &#160;&#160;&#160;_toBytes32(serviceName: string): bytes32</text>
<text text-anchor="start" x="1297.4593" y="-101.1" font-family="Times,serif" font-size="14.00" fill="#000000">Public:</text>
<text text-anchor="start" x="1297.4593" y="-84.3" font-family="Times,serif" font-size="14.00" fill="#000000"> &#160;&#160;&#160;&lt;&lt;payable&gt;&gt; pay(serviceName: string)</text>
<text text-anchor="start" x="1297.4593" y="-67.5" font-family="Times,serif" font-size="14.00" fill="#000000"> &#160;&#160;&#160;&lt;&lt;event&gt;&gt; Created(serviceName: string, serviceAddress: address)</text>
<text text-anchor="start" x="1297.4593" y="-50.7" font-family="Times,serif" font-size="14.00" fill="#000000"> &#160;&#160;&#160;getPrice(serviceName: string): uint256</text>
<text text-anchor="start" x="1297.4593" y="-33.9" font-family="Times,serif" font-size="14.00" fill="#000000"> &#160;&#160;&#160;setPrice(serviceName: string, amount: uint256)</text>
<text text-anchor="start" x="1297.4593" y="-17.1" font-family="Times,serif" font-size="14.00" fill="#000000"> &#160;&#160;&#160;withdraw(amount: uint256)</text>
</g>
<!-- 9&#45;&gt;8 -->
<g id="edge13" class="edge">
<title>9&#45;&gt;8</title>
<path fill="none" stroke="#000000" d="M1490.6964,-217.7726C1490.6964,-236.94 1490.6964,-256.6096 1490.6964,-274.7431"/>
<polygon fill="none" stroke="#000000" points="1480.1965,-274.8197 1490.6964,-304.8198 1501.1965,-274.8198 1480.1965,-274.8197"/>
</g>
<!-- 10 -->
<g id="node11" class="node">
<title>10</title>
<polygon fill="#f2f2f2" stroke="#000000" points="194.6563,-305.1 194.6563,-396.3 510.7365,-396.3 510.7365,-305.1 194.6563,-305.1"/>
<text text-anchor="middle" x="352.6964" y="-379.7" font-family="Times,serif" font-size="14.00" fill="#000000">ServicePayer</text>
<polyline fill="none" stroke="#000000" points="194.6563,-371.5 510.7365,-371.5 "/>
<text text-anchor="middle" x="352.6964" y="-354.9" font-family="Times,serif" font-size="14.00" fill="#000000"> </text>
<polyline fill="none" stroke="#000000" points="194.6563,-346.7 510.7365,-346.7 "/>
<text text-anchor="start" x="202.6563" y="-330.1" font-family="Times,serif" font-size="14.00" fill="#000000">Public:</text>
<text text-anchor="start" x="202.6563" y="-313.3" font-family="Times,serif" font-size="14.00" fill="#000000"> &#160;&#160;&#160;constructor(receiver: address, serviceName: string)</text>
</g>
<!-- 11 -->
<g id="node12" class="node">
<title>11</title>
<polygon fill="#f2f2f2" stroke="#000000" points="389.1661,-.5 389.1661,-226.1 1076.2267,-226.1 1076.2267,-.5 389.1661,-.5"/>
<text text-anchor="middle" x="732.6964" y="-209.5" font-family="Times,serif" font-size="14.00" fill="#000000">CommonERC20</text>
<polyline fill="none" stroke="#000000" points="389.1661,-201.3 1076.2267,-201.3 "/>
<text text-anchor="start" x="397.1661" y="-184.7" font-family="Times,serif" font-size="14.00" fill="#000000">Private:</text>
<text text-anchor="start" x="397.1661" y="-167.9" font-family="Times,serif" font-size="14.00" fill="#000000"> &#160;&#160;_mintingFinished: bool</text>
<polyline fill="none" stroke="#000000" points="389.1661,-159.7 1076.2267,-159.7 "/>
<text text-anchor="start" x="397.1661" y="-143.1" font-family="Times,serif" font-size="14.00" fill="#000000">Internal:</text>
<text text-anchor="start" x="397.1661" y="-126.3" font-family="Times,serif" font-size="14.00" fill="#000000"> &#160;&#160;&#160;_beforeTokenTransfer(from: address, to: address, amount: uint256)</text>
<text text-anchor="start" x="397.1661" y="-109.5" font-family="Times,serif" font-size="14.00" fill="#000000">Public:</text>
<text text-anchor="start" x="397.1661" y="-92.7" font-family="Times,serif" font-size="14.00" fill="#000000"> &#160;&#160;&#160;&lt;&lt;event&gt;&gt; MintFinished()</text>
<text text-anchor="start" x="397.1661" y="-75.9" font-family="Times,serif" font-size="14.00" fill="#000000"> &#160;&#160;&#160;&lt;&lt;modifier&gt;&gt; canMint()</text>
<text text-anchor="start" x="397.1661" y="-59.1" font-family="Times,serif" font-size="14.00" fill="#000000"> &#160;&#160;&#160;constructor(name: string, symbol: string, decimals: uint8, cap: uint256, initialBalance: uint256, feeReceiver: address)</text>
<text text-anchor="start" x="397.1661" y="-42.3" font-family="Times,serif" font-size="14.00" fill="#000000"> &#160;&#160;&#160;mintingFinished(): bool</text>
<text text-anchor="start" x="397.1661" y="-25.5" font-family="Times,serif" font-size="14.00" fill="#000000"> &#160;&#160;&#160;mint(to: address, value: uint256)</text>
<text text-anchor="start" x="397.1661" y="-8.7" font-family="Times,serif" font-size="14.00" fill="#000000"> &#160;&#160;&#160;finishMinting()</text>
</g>
<!-- 11&#45;&gt;1 -->
<g id="edge16" class="edge">
<title>11&#45;&gt;1</title>
<path fill="none" stroke="#000000" d="M1076.546,-183.7275C1155.1865,-206.0902 1223.8896,-232.8441 1251.6964,-262.6 1306.3944,-321.132 1270.4983,-361.0228 1289.6964,-438.8 1301.8434,-488.0111 1316.4302,-541.6547 1329.7454,-588.9173"/>
<polygon fill="none" stroke="#000000" points="1319.6517,-591.8102 1337.9466,-617.8015 1339.8532,-586.0743 1319.6517,-591.8102"/>
</g>
<!-- 11&#45;&gt;6 -->
<g id="edge15" class="edge">
<title>11&#45;&gt;6</title>
<path fill="none" stroke="#000000" d="M906.8533,-226.264C930.5575,-241.6394 954.4601,-257.1435 976.9652,-271.741"/>
<polygon fill="none" stroke="#000000" points="971.2857,-280.5725 1002.1687,-288.0888 982.7136,-262.9542 971.2857,-280.5725"/>
</g>
<!-- 11&#45;&gt;7 -->
<g id="edge14" class="edge">
<title>11&#45;&gt;7</title>
<path fill="none" stroke="#000000" d="M732.6964,-226.4377C732.6964,-228.5519 732.6964,-230.6685 732.6964,-232.7846"/>
<polygon fill="none" stroke="#000000" points="722.1965,-233.0492 732.6964,-263.0492 743.1965,-233.0492 722.1965,-233.0492"/>
</g>
<!-- 11&#45;&gt;10 -->
<g id="edge17" class="edge">
<title>11&#45;&gt;10</title>
<path fill="none" stroke="#000000" d="M551.8778,-226.264C517.3985,-247.8045 482.5151,-269.5975 451.7835,-288.7966"/>
<polygon fill="none" stroke="#000000" points="445.8399,-280.1291 425.9603,-304.9294 456.9666,-297.9392 445.8399,-280.1291"/>
</g>
</g>
</svg>
