<?xml version="1.0" encoding="UTF-8" standalone="no"?>
<!DOCTYPE svg PUBLIC "-//W3C//DTD SVG 1.1//EN"
 "http://www.w3.org/Graphics/SVG/1.1/DTD/svg11.dtd">
<!-- Generated by graphviz version 2.40.1 (20161225.0304)
 -->
<!-- Title: UmlClassDiagram Pages: 1 -->
<svg width="3097pt" height="1409pt"
 viewBox="0.00 0.00 3097.11 1408.80" xmlns="http://www.w3.org/2000/svg" xmlns:xlink="http://www.w3.org/1999/xlink">
<g id="graph0" class="graph" transform="scale(1 1) rotate(0) translate(4 1404.8)">
<title>UmlClassDiagram</title>
<polygon fill="#ffffff" stroke="transparent" points="-4,4 -4,-1404.8 3093.1079,-1404.8 3093.1079,4 -4,4"/>
<!-- 0 -->
<g id="node1" class="node">
<title>0</title>
<polygon fill="#f2f2f2" stroke="#000000" points="375.6241,-1216.7 375.6241,-1341.5 593.7687,-1341.5 593.7687,-1216.7 375.6241,-1216.7"/>
<text text-anchor="middle" x="484.6964" y="-1324.9" font-family="Times,serif" font-size="14.00" fill="#000000">&lt;&lt;Abstract&gt;&gt;</text>
<text text-anchor="middle" x="484.6964" y="-1308.1" font-family="Times,serif" font-size="14.00" fill="#000000">Context</text>
<polyline fill="none" stroke="#000000" points="375.6241,-1299.9 593.7687,-1299.9 "/>
<text text-anchor="middle" x="484.6964" y="-1283.3" font-family="Times,serif" font-size="14.00" fill="#000000"> </text>
<polyline fill="none" stroke="#000000" points="375.6241,-1275.1 593.7687,-1275.1 "/>
<text text-anchor="start" x="383.6241" y="-1258.5" font-family="Times,serif" font-size="14.00" fill="#000000">Internal:</text>
<text text-anchor="start" x="383.6241" y="-1241.7" font-family="Times,serif" font-size="14.00" fill="#000000"> &#160;&#160;&#160;_msgSender(): (payable: address)</text>
<text text-anchor="start" x="383.6241" y="-1224.9" font-family="Times,serif" font-size="14.00" fill="#000000"> &#160;&#160;&#160;_msgData(): bytes</text>
</g>
<!-- 1 -->
<g id="node2" class="node">
<title>1</title>
<polygon fill="#f2f2f2" stroke="#000000" points="1279.3965,-1157.9 1279.3965,-1400.3 1717.9963,-1400.3 1717.9963,-1157.9 1279.3965,-1157.9"/>
<text text-anchor="middle" x="1498.6964" y="-1383.7" font-family="Times,serif" font-size="14.00" fill="#000000">&lt;&lt;Interface&gt;&gt;</text>
<text text-anchor="middle" x="1498.6964" y="-1366.9" font-family="Times,serif" font-size="14.00" fill="#000000">IERC20</text>
<polyline fill="none" stroke="#000000" points="1279.3965,-1358.7 1717.9963,-1358.7 "/>
<text text-anchor="middle" x="1498.6964" y="-1342.1" font-family="Times,serif" font-size="14.00" fill="#000000"> </text>
<polyline fill="none" stroke="#000000" points="1279.3965,-1333.9 1717.9963,-1333.9 "/>
<text text-anchor="start" x="1287.3965" y="-1317.3" font-family="Times,serif" font-size="14.00" fill="#000000">External:</text>
<text text-anchor="start" x="1287.3965" y="-1300.5" font-family="Times,serif" font-size="14.00" fill="#000000"> &#160;&#160;&#160;&#160;totalSupply(): uint256</text>
<text text-anchor="start" x="1287.3965" y="-1283.7" font-family="Times,serif" font-size="14.00" fill="#000000"> &#160;&#160;&#160;&#160;balanceOf(account: address): uint256</text>
<text text-anchor="start" x="1287.3965" y="-1266.9" font-family="Times,serif" font-size="14.00" fill="#000000"> &#160;&#160;&#160;&#160;transfer(recipient: address, amount: uint256): bool</text>
<text text-anchor="start" x="1287.3965" y="-1250.1" font-family="Times,serif" font-size="14.00" fill="#000000"> &#160;&#160;&#160;&#160;allowance(owner: address, spender: address): uint256</text>
<text text-anchor="start" x="1287.3965" y="-1233.3" font-family="Times,serif" font-size="14.00" fill="#000000"> &#160;&#160;&#160;&#160;approve(spender: address, amount: uint256): bool</text>
<text text-anchor="start" x="1287.3965" y="-1216.5" font-family="Times,serif" font-size="14.00" fill="#000000"> &#160;&#160;&#160;&#160;transferFrom(sender: address, recipient: address, amount: uint256): bool</text>
<text text-anchor="start" x="1287.3965" y="-1199.7" font-family="Times,serif" font-size="14.00" fill="#000000">Public:</text>
<text text-anchor="start" x="1287.3965" y="-1182.9" font-family="Times,serif" font-size="14.00" fill="#000000"> &#160;&#160;&#160;&lt;&lt;event&gt;&gt; Transfer(from: address, to: address, value: uint256)</text>
<text text-anchor="start" x="1287.3965" y="-1166.1" font-family="Times,serif" font-size="14.00" fill="#000000"> &#160;&#160;&#160;&lt;&lt;event&gt;&gt; Approval(owner: address, spender: address, value: uint256)</text>
</g>
<!-- 2 -->
<g id="node3" class="node">
<title>2</title>
<polygon fill="#f2f2f2" stroke="#000000" points="0,-1166.3 0,-1391.9 357.3928,-1391.9 357.3928,-1166.3 0,-1166.3"/>
<text text-anchor="middle" x="178.6964" y="-1375.3" font-family="Times,serif" font-size="14.00" fill="#000000">&lt;&lt;Library&gt;&gt;</text>
<text text-anchor="middle" x="178.6964" y="-1358.5" font-family="Times,serif" font-size="14.00" fill="#000000">SafeMath</text>
<polyline fill="none" stroke="#000000" points="0,-1350.3 357.3928,-1350.3 "/>
<text text-anchor="middle" x="178.6964" y="-1333.7" font-family="Times,serif" font-size="14.00" fill="#000000"> </text>
<polyline fill="none" stroke="#000000" points="0,-1325.5 357.3928,-1325.5 "/>
<text text-anchor="start" x="8" y="-1308.9" font-family="Times,serif" font-size="14.00" fill="#000000">Internal:</text>
<text text-anchor="start" x="8" y="-1292.1" font-family="Times,serif" font-size="14.00" fill="#000000"> &#160;&#160;&#160;add(a: uint256, b: uint256): uint256</text>
<text text-anchor="start" x="8" y="-1275.3" font-family="Times,serif" font-size="14.00" fill="#000000"> &#160;&#160;&#160;sub(a: uint256, b: uint256): uint256</text>
<text text-anchor="start" x="8" y="-1258.5" font-family="Times,serif" font-size="14.00" fill="#000000"> &#160;&#160;&#160;sub(a: uint256, b: uint256, errorMessage: string): uint256</text>
<text text-anchor="start" x="8" y="-1241.7" font-family="Times,serif" font-size="14.00" fill="#000000"> &#160;&#160;&#160;mul(a: uint256, b: uint256): uint256</text>
<text text-anchor="start" x="8" y="-1224.9" font-family="Times,serif" font-size="14.00" fill="#000000"> &#160;&#160;&#160;div(a: uint256, b: uint256): uint256</text>
<text text-anchor="start" x="8" y="-1208.1" font-family="Times,serif" font-size="14.00" fill="#000000"> &#160;&#160;&#160;div(a: uint256, b: uint256, errorMessage: string): uint256</text>
<text text-anchor="start" x="8" y="-1191.3" font-family="Times,serif" font-size="14.00" fill="#000000"> &#160;&#160;&#160;mod(a: uint256, b: uint256): uint256</text>
<text text-anchor="start" x="8" y="-1174.5" font-family="Times,serif" font-size="14.00" fill="#000000"> &#160;&#160;&#160;mod(a: uint256, b: uint256, errorMessage: string): uint256</text>
</g>
<!-- 3 -->
<g id="node4" class="node">
<title>3</title>
<polygon fill="#f2f2f2" stroke="#000000" points="664.4792,-1166.3 664.4792,-1391.9 1260.9136,-1391.9 1260.9136,-1166.3 664.4792,-1166.3"/>
<text text-anchor="middle" x="962.6964" y="-1375.3" font-family="Times,serif" font-size="14.00" fill="#000000">&lt;&lt;Library&gt;&gt;</text>
<text text-anchor="middle" x="962.6964" y="-1358.5" font-family="Times,serif" font-size="14.00" fill="#000000">Address</text>
<polyline fill="none" stroke="#000000" points="664.4792,-1350.3 1260.9136,-1350.3 "/>
<text text-anchor="middle" x="962.6964" y="-1333.7" font-family="Times,serif" font-size="14.00" fill="#000000"> </text>
<polyline fill="none" stroke="#000000" points="664.4792,-1325.5 1260.9136,-1325.5 "/>
<text text-anchor="start" x="672.4792" y="-1308.9" font-family="Times,serif" font-size="14.00" fill="#000000">Private:</text>
<text text-anchor="start" x="672.4792" y="-1292.1" font-family="Times,serif" font-size="14.00" fill="#000000"> &#160;&#160;&#160;_functionCallWithValue(target: address, data: bytes, weiValue: uint256, errorMessage: string): bytes</text>
<text text-anchor="start" x="672.4792" y="-1275.3" font-family="Times,serif" font-size="14.00" fill="#000000">Internal:</text>
<text text-anchor="start" x="672.4792" y="-1258.5" font-family="Times,serif" font-size="14.00" fill="#000000"> &#160;&#160;&#160;isContract(account: address): bool</text>
<text text-anchor="start" x="672.4792" y="-1241.7" font-family="Times,serif" font-size="14.00" fill="#000000"> &#160;&#160;&#160;sendValue(recipient: address, amount: uint256)</text>
<text text-anchor="start" x="672.4792" y="-1224.9" font-family="Times,serif" font-size="14.00" fill="#000000"> &#160;&#160;&#160;functionCall(target: address, data: bytes): bytes</text>
<text text-anchor="start" x="672.4792" y="-1208.1" font-family="Times,serif" font-size="14.00" fill="#000000"> &#160;&#160;&#160;functionCall(target: address, data: bytes, errorMessage: string): bytes</text>
<text text-anchor="start" x="672.4792" y="-1191.3" font-family="Times,serif" font-size="14.00" fill="#000000"> &#160;&#160;&#160;functionCallWithValue(target: address, data: bytes, value: uint256): bytes</text>
<text text-anchor="start" x="672.4792" y="-1174.5" font-family="Times,serif" font-size="14.00" fill="#000000"> &#160;&#160;&#160;functionCallWithValue(target: address, data: bytes, value: uint256, errorMessage: string): bytes</text>
</g>
<!-- 4 -->
<g id="node5" class="node">
<title>4</title>
<polygon fill="#f2f2f2" stroke="#000000" points="745.1465,-626.5 745.1465,-1120.9 1180.2463,-1120.9 1180.2463,-626.5 745.1465,-626.5"/>
<text text-anchor="middle" x="962.6964" y="-1104.3" font-family="Times,serif" font-size="14.00" fill="#000000">ERC20</text>
<polyline fill="none" stroke="#000000" points="745.1465,-1096.1 1180.2463,-1096.1 "/>
<text text-anchor="start" x="753.1465" y="-1079.5" font-family="Times,serif" font-size="14.00" fill="#000000">Private:</text>
<text text-anchor="start" x="753.1465" y="-1062.7" font-family="Times,serif" font-size="14.00" fill="#000000"> &#160;&#160;_balances: mapping(address=&gt;uint256)</text>
<text text-anchor="start" x="753.1465" y="-1045.9" font-family="Times,serif" font-size="14.00" fill="#000000"> &#160;&#160;_allowances: mapping(address=&gt;mapping(address=&gt;uint256))</text>
<text text-anchor="start" x="753.1465" y="-1029.1" font-family="Times,serif" font-size="14.00" fill="#000000"> &#160;&#160;_totalSupply: uint256</text>
<text text-anchor="start" x="753.1465" y="-1012.3" font-family="Times,serif" font-size="14.00" fill="#000000"> &#160;&#160;_name: string</text>
<text text-anchor="start" x="753.1465" y="-995.5" font-family="Times,serif" font-size="14.00" fill="#000000"> &#160;&#160;_symbol: string</text>
<text text-anchor="start" x="753.1465" y="-978.7" font-family="Times,serif" font-size="14.00" fill="#000000"> &#160;&#160;_decimals: uint8</text>
<polyline fill="none" stroke="#000000" points="745.1465,-970.5 1180.2463,-970.5 "/>
<text text-anchor="start" x="753.1465" y="-953.9" font-family="Times,serif" font-size="14.00" fill="#000000">Internal:</text>
<text text-anchor="start" x="753.1465" y="-937.1" font-family="Times,serif" font-size="14.00" fill="#000000"> &#160;&#160;&#160;_transfer(sender: address, recipient: address, amount: uint256)</text>
<text text-anchor="start" x="753.1465" y="-920.3" font-family="Times,serif" font-size="14.00" fill="#000000"> &#160;&#160;&#160;_mint(account: address, amount: uint256)</text>
<text text-anchor="start" x="753.1465" y="-903.5" font-family="Times,serif" font-size="14.00" fill="#000000"> &#160;&#160;&#160;_burn(account: address, amount: uint256)</text>
<text text-anchor="start" x="753.1465" y="-886.7" font-family="Times,serif" font-size="14.00" fill="#000000"> &#160;&#160;&#160;_approve(owner: address, spender: address, amount: uint256)</text>
<text text-anchor="start" x="753.1465" y="-869.9" font-family="Times,serif" font-size="14.00" fill="#000000"> &#160;&#160;&#160;_setupDecimals(decimals_: uint8)</text>
<text text-anchor="start" x="753.1465" y="-853.1" font-family="Times,serif" font-size="14.00" fill="#000000"> &#160;&#160;&#160;_beforeTokenTransfer(from: address, to: address, amount: uint256)</text>
<text text-anchor="start" x="753.1465" y="-836.3" font-family="Times,serif" font-size="14.00" fill="#000000">Public:</text>
<text text-anchor="start" x="753.1465" y="-819.5" font-family="Times,serif" font-size="14.00" fill="#000000"> &#160;&#160;&#160;constructor(name_: string, symbol_: string)</text>
<text text-anchor="start" x="753.1465" y="-802.7" font-family="Times,serif" font-size="14.00" fill="#000000"> &#160;&#160;&#160;name(): string</text>
<text text-anchor="start" x="753.1465" y="-785.9" font-family="Times,serif" font-size="14.00" fill="#000000"> &#160;&#160;&#160;symbol(): string</text>
<text text-anchor="start" x="753.1465" y="-769.1" font-family="Times,serif" font-size="14.00" fill="#000000"> &#160;&#160;&#160;decimals(): uint8</text>
<text text-anchor="start" x="753.1465" y="-752.3" font-family="Times,serif" font-size="14.00" fill="#000000"> &#160;&#160;&#160;totalSupply(): uint256</text>
<text text-anchor="start" x="753.1465" y="-735.5" font-family="Times,serif" font-size="14.00" fill="#000000"> &#160;&#160;&#160;balanceOf(account: address): uint256</text>
<text text-anchor="start" x="753.1465" y="-718.7" font-family="Times,serif" font-size="14.00" fill="#000000"> &#160;&#160;&#160;transfer(recipient: address, amount: uint256): bool</text>
<text text-anchor="start" x="753.1465" y="-701.9" font-family="Times,serif" font-size="14.00" fill="#000000"> &#160;&#160;&#160;allowance(owner: address, spender: address): uint256</text>
<text text-anchor="start" x="753.1465" y="-685.1" font-family="Times,serif" font-size="14.00" fill="#000000"> &#160;&#160;&#160;approve(spender: address, amount: uint256): bool</text>
<text text-anchor="start" x="753.1465" y="-668.3" font-family="Times,serif" font-size="14.00" fill="#000000"> &#160;&#160;&#160;transferFrom(sender: address, recipient: address, amount: uint256): bool</text>
<text text-anchor="start" x="753.1465" y="-651.5" font-family="Times,serif" font-size="14.00" fill="#000000"> &#160;&#160;&#160;increaseAllowance(spender: address, addedValue: uint256): bool</text>
<text text-anchor="start" x="753.1465" y="-634.7" font-family="Times,serif" font-size="14.00" fill="#000000"> &#160;&#160;&#160;decreaseAllowance(spender: address, subtractedValue: uint256): bool</text>
</g>
<!-- 4&#45;&gt;0 -->
<g id="edge1" class="edge">
<title>4&#45;&gt;0</title>
<path fill="none" stroke="#000000" d="M744.884,-1114.5996C741.8321,-1116.9107 738.7691,-1119.1788 735.6964,-1121.4 704.0981,-1144.2417 689.519,-1138.0033 655.6964,-1157.4 633.8915,-1169.9048 611.4214,-1184.507 590.228,-1199.1685"/>
<polygon fill="none" stroke="#000000" points="584.0108,-1190.705 565.598,-1216.6129 596.1484,-1207.8421 584.0108,-1190.705"/>
</g>
<!-- 4&#45;&gt;1 -->
<g id="edge2" class="edge">
<title>4&#45;&gt;1</title>
<path fill="none" stroke="#000000" stroke-dasharray="5,2" d="M1180.4996,-1080.3621C1197.818,-1094.6667 1215.3323,-1108.5054 1232.6964,-1121.4 1241.512,-1127.9465 1250.6169,-1134.4536 1259.9086,-1140.8858"/>
<polygon fill="none" stroke="#000000" points="1254.1253,-1149.6501 1284.8702,-1157.7127 1265.8637,-1132.2371 1254.1253,-1149.6501"/>
</g>
<!-- 4&#45;&gt;2 -->
<g id="edge3" class="edge">
<title>4&#45;&gt;2</title>
<path fill="none" stroke="#000000" stroke-dasharray="5,2" d="M745.023,-1116.525C741.9367,-1118.2102 738.8276,-1119.8365 735.6964,-1121.4 588.2747,-1195.0128 522.2674,-1103.0892 366.6964,-1157.4 362.3459,-1158.9188 357.9953,-1160.5578 353.6539,-1162.3026"/>
<polygon fill="#000000" stroke="#000000" points="352.0332,-1159.187 344.1682,-1166.2858 354.7434,-1165.6411 352.0332,-1159.187"/>
</g>
<!-- 4&#45;&gt;3 -->
<g id="edge4" class="edge">
<title>4&#45;&gt;3</title>
<path fill="none" stroke="#000000" stroke-dasharray="5,2" d="M962.6964,-1120.9105C962.6964,-1132.7918 962.6964,-1144.4585 962.6964,-1155.7362"/>
<polygon fill="#000000" stroke="#000000" points="959.1965,-1155.9788 962.6964,-1165.9788 966.1965,-1155.9788 959.1965,-1155.9788"/>
</g>
<!-- 5 -->
<g id="node6" class="node">
<title>5</title>
<polygon fill="#f2f2f2" stroke="#000000" points="33.0028,-363.9 33.0028,-488.7 320.39,-488.7 320.39,-363.9 33.0028,-363.9"/>
<text text-anchor="middle" x="176.6964" y="-472.1" font-family="Times,serif" font-size="14.00" fill="#000000">&lt;&lt;Abstract&gt;&gt;</text>
<text text-anchor="middle" x="176.6964" y="-455.3" font-family="Times,serif" font-size="14.00" fill="#000000">ERC20Burnable</text>
<polyline fill="none" stroke="#000000" points="33.0028,-447.1 320.39,-447.1 "/>
<text text-anchor="middle" x="176.6964" y="-430.5" font-family="Times,serif" font-size="14.00" fill="#000000"> </text>
<polyline fill="none" stroke="#000000" points="33.0028,-422.3 320.39,-422.3 "/>
<text text-anchor="start" x="41.0028" y="-405.7" font-family="Times,serif" font-size="14.00" fill="#000000">Public:</text>
<text text-anchor="start" x="41.0028" y="-388.9" font-family="Times,serif" font-size="14.00" fill="#000000"> &#160;&#160;&#160;burn(amount: uint256)</text>
<text text-anchor="start" x="41.0028" y="-372.1" font-family="Times,serif" font-size="14.00" fill="#000000"> &#160;&#160;&#160;burnFrom(account: address, amount: uint256)</text>
</g>
<!-- 5&#45;&gt;0 -->
<g id="edge5" class="edge">
<title>5&#45;&gt;0</title>
<path fill="none" stroke="#000000" d="M173.0168,-488.938C165.4038,-641.4411 154.6883,-1026.4742 233.6964,-1121.4 272.8719,-1168.4681 313.9399,-1126.3054 366.6964,-1157.4 383.8693,-1167.5217 400.2156,-1180.807 414.9703,-1194.8733"/>
<polygon fill="none" stroke="#000000" points="407.5897,-1202.3445 436.042,-1216.5121 422.6348,-1187.6937 407.5897,-1202.3445"/>
</g>
<!-- 5&#45;&gt;2 -->
<g id="edge7" class="edge">
<title>5&#45;&gt;2</title>
<path fill="none" stroke="#000000" stroke-dasharray="5,2" d="M171.1903,-488.7541C168.0014,-528.0984 164.3076,-579.9775 162.6964,-626 154.9928,-846.043 151.5698,-901.5035 162.6964,-1121.4 163.2611,-1132.56 164.0492,-1144.1472 164.9756,-1155.7453"/>
<polygon fill="#000000" stroke="#000000" points="161.5058,-1156.2548 165.8232,-1165.93 168.4817,-1155.6742 161.5058,-1156.2548"/>
</g>
<!-- 5&#45;&gt;4 -->
<g id="edge6" class="edge">
<title>5&#45;&gt;4</title>
<path fill="none" stroke="#000000" d="M217.4368,-488.8818C244.6062,-524.994 283.7195,-567.5744 329.6964,-590 483.4505,-664.9946 564.0258,-558.9216 717.1742,-618.5019"/>
<polygon fill="none" stroke="#000000" points="713.3598,-628.296 745.0426,-630.8355 721.8586,-609.0926 713.3598,-628.296"/>
</g>
<!-- 6 -->
<g id="node7" class="node">
<title>6</title>
<polygon fill="#f2f2f2" stroke="#000000" points="672.5683,-338.7 672.5683,-513.9 1080.8245,-513.9 1080.8245,-338.7 672.5683,-338.7"/>
<text text-anchor="middle" x="876.6964" y="-497.3" font-family="Times,serif" font-size="14.00" fill="#000000">&lt;&lt;Abstract&gt;&gt;</text>
<text text-anchor="middle" x="876.6964" y="-480.5" font-family="Times,serif" font-size="14.00" fill="#000000">ERC20Capped</text>
<polyline fill="none" stroke="#000000" points="672.5683,-472.3 1080.8245,-472.3 "/>
<text text-anchor="start" x="680.5683" y="-455.7" font-family="Times,serif" font-size="14.00" fill="#000000">Private:</text>
<text text-anchor="start" x="680.5683" y="-438.9" font-family="Times,serif" font-size="14.00" fill="#000000"> &#160;&#160;_cap: uint256</text>
<polyline fill="none" stroke="#000000" points="672.5683,-430.7 1080.8245,-430.7 "/>
<text text-anchor="start" x="680.5683" y="-414.1" font-family="Times,serif" font-size="14.00" fill="#000000">Internal:</text>
<text text-anchor="start" x="680.5683" y="-397.3" font-family="Times,serif" font-size="14.00" fill="#000000"> &#160;&#160;&#160;_beforeTokenTransfer(from: address, to: address, amount: uint256)</text>
<text text-anchor="start" x="680.5683" y="-380.5" font-family="Times,serif" font-size="14.00" fill="#000000">Public:</text>
<text text-anchor="start" x="680.5683" y="-363.7" font-family="Times,serif" font-size="14.00" fill="#000000"> &#160;&#160;&#160;constructor(cap_: uint256)</text>
<text text-anchor="start" x="680.5683" y="-346.9" font-family="Times,serif" font-size="14.00" fill="#000000"> &#160;&#160;&#160;cap(): uint256</text>
</g>
<!-- 6&#45;&gt;2 -->
<g id="edge9" class="edge">
<title>6&#45;&gt;2</title>
<path fill="none" stroke="#000000" stroke-dasharray="5,2" d="M786.3549,-514.0992C750.8843,-543.3477 708.0589,-572.8243 663.6964,-590 574.2747,-624.6212 301.5174,-558.2122 233.6964,-626 197.085,-662.5935 184.7323,-977.1449 180.6496,-1156.0143"/>
<polygon fill="#000000" stroke="#000000" points="177.1447,-1156.1994 180.421,-1166.2749 184.1429,-1156.3553 177.1447,-1156.1994"/>
</g>
<!-- 6&#45;&gt;4 -->
<g id="edge8" class="edge">
<title>6&#45;&gt;4</title>
<path fill="none" stroke="#000000" d="M893.5846,-514.158C898.3173,-538.7792 903.7292,-566.9337 909.3947,-596.407"/>
<polygon fill="none" stroke="#000000" points="899.1545,-598.7593 915.1288,-626.2379 919.777,-594.7952 899.1545,-598.7593"/>
</g>
<!-- 7 -->
<g id="node8" class="node">
<title>7</title>
<polygon fill="#f2f2f2" stroke="#000000" points="2271.2787,-1225.1 2271.2787,-1333.1 2548.1141,-1333.1 2548.1141,-1225.1 2271.2787,-1225.1"/>
<text text-anchor="middle" x="2409.6964" y="-1316.5" font-family="Times,serif" font-size="14.00" fill="#000000">&lt;&lt;Interface&gt;&gt;</text>
<text text-anchor="middle" x="2409.6964" y="-1299.7" font-family="Times,serif" font-size="14.00" fill="#000000">IERC165</text>
<polyline fill="none" stroke="#000000" points="2271.2787,-1291.5 2548.1141,-1291.5 "/>
<text text-anchor="middle" x="2409.6964" y="-1274.9" font-family="Times,serif" font-size="14.00" fill="#000000"> </text>
<polyline fill="none" stroke="#000000" points="2271.2787,-1266.7 2548.1141,-1266.7 "/>
<text text-anchor="start" x="2279.2787" y="-1250.1" font-family="Times,serif" font-size="14.00" fill="#000000">External:</text>
<text text-anchor="start" x="2279.2787" y="-1233.3" font-family="Times,serif" font-size="14.00" fill="#000000"> &#160;&#160;&#160;&#160;supportsInterface(interfaceId: bytes4): bool</text>
</g>
<!-- 8 -->
<g id="node9" class="node">
<title>8</title>
<polygon fill="#f2f2f2" stroke="#000000" points="1274.589,-777.7 1274.589,-969.7 1768.8038,-969.7 1768.8038,-777.7 1274.589,-777.7"/>
<text text-anchor="middle" x="1521.6964" y="-953.1" font-family="Times,serif" font-size="14.00" fill="#000000">&lt;&lt;Interface&gt;&gt;</text>
<text text-anchor="middle" x="1521.6964" y="-936.3" font-family="Times,serif" font-size="14.00" fill="#000000">IERC1363</text>
<polyline fill="none" stroke="#000000" points="1274.589,-928.1 1768.8038,-928.1 "/>
<text text-anchor="middle" x="1521.6964" y="-911.5" font-family="Times,serif" font-size="14.00" fill="#000000"> </text>
<polyline fill="none" stroke="#000000" points="1274.589,-903.3 1768.8038,-903.3 "/>
<text text-anchor="start" x="1282.589" y="-886.7" font-family="Times,serif" font-size="14.00" fill="#000000">External:</text>
<text text-anchor="start" x="1282.589" y="-869.9" font-family="Times,serif" font-size="14.00" fill="#000000"> &#160;&#160;&#160;&#160;transferAndCall(to: address, value: uint256): bool</text>
<text text-anchor="start" x="1282.589" y="-853.1" font-family="Times,serif" font-size="14.00" fill="#000000"> &#160;&#160;&#160;&#160;transferAndCall(to: address, value: uint256, data: bytes): bool</text>
<text text-anchor="start" x="1282.589" y="-836.3" font-family="Times,serif" font-size="14.00" fill="#000000"> &#160;&#160;&#160;&#160;transferFromAndCall(from: address, to: address, value: uint256): bool</text>
<text text-anchor="start" x="1282.589" y="-819.5" font-family="Times,serif" font-size="14.00" fill="#000000"> &#160;&#160;&#160;&#160;transferFromAndCall(from: address, to: address, value: uint256, data: bytes): bool</text>
<text text-anchor="start" x="1282.589" y="-802.7" font-family="Times,serif" font-size="14.00" fill="#000000"> &#160;&#160;&#160;&#160;approveAndCall(spender: address, value: uint256): bool</text>
<text text-anchor="start" x="1282.589" y="-785.9" font-family="Times,serif" font-size="14.00" fill="#000000"> &#160;&#160;&#160;&#160;approveAndCall(spender: address, value: uint256, data: bytes): bool</text>
</g>
<!-- 8&#45;&gt;1 -->
<g id="edge10" class="edge">
<title>8&#45;&gt;1</title>
<path fill="none" stroke="#000000" stroke-dasharray="5,2" d="M1516.2457,-969.7741C1513.5744,-1016.8592 1510.2943,-1074.675 1507.2957,-1127.5288"/>
<polygon fill="none" stroke="#000000" points="1496.8095,-1126.9887 1505.5933,-1157.5353 1517.7758,-1128.1783 1496.8095,-1126.9887"/>
</g>
<!-- 8&#45;&gt;7 -->
<g id="edge11" class="edge">
<title>8&#45;&gt;7</title>
<path fill="none" stroke="#000000" stroke-dasharray="5,2" d="M1598.8849,-969.9648C1645.4845,-1022.0236 1709.0249,-1083.2826 1777.6964,-1121.4 1922.5158,-1201.7848 2108.4998,-1241.8089 2241.1405,-1261.3429"/>
<polygon fill="none" stroke="#000000" points="2239.9539,-1271.7791 2271.1208,-1265.544 2242.8683,-1250.9823 2239.9539,-1271.7791"/>
</g>
<!-- 9 -->
<g id="node10" class="node">
<title>9</title>
<polygon fill="#f2f2f2" stroke="#000000" points="1786.3968,-819.7 1786.3968,-927.7 2320.996,-927.7 2320.996,-819.7 1786.3968,-819.7"/>
<text text-anchor="middle" x="2053.6964" y="-911.1" font-family="Times,serif" font-size="14.00" fill="#000000">&lt;&lt;Interface&gt;&gt;</text>
<text text-anchor="middle" x="2053.6964" y="-894.3" font-family="Times,serif" font-size="14.00" fill="#000000">IERC1363Receiver</text>
<polyline fill="none" stroke="#000000" points="1786.3968,-886.1 2320.996,-886.1 "/>
<text text-anchor="middle" x="2053.6964" y="-869.5" font-family="Times,serif" font-size="14.00" fill="#000000"> </text>
<polyline fill="none" stroke="#000000" points="1786.3968,-861.3 2320.996,-861.3 "/>
<text text-anchor="start" x="1794.3968" y="-844.7" font-family="Times,serif" font-size="14.00" fill="#000000">External:</text>
<text text-anchor="start" x="1794.3968" y="-827.9" font-family="Times,serif" font-size="14.00" fill="#000000"> &#160;&#160;&#160;&#160;onTransferReceived(operator: address, from: address, value: uint256, data: bytes): bytes4</text>
</g>
<!-- 10 -->
<g id="node11" class="node">
<title>10</title>
<polygon fill="#f2f2f2" stroke="#000000" points="2339.285,-819.7 2339.285,-927.7 2784.1078,-927.7 2784.1078,-819.7 2339.285,-819.7"/>
<text text-anchor="middle" x="2561.6964" y="-911.1" font-family="Times,serif" font-size="14.00" fill="#000000">&lt;&lt;Interface&gt;&gt;</text>
<text text-anchor="middle" x="2561.6964" y="-894.3" font-family="Times,serif" font-size="14.00" fill="#000000">IERC1363Spender</text>
<polyline fill="none" stroke="#000000" points="2339.285,-886.1 2784.1078,-886.1 "/>
<text text-anchor="middle" x="2561.6964" y="-869.5" font-family="Times,serif" font-size="14.00" fill="#000000"> </text>
<polyline fill="none" stroke="#000000" points="2339.285,-861.3 2784.1078,-861.3 "/>
<text text-anchor="start" x="2347.285" y="-844.7" font-family="Times,serif" font-size="14.00" fill="#000000">External:</text>
<text text-anchor="start" x="2347.285" y="-827.9" font-family="Times,serif" font-size="14.00" fill="#000000"> &#160;&#160;&#160;&#160;onApprovalReceived(owner: address, value: uint256, data: bytes): bytes4</text>
</g>
<!-- 11 -->
<g id="node12" class="node">
<title>11</title>
<polygon fill="#f2f2f2" stroke="#000000" points="1583.5837,-.5 1583.5837,-226.1 2075.8091,-226.1 2075.8091,-.5 1583.5837,-.5"/>
<text text-anchor="middle" x="1829.6964" y="-209.5" font-family="Times,serif" font-size="14.00" fill="#000000">&lt;&lt;Library&gt;&gt;</text>
<text text-anchor="middle" x="1829.6964" y="-192.7" font-family="Times,serif" font-size="14.00" fill="#000000">ERC165Checker</text>
<polyline fill="none" stroke="#000000" points="1583.5837,-184.5 2075.8091,-184.5 "/>
<text text-anchor="start" x="1591.5837" y="-167.9" font-family="Times,serif" font-size="14.00" fill="#000000">Private:</text>
<text text-anchor="start" x="1591.5837" y="-151.1" font-family="Times,serif" font-size="14.00" fill="#000000"> &#160;&#160;_INTERFACE_ID_INVALID: bytes4</text>
<text text-anchor="start" x="1591.5837" y="-134.3" font-family="Times,serif" font-size="14.00" fill="#000000"> &#160;&#160;_INTERFACE_ID_ERC165: bytes4</text>
<polyline fill="none" stroke="#000000" points="1583.5837,-126.1 2075.8091,-126.1 "/>
<text text-anchor="start" x="1591.5837" y="-109.5" font-family="Times,serif" font-size="14.00" fill="#000000">Private:</text>
<text text-anchor="start" x="1591.5837" y="-92.7" font-family="Times,serif" font-size="14.00" fill="#000000"> &#160;&#160;&#160;_supportsERC165Interface(account: address, interfaceId: bytes4): bool</text>
<text text-anchor="start" x="1591.5837" y="-75.9" font-family="Times,serif" font-size="14.00" fill="#000000"> &#160;&#160;&#160;_callERC165SupportsInterface(account: address, interfaceId: bytes4): (bool, bool)</text>
<text text-anchor="start" x="1591.5837" y="-59.1" font-family="Times,serif" font-size="14.00" fill="#000000">Internal:</text>
<text text-anchor="start" x="1591.5837" y="-42.3" font-family="Times,serif" font-size="14.00" fill="#000000"> &#160;&#160;&#160;supportsERC165(account: address): bool</text>
<text text-anchor="start" x="1591.5837" y="-25.5" font-family="Times,serif" font-size="14.00" fill="#000000"> &#160;&#160;&#160;supportsInterface(account: address, interfaceId: bytes4): bool</text>
<text text-anchor="start" x="1591.5837" y="-8.7" font-family="Times,serif" font-size="14.00" fill="#000000"> &#160;&#160;&#160;supportsAllInterfaces(account: address, interfaceIds: bytes4[]): bool</text>
</g>
<!-- 12 -->
<g id="node13" class="node">
<title>12</title>
<polygon fill="#f2f2f2" stroke="#000000" points="2802.2849,-777.7 2802.2849,-969.7 3089.1079,-969.7 3089.1079,-777.7 2802.2849,-777.7"/>
<text text-anchor="middle" x="2945.6964" y="-953.1" font-family="Times,serif" font-size="14.00" fill="#000000">&lt;&lt;Abstract&gt;&gt;</text>
<text text-anchor="middle" x="2945.6964" y="-936.3" font-family="Times,serif" font-size="14.00" fill="#000000">ERC165</text>
<polyline fill="none" stroke="#000000" points="2802.2849,-928.1 3089.1079,-928.1 "/>
<text text-anchor="start" x="2810.2849" y="-911.5" font-family="Times,serif" font-size="14.00" fill="#000000">Private:</text>
<text text-anchor="start" x="2810.2849" y="-894.7" font-family="Times,serif" font-size="14.00" fill="#000000"> &#160;&#160;_INTERFACE_ID_ERC165: bytes4</text>
<text text-anchor="start" x="2810.2849" y="-877.9" font-family="Times,serif" font-size="14.00" fill="#000000"> &#160;&#160;_supportedInterfaces: mapping(bytes4=&gt;bool)</text>
<polyline fill="none" stroke="#000000" points="2802.2849,-869.7 3089.1079,-869.7 "/>
<text text-anchor="start" x="2810.2849" y="-853.1" font-family="Times,serif" font-size="14.00" fill="#000000">Internal:</text>
<text text-anchor="start" x="2810.2849" y="-836.3" font-family="Times,serif" font-size="14.00" fill="#000000"> &#160;&#160;&#160;_registerInterface(interfaceId: bytes4)</text>
<text text-anchor="start" x="2810.2849" y="-819.5" font-family="Times,serif" font-size="14.00" fill="#000000">Public:</text>
<text text-anchor="start" x="2810.2849" y="-802.7" font-family="Times,serif" font-size="14.00" fill="#000000"> &#160;&#160;&#160;constructor()</text>
<text text-anchor="start" x="2810.2849" y="-785.9" font-family="Times,serif" font-size="14.00" fill="#000000"> &#160;&#160;&#160;supportsInterface(interfaceId: bytes4): bool</text>
</g>
<!-- 12&#45;&gt;7 -->
<g id="edge12" class="edge">
<title>12&#45;&gt;7</title>
<path fill="none" stroke="#000000" stroke-dasharray="5,2" d="M2904.3402,-969.7754C2878.4629,-1020.4875 2840.8561,-1080.5023 2792.6964,-1121.4 2730.7755,-1173.9838 2648.9206,-1210.8682 2576.7832,-1235.6692"/>
<polygon fill="none" stroke="#000000" points="2573.348,-1225.7455 2548.1191,-1245.0783 2579.8975,-1245.698 2573.348,-1225.7455"/>
</g>
<!-- 13 -->
<g id="node14" class="node">
<title>13</title>
<polygon fill="#f2f2f2" stroke="#000000" points="1500.353,-263.1 1500.353,-589.5 2005.0398,-589.5 2005.0398,-263.1 1500.353,-263.1"/>
<text text-anchor="middle" x="1752.6964" y="-572.9" font-family="Times,serif" font-size="14.00" fill="#000000">ERC1363</text>
<polyline fill="none" stroke="#000000" points="1500.353,-564.7 2005.0398,-564.7 "/>
<text text-anchor="start" x="1508.353" y="-548.1" font-family="Times,serif" font-size="14.00" fill="#000000">Private:</text>
<text text-anchor="start" x="1508.353" y="-531.3" font-family="Times,serif" font-size="14.00" fill="#000000"> &#160;&#160;_ERC1363_RECEIVED: bytes4</text>
<text text-anchor="start" x="1508.353" y="-514.5" font-family="Times,serif" font-size="14.00" fill="#000000"> &#160;&#160;_ERC1363_APPROVED: bytes4</text>
<text text-anchor="start" x="1508.353" y="-497.7" font-family="Times,serif" font-size="14.00" fill="#000000">Internal:</text>
<text text-anchor="start" x="1508.353" y="-480.9" font-family="Times,serif" font-size="14.00" fill="#000000"> &#160;&#160;_INTERFACE_ID_ERC1363_TRANSFER: bytes4</text>
<text text-anchor="start" x="1508.353" y="-464.1" font-family="Times,serif" font-size="14.00" fill="#000000"> &#160;&#160;_INTERFACE_ID_ERC1363_APPROVE: bytes4</text>
<polyline fill="none" stroke="#000000" points="1500.353,-455.9 2005.0398,-455.9 "/>
<text text-anchor="start" x="1508.353" y="-439.3" font-family="Times,serif" font-size="14.00" fill="#000000">Internal:</text>
<text text-anchor="start" x="1508.353" y="-422.5" font-family="Times,serif" font-size="14.00" fill="#000000"> &#160;&#160;&#160;_checkAndCallTransfer(from: address, to: address, value: uint256, data: bytes): bool</text>
<text text-anchor="start" x="1508.353" y="-405.7" font-family="Times,serif" font-size="14.00" fill="#000000"> &#160;&#160;&#160;_checkAndCallApprove(spender: address, value: uint256, data: bytes): bool</text>
<text text-anchor="start" x="1508.353" y="-388.9" font-family="Times,serif" font-size="14.00" fill="#000000">Public:</text>
<text text-anchor="start" x="1508.353" y="-372.1" font-family="Times,serif" font-size="14.00" fill="#000000"> &#160;&#160;&#160;constructor(name: string, symbol: string)</text>
<text text-anchor="start" x="1508.353" y="-355.3" font-family="Times,serif" font-size="14.00" fill="#000000"> &#160;&#160;&#160;transferAndCall(to: address, value: uint256): bool</text>
<text text-anchor="start" x="1508.353" y="-338.5" font-family="Times,serif" font-size="14.00" fill="#000000"> &#160;&#160;&#160;transferAndCall(to: address, value: uint256, data: bytes): bool</text>
<text text-anchor="start" x="1508.353" y="-321.7" font-family="Times,serif" font-size="14.00" fill="#000000"> &#160;&#160;&#160;transferFromAndCall(from: address, to: address, value: uint256): bool</text>
<text text-anchor="start" x="1508.353" y="-304.9" font-family="Times,serif" font-size="14.00" fill="#000000"> &#160;&#160;&#160;transferFromAndCall(from: address, to: address, value: uint256, data: bytes): bool</text>
<text text-anchor="start" x="1508.353" y="-288.1" font-family="Times,serif" font-size="14.00" fill="#000000"> &#160;&#160;&#160;approveAndCall(spender: address, value: uint256): bool</text>
<text text-anchor="start" x="1508.353" y="-271.3" font-family="Times,serif" font-size="14.00" fill="#000000"> &#160;&#160;&#160;approveAndCall(spender: address, value: uint256, data: bytes): bool</text>
</g>
<!-- 13&#45;&gt;3 -->
<g id="edge16" class="edge">
<title>13&#45;&gt;3</title>
<path fill="none" stroke="#000000" stroke-dasharray="5,2" d="M1500.34,-586.6577C1497.4575,-587.8044 1494.5758,-588.9192 1491.6964,-590 1396.4724,-625.7419 1337.4101,-553.8735 1265.6964,-626 1108.6385,-783.9621 1307.6284,-932.4258 1189.6964,-1121.4 1181.3335,-1134.8008 1171.3679,-1147.3627 1160.3503,-1159.08"/>
<polygon fill="#000000" stroke="#000000" points="1157.8234,-1156.658 1153.3591,-1166.2664 1162.8409,-1161.5391 1157.8234,-1156.658"/>
</g>
<!-- 13&#45;&gt;4 -->
<g id="edge13" class="edge">
<title>13&#45;&gt;4</title>
<path fill="none" stroke="#000000" d="M1500.0181,-586.9553C1497.2438,-588.0023 1494.4694,-589.0178 1491.6964,-590 1375.2949,-631.2283 1321.2176,-575.0541 1207.5472,-621.2737"/>
<polygon fill="none" stroke="#000000" points="1203.1337,-611.7462 1180.2622,-633.8177 1211.9056,-630.8264 1203.1337,-611.7462"/>
</g>
<!-- 13&#45;&gt;8 -->
<g id="edge14" class="edge">
<title>13&#45;&gt;8</title>
<path fill="none" stroke="#000000" stroke-dasharray="5,2" d="M1668.3195,-589.7208C1640.807,-643.0071 1610.7484,-701.2245 1585.0493,-750.9983"/>
<polygon fill="none" stroke="#000000" points="1575.6979,-746.2231 1571.2644,-777.6968 1594.3575,-755.8574 1575.6979,-746.2231"/>
</g>
<!-- 13&#45;&gt;9 -->
<g id="edge17" class="edge">
<title>13&#45;&gt;9</title>
<path fill="none" stroke="#000000" stroke-dasharray="5,2" d="M1862.642,-589.7208C1914.3974,-666.6489 1973.0672,-753.8545 2011.5767,-811.0942"/>
<polygon fill="#000000" stroke="#000000" points="2008.8582,-813.3237 2017.3443,-819.667 2014.6662,-809.4162 2008.8582,-813.3237"/>
</g>
<!-- 13&#45;&gt;10 -->
<g id="edge18" class="edge">
<title>13&#45;&gt;10</title>
<path fill="none" stroke="#000000" stroke-dasharray="5,2" d="M2005.1319,-484.8113C2110.7774,-516.4131 2231.5514,-562.3061 2329.6964,-626 2406.2463,-675.6792 2475.09,-755.9131 2517.532,-811.5454"/>
<polygon fill="#000000" stroke="#000000" points="2514.7763,-813.7041 2523.6002,-819.5684 2520.3593,-809.4814 2514.7763,-813.7041"/>
</g>
<!-- 13&#45;&gt;12 -->
<g id="edge15" class="edge">
<title>13&#45;&gt;12</title>
<path fill="none" stroke="#000000" d="M2005.2641,-451.3219C2270.9783,-481.7011 2667.6764,-539.8081 2792.6964,-626 2837.1197,-656.6265 2871.0987,-704.7817 2895.6193,-750.5215"/>
<polygon fill="none" stroke="#000000" points="2886.2781,-755.3174 2909.1462,-777.3923 2905.0355,-745.8748 2886.2781,-755.3174"/>
</g>
<!-- 14 -->
<g id="node15" class="node">
<title>14</title>
<polygon fill="#f2f2f2" stroke="#000000" points="242.2594,-769.3 242.2594,-978.1 727.1334,-978.1 727.1334,-769.3 242.2594,-769.3"/>
<text text-anchor="middle" x="484.6964" y="-961.5" font-family="Times,serif" font-size="14.00" fill="#000000">&lt;&lt;Abstract&gt;&gt;</text>
<text text-anchor="middle" x="484.6964" y="-944.7" font-family="Times,serif" font-size="14.00" fill="#000000">Ownable</text>
<polyline fill="none" stroke="#000000" points="242.2594,-936.5 727.1334,-936.5 "/>
<text text-anchor="start" x="250.2594" y="-919.9" font-family="Times,serif" font-size="14.00" fill="#000000">Private:</text>
<text text-anchor="start" x="250.2594" y="-903.1" font-family="Times,serif" font-size="14.00" fill="#000000"> &#160;&#160;_owner: address</text>
<polyline fill="none" stroke="#000000" points="242.2594,-894.9 727.1334,-894.9 "/>
<text text-anchor="start" x="250.2594" y="-878.3" font-family="Times,serif" font-size="14.00" fill="#000000">Public:</text>
<text text-anchor="start" x="250.2594" y="-861.5" font-family="Times,serif" font-size="14.00" fill="#000000"> &#160;&#160;&#160;&lt;&lt;event&gt;&gt; OwnershipTransferred(previousOwner: address, newOwner: address)</text>
<text text-anchor="start" x="250.2594" y="-844.7" font-family="Times,serif" font-size="14.00" fill="#000000"> &#160;&#160;&#160;&lt;&lt;modifier&gt;&gt; onlyOwner()</text>
<text text-anchor="start" x="250.2594" y="-827.9" font-family="Times,serif" font-size="14.00" fill="#000000"> &#160;&#160;&#160;constructor()</text>
<text text-anchor="start" x="250.2594" y="-811.1" font-family="Times,serif" font-size="14.00" fill="#000000"> &#160;&#160;&#160;owner(): address</text>
<text text-anchor="start" x="250.2594" y="-794.3" font-family="Times,serif" font-size="14.00" fill="#000000"> &#160;&#160;&#160;renounceOwnership()</text>
<text text-anchor="start" x="250.2594" y="-777.5" font-family="Times,serif" font-size="14.00" fill="#000000"> &#160;&#160;&#160;transferOwnership(newOwner: address)</text>
</g>
<!-- 14&#45;&gt;0 -->
<g id="edge19" class="edge">
<title>14&#45;&gt;0</title>
<path fill="none" stroke="#000000" d="M484.6964,-978.1006C484.6964,-1042.4771 484.6964,-1124.3078 484.6964,-1186.3921"/>
<polygon fill="none" stroke="#000000" points="474.1965,-1186.4247 484.6964,-1216.4248 495.1965,-1186.4248 474.1965,-1186.4247"/>
</g>
<!-- 15 -->
<g id="node16" class="node">
<title>15</title>
<polygon fill="#f2f2f2" stroke="#000000" points="1099.1851,-380.7 1099.1851,-471.9 1482.2077,-471.9 1482.2077,-380.7 1099.1851,-380.7"/>
<text text-anchor="middle" x="1290.6964" y="-455.3" font-family="Times,serif" font-size="14.00" fill="#000000">TokenRecover</text>
<polyline fill="none" stroke="#000000" points="1099.1851,-447.1 1482.2077,-447.1 "/>
<text text-anchor="middle" x="1290.6964" y="-430.5" font-family="Times,serif" font-size="14.00" fill="#000000"> </text>
<polyline fill="none" stroke="#000000" points="1099.1851,-422.3 1482.2077,-422.3 "/>
<text text-anchor="start" x="1107.1851" y="-405.7" font-family="Times,serif" font-size="14.00" fill="#000000">Public:</text>
<text text-anchor="start" x="1107.1851" y="-388.9" font-family="Times,serif" font-size="14.00" fill="#000000"> &#160;&#160;&#160;recoverERC20(tokenAddress: address, tokenAmount: uint256)</text>
</g>
<!-- 15&#45;&gt;1 -->
<g id="edge21" class="edge">
<title>15&#45;&gt;1</title>
<path fill="none" stroke="#000000" stroke-dasharray="5,2" d="M1274.2985,-472.0347C1235.4918,-588.5427 1149.6534,-902.7358 1265.6964,-1121.4 1271.0093,-1131.4113 1277.2732,-1140.9033 1284.2721,-1149.888"/>
<polygon fill="#000000" stroke="#000000" points="1281.5733,-1152.1167 1290.6065,-1157.6533 1286.9976,-1147.692 1281.5733,-1152.1167"/>
</g>
<!-- 15&#45;&gt;14 -->
<g id="edge20" class="edge">
<title>15&#45;&gt;14</title>
<path fill="none" stroke="#000000" d="M1249.7954,-472.0668C1212.301,-510.6866 1153.1118,-563.7538 1089.6964,-590 943.5723,-650.4774 878.7739,-558.6308 735.6964,-626 677.0435,-653.6172 623.9675,-700.7681 581.89,-746.5676"/>
<polygon fill="none" stroke="#000000" points="573.8684,-739.788 561.8365,-769.2071 589.5883,-753.7123 573.8684,-739.788"/>
</g>
<!-- 16 -->
<g id="node17" class="node">
<title>16</title>
<polygon fill="#f2f2f2" stroke="#000000" points="1163.4593,-8.9 1163.4593,-217.7 1565.9335,-217.7 1565.9335,-8.9 1163.4593,-8.9"/>
<text text-anchor="middle" x="1364.6964" y="-201.1" font-family="Times,serif" font-size="14.00" fill="#000000">ServiceReceiver</text>
<polyline fill="none" stroke="#000000" points="1163.4593,-192.9 1565.9335,-192.9 "/>
<text text-anchor="start" x="1171.4593" y="-176.3" font-family="Times,serif" font-size="14.00" fill="#000000">Private:</text>
<text text-anchor="start" x="1171.4593" y="-159.5" font-family="Times,serif" font-size="14.00" fill="#000000"> &#160;&#160;_prices: mapping(bytes32=&gt;uint256)</text>
<polyline fill="none" stroke="#000000" points="1163.4593,-151.3 1565.9335,-151.3 "/>
<text text-anchor="start" x="1171.4593" y="-134.7" font-family="Times,serif" font-size="14.00" fill="#000000">Private:</text>
<text text-anchor="start" x="1171.4593" y="-117.9" font-family="Times,serif" font-size="14.00" fill="#000000"> &#160;&#160;&#160;_toBytes32(serviceName: string): bytes32</text>
<text text-anchor="start" x="1171.4593" y="-101.1" font-family="Times,serif" font-size="14.00" fill="#000000">Public:</text>
<text text-anchor="start" x="1171.4593" y="-84.3" font-family="Times,serif" font-size="14.00" fill="#000000"> &#160;&#160;&#160;&lt;&lt;payable&gt;&gt; pay(serviceName: string)</text>
<text text-anchor="start" x="1171.4593" y="-67.5" font-family="Times,serif" font-size="14.00" fill="#000000"> &#160;&#160;&#160;&lt;&lt;event&gt;&gt; Created(serviceName: string, serviceAddress: address)</text>
<text text-anchor="start" x="1171.4593" y="-50.7" font-family="Times,serif" font-size="14.00" fill="#000000"> &#160;&#160;&#160;getPrice(serviceName: string): uint256</text>
<text text-anchor="start" x="1171.4593" y="-33.9" font-family="Times,serif" font-size="14.00" fill="#000000"> &#160;&#160;&#160;setPrice(serviceName: string, amount: uint256)</text>
<text text-anchor="start" x="1171.4593" y="-17.1" font-family="Times,serif" font-size="14.00" fill="#000000"> &#160;&#160;&#160;withdraw(amount: uint256)</text>
</g>
<!-- 16&#45;&gt;15 -->
<g id="edge22" class="edge">
<title>16&#45;&gt;15</title>
<path fill="none" stroke="#000000" d="M1339.9526,-217.9596C1329.6496,-261.5386 1317.9172,-311.1634 1308.4879,-351.0469"/>
<polygon fill="none" stroke="#000000" points="1298.2495,-348.7163 1301.5654,-380.3273 1318.6861,-353.548 1298.2495,-348.7163"/>
</g>
<!-- 17 -->
<g id="node18" class="node">
<title>17</title>
<polygon fill="#f2f2f2" stroke="#000000" points="338.6563,-380.7 338.6563,-471.9 654.7365,-471.9 654.7365,-380.7 338.6563,-380.7"/>
<text text-anchor="middle" x="496.6964" y="-455.3" font-family="Times,serif" font-size="14.00" fill="#000000">ServicePayer</text>
<polyline fill="none" stroke="#000000" points="338.6563,-447.1 654.7365,-447.1 "/>
<text text-anchor="middle" x="496.6964" y="-430.5" font-family="Times,serif" font-size="14.00" fill="#000000"> </text>
<polyline fill="none" stroke="#000000" points="338.6563,-422.3 654.7365,-422.3 "/>
<text text-anchor="start" x="346.6563" y="-405.7" font-family="Times,serif" font-size="14.00" fill="#000000">Public:</text>
<text text-anchor="start" x="346.6563" y="-388.9" font-family="Times,serif" font-size="14.00" fill="#000000"> &#160;&#160;&#160;constructor(receiver: address, serviceName: string)</text>
</g>
<!-- 18 -->
<g id="node19" class="node">
<title>18</title>
<polygon fill="#f2f2f2" stroke="#000000" points="458.1661,-.5 458.1661,-226.1 1145.2267,-226.1 1145.2267,-.5 458.1661,-.5"/>
<text text-anchor="middle" x="801.6964" y="-209.5" font-family="Times,serif" font-size="14.00" fill="#000000">PowerfulERC20</text>
<polyline fill="none" stroke="#000000" points="458.1661,-201.3 1145.2267,-201.3 "/>
<text text-anchor="start" x="466.1661" y="-184.7" font-family="Times,serif" font-size="14.00" fill="#000000">Private:</text>
<text text-anchor="start" x="466.1661" y="-167.9" font-family="Times,serif" font-size="14.00" fill="#000000"> &#160;&#160;_mintingFinished: bool</text>
<polyline fill="none" stroke="#000000" points="458.1661,-159.7 1145.2267,-159.7 "/>
<text text-anchor="start" x="466.1661" y="-143.1" font-family="Times,serif" font-size="14.00" fill="#000000">Internal:</text>
<text text-anchor="start" x="466.1661" y="-126.3" font-family="Times,serif" font-size="14.00" fill="#000000"> &#160;&#160;&#160;_beforeTokenTransfer(from: address, to: address, amount: uint256)</text>
<text text-anchor="start" x="466.1661" y="-109.5" font-family="Times,serif" font-size="14.00" fill="#000000">Public:</text>
<text text-anchor="start" x="466.1661" y="-92.7" font-family="Times,serif" font-size="14.00" fill="#000000"> &#160;&#160;&#160;&lt;&lt;event&gt;&gt; MintFinished()</text>
<text text-anchor="start" x="466.1661" y="-75.9" font-family="Times,serif" font-size="14.00" fill="#000000"> &#160;&#160;&#160;&lt;&lt;modifier&gt;&gt; canMint()</text>
<text text-anchor="start" x="466.1661" y="-59.1" font-family="Times,serif" font-size="14.00" fill="#000000"> &#160;&#160;&#160;constructor(name: string, symbol: string, decimals: uint8, cap: uint256, initialBalance: uint256, feeReceiver: address)</text>
<text text-anchor="start" x="466.1661" y="-42.3" font-family="Times,serif" font-size="14.00" fill="#000000"> &#160;&#160;&#160;mintingFinished(): bool</text>
<text text-anchor="start" x="466.1661" y="-25.5" font-family="Times,serif" font-size="14.00" fill="#000000"> &#160;&#160;&#160;mint(to: address, value: uint256)</text>
<text text-anchor="start" x="466.1661" y="-8.7" font-family="Times,serif" font-size="14.00" fill="#000000"> &#160;&#160;&#160;finishMinting()</text>
</g>
<!-- 18&#45;&gt;5 -->
<g id="edge24" class="edge">
<title>18&#45;&gt;5</title>
<path fill="none" stroke="#000000" d="M458.0886,-198.8552C413.2521,-216.5894 369.2226,-237.6666 329.6964,-262.6 297.0518,-283.1924 266.7289,-312.4126 241.8318,-340.4794"/>
<polygon fill="none" stroke="#000000" points="233.6487,-333.8947 222.2625,-363.5696 249.6691,-347.4722 233.6487,-333.8947"/>
</g>
<!-- 18&#45;&gt;6 -->
<g id="edge23" class="edge">
<title>18&#45;&gt;6</title>
<path fill="none" stroke="#000000" d="M828.7731,-226.3002C835.2402,-253.2893 842.1565,-282.1534 848.6655,-309.3177"/>
<polygon fill="none" stroke="#000000" points="838.4597,-311.7862 855.6613,-338.5136 858.8816,-306.8927 838.4597,-311.7862"/>
</g>
<!-- 18&#45;&gt;13 -->
<g id="edge25" class="edge">
<title>18&#45;&gt;13</title>
<path fill="none" stroke="#000000" d="M1145.693,-224.6557C1148.7037,-225.3188 1151.7053,-225.9672 1154.6964,-226.6 1292.278,-255.7086 1342.6337,-218.8905 1471.3275,-256.4043"/>
<polygon fill="none" stroke="#000000" points="1468.2651,-266.4488 1500.0379,-265.5881 1474.6632,-246.4472 1468.2651,-266.4488"/>
</g>
<!-- 18&#45;&gt;15 -->
<g id="edge26" class="edge">
<title>18&#45;&gt;15</title>
<path fill="none" stroke="#000000" d="M1030.197,-226.1826C1050.635,-237.9422 1070.7459,-250.1607 1089.6964,-262.6 1134.2932,-291.8739 1180.6843,-329.1349 1217.6467,-360.7105"/>
<polygon fill="none" stroke="#000000" points="1210.918,-368.7736 1240.4611,-380.498 1224.6775,-352.9093 1210.918,-368.7736"/>
</g>
<!-- 18&#45;&gt;17 -->
<g id="edge27" class="edge">
<title>18&#45;&gt;17</title>
<path fill="none" stroke="#000000" d="M691.5844,-226.3002C648.3239,-270.6954 600.1198,-320.1638 562.4757,-358.7953"/>
<polygon fill="none" stroke="#000000" points="554.7894,-351.638 541.3727,-380.4519 569.8296,-366.2938 554.7894,-351.638"/>
</g>
</g>
</svg>
