<?xml version="1.0" encoding="UTF-8" standalone="no"?>
<!DOCTYPE svg PUBLIC "-//W3C//DTD SVG 1.1//EN"
 "http://www.w3.org/Graphics/SVG/1.1/DTD/svg11.dtd">
<!-- Generated by graphviz version 2.40.1 (20161225.0304)
 -->
<!-- Title: UmlClassDiagram Pages: 1 -->
<svg width="2274pt" height="1493pt"
 viewBox="0.00 0.00 2273.50 1492.80" xmlns="http://www.w3.org/2000/svg" xmlns:xlink="http://www.w3.org/1999/xlink">
<g id="graph0" class="graph" transform="scale(1 1) rotate(0) translate(4 1488.8)">
<title>UmlClassDiagram</title>
<polygon fill="#ffffff" stroke="transparent" points="-4,4 -4,-1488.8 2269.5048,-1488.8 2269.5048,4 -4,4"/>
<!-- 0 -->
<g id="node1" class="node">
<title>0</title>
<polygon fill="#f2f2f2" stroke="#000000" points="941.5454,-1199.9 941.5454,-1324.7 1159.69,-1324.7 1159.69,-1199.9 941.5454,-1199.9"/>
<text text-anchor="middle" x="1050.6177" y="-1308.1" font-family="Times,serif" font-size="14.00" fill="#000000">&lt;&lt;Abstract&gt;&gt;</text>
<text text-anchor="middle" x="1050.6177" y="-1291.3" font-family="Times,serif" font-size="14.00" fill="#000000">Context</text>
<polyline fill="none" stroke="#000000" points="941.5454,-1283.1 1159.69,-1283.1 "/>
<text text-anchor="middle" x="1050.6177" y="-1266.5" font-family="Times,serif" font-size="14.00" fill="#000000"> </text>
<polyline fill="none" stroke="#000000" points="941.5454,-1258.3 1159.69,-1258.3 "/>
<text text-anchor="start" x="949.5454" y="-1241.7" font-family="Times,serif" font-size="14.00" fill="#000000">Internal:</text>
<text text-anchor="start" x="949.5454" y="-1224.9" font-family="Times,serif" font-size="14.00" fill="#000000"> &#160;&#160;&#160;_msgSender(): (payable: address)</text>
<text text-anchor="start" x="949.5454" y="-1208.1" font-family="Times,serif" font-size="14.00" fill="#000000"> &#160;&#160;&#160;_msgData(): bytes</text>
</g>
<!-- 1 -->
<g id="node2" class="node">
<title>1</title>
<polygon fill="#f2f2f2" stroke="#000000" points="46.1807,-651.7 46.1807,-860.5 531.0547,-860.5 531.0547,-651.7 46.1807,-651.7"/>
<text text-anchor="middle" x="288.6177" y="-843.9" font-family="Times,serif" font-size="14.00" fill="#000000">&lt;&lt;Abstract&gt;&gt;</text>
<text text-anchor="middle" x="288.6177" y="-827.1" font-family="Times,serif" font-size="14.00" fill="#000000">Ownable</text>
<polyline fill="none" stroke="#000000" points="46.1807,-818.9 531.0547,-818.9 "/>
<text text-anchor="start" x="54.1807" y="-802.3" font-family="Times,serif" font-size="14.00" fill="#000000">Private:</text>
<text text-anchor="start" x="54.1807" y="-785.5" font-family="Times,serif" font-size="14.00" fill="#000000"> &#160;&#160;_owner: address</text>
<polyline fill="none" stroke="#000000" points="46.1807,-777.3 531.0547,-777.3 "/>
<text text-anchor="start" x="54.1807" y="-760.7" font-family="Times,serif" font-size="14.00" fill="#000000">Public:</text>
<text text-anchor="start" x="54.1807" y="-743.9" font-family="Times,serif" font-size="14.00" fill="#000000"> &#160;&#160;&#160;&lt;&lt;event&gt;&gt; OwnershipTransferred(previousOwner: address, newOwner: address)</text>
<text text-anchor="start" x="54.1807" y="-727.1" font-family="Times,serif" font-size="14.00" fill="#000000"> &#160;&#160;&#160;&lt;&lt;modifier&gt;&gt; onlyOwner()</text>
<text text-anchor="start" x="54.1807" y="-710.3" font-family="Times,serif" font-size="14.00" fill="#000000"> &#160;&#160;&#160;constructor()</text>
<text text-anchor="start" x="54.1807" y="-693.5" font-family="Times,serif" font-size="14.00" fill="#000000"> &#160;&#160;&#160;owner(): address</text>
<text text-anchor="start" x="54.1807" y="-676.7" font-family="Times,serif" font-size="14.00" fill="#000000"> &#160;&#160;&#160;renounceOwnership()</text>
<text text-anchor="start" x="54.1807" y="-659.9" font-family="Times,serif" font-size="14.00" fill="#000000"> &#160;&#160;&#160;transferOwnership(newOwner: address)</text>
</g>
<!-- 1&#45;&gt;0 -->
<g id="edge6" class="edge">
<title>1&#45;&gt;0</title>
<path fill="none" stroke="#000000" d="M365.3584,-860.5505C409.9792,-912.927 470.9126,-971.8683 539.6177,-1003.8 619.1469,-1040.7624 859.6117,-991.2075 932.6177,-1039.8 978.1765,-1070.1238 1007.3933,-1123.9837 1025.3573,-1171.1161"/>
<polygon fill="none" stroke="#000000" points="1015.513,-1174.7764 1035.2493,-1199.6909 1035.3576,-1167.9066 1015.513,-1174.7764"/>
</g>
<!-- 2 -->
<g id="node3" class="node">
<title>2</title>
<polygon fill="#f2f2f2" stroke="#000000" points="109.3178,-1141.1 109.3178,-1383.5 547.9176,-1383.5 547.9176,-1141.1 109.3178,-1141.1"/>
<text text-anchor="middle" x="328.6177" y="-1366.9" font-family="Times,serif" font-size="14.00" fill="#000000">&lt;&lt;Interface&gt;&gt;</text>
<text text-anchor="middle" x="328.6177" y="-1350.1" font-family="Times,serif" font-size="14.00" fill="#000000">IERC20</text>
<polyline fill="none" stroke="#000000" points="109.3178,-1341.9 547.9176,-1341.9 "/>
<text text-anchor="middle" x="328.6177" y="-1325.3" font-family="Times,serif" font-size="14.00" fill="#000000"> </text>
<polyline fill="none" stroke="#000000" points="109.3178,-1317.1 547.9176,-1317.1 "/>
<text text-anchor="start" x="117.3178" y="-1300.5" font-family="Times,serif" font-size="14.00" fill="#000000">External:</text>
<text text-anchor="start" x="117.3178" y="-1283.7" font-family="Times,serif" font-size="14.00" fill="#000000"> &#160;&#160;&#160;&#160;totalSupply(): uint256</text>
<text text-anchor="start" x="117.3178" y="-1266.9" font-family="Times,serif" font-size="14.00" fill="#000000"> &#160;&#160;&#160;&#160;balanceOf(account: address): uint256</text>
<text text-anchor="start" x="117.3178" y="-1250.1" font-family="Times,serif" font-size="14.00" fill="#000000"> &#160;&#160;&#160;&#160;transfer(recipient: address, amount: uint256): bool</text>
<text text-anchor="start" x="117.3178" y="-1233.3" font-family="Times,serif" font-size="14.00" fill="#000000"> &#160;&#160;&#160;&#160;allowance(owner: address, spender: address): uint256</text>
<text text-anchor="start" x="117.3178" y="-1216.5" font-family="Times,serif" font-size="14.00" fill="#000000"> &#160;&#160;&#160;&#160;approve(spender: address, amount: uint256): bool</text>
<text text-anchor="start" x="117.3178" y="-1199.7" font-family="Times,serif" font-size="14.00" fill="#000000"> &#160;&#160;&#160;&#160;transferFrom(sender: address, recipient: address, amount: uint256): bool</text>
<text text-anchor="start" x="117.3178" y="-1182.9" font-family="Times,serif" font-size="14.00" fill="#000000">Public:</text>
<text text-anchor="start" x="117.3178" y="-1166.1" font-family="Times,serif" font-size="14.00" fill="#000000"> &#160;&#160;&#160;&lt;&lt;event&gt;&gt; Transfer(from: address, to: address, value: uint256)</text>
<text text-anchor="start" x="117.3178" y="-1149.3" font-family="Times,serif" font-size="14.00" fill="#000000"> &#160;&#160;&#160;&lt;&lt;event&gt;&gt; Approval(owner: address, spender: address, value: uint256)</text>
</g>
<!-- 3 -->
<g id="node4" class="node">
<title>3</title>
<polygon fill="#f2f2f2" stroke="#000000" points="565.9213,-1149.5 565.9213,-1375.1 923.3141,-1375.1 923.3141,-1149.5 565.9213,-1149.5"/>
<text text-anchor="middle" x="744.6177" y="-1358.5" font-family="Times,serif" font-size="14.00" fill="#000000">&lt;&lt;Library&gt;&gt;</text>
<text text-anchor="middle" x="744.6177" y="-1341.7" font-family="Times,serif" font-size="14.00" fill="#000000">SafeMath</text>
<polyline fill="none" stroke="#000000" points="565.9213,-1333.5 923.3141,-1333.5 "/>
<text text-anchor="middle" x="744.6177" y="-1316.9" font-family="Times,serif" font-size="14.00" fill="#000000"> </text>
<polyline fill="none" stroke="#000000" points="565.9213,-1308.7 923.3141,-1308.7 "/>
<text text-anchor="start" x="573.9213" y="-1292.1" font-family="Times,serif" font-size="14.00" fill="#000000">Internal:</text>
<text text-anchor="start" x="573.9213" y="-1275.3" font-family="Times,serif" font-size="14.00" fill="#000000"> &#160;&#160;&#160;add(a: uint256, b: uint256): uint256</text>
<text text-anchor="start" x="573.9213" y="-1258.5" font-family="Times,serif" font-size="14.00" fill="#000000"> &#160;&#160;&#160;sub(a: uint256, b: uint256): uint256</text>
<text text-anchor="start" x="573.9213" y="-1241.7" font-family="Times,serif" font-size="14.00" fill="#000000"> &#160;&#160;&#160;sub(a: uint256, b: uint256, errorMessage: string): uint256</text>
<text text-anchor="start" x="573.9213" y="-1224.9" font-family="Times,serif" font-size="14.00" fill="#000000"> &#160;&#160;&#160;mul(a: uint256, b: uint256): uint256</text>
<text text-anchor="start" x="573.9213" y="-1208.1" font-family="Times,serif" font-size="14.00" fill="#000000"> &#160;&#160;&#160;div(a: uint256, b: uint256): uint256</text>
<text text-anchor="start" x="573.9213" y="-1191.3" font-family="Times,serif" font-size="14.00" fill="#000000"> &#160;&#160;&#160;div(a: uint256, b: uint256, errorMessage: string): uint256</text>
<text text-anchor="start" x="573.9213" y="-1174.5" font-family="Times,serif" font-size="14.00" fill="#000000"> &#160;&#160;&#160;mod(a: uint256, b: uint256): uint256</text>
<text text-anchor="start" x="573.9213" y="-1157.7" font-family="Times,serif" font-size="14.00" fill="#000000"> &#160;&#160;&#160;mod(a: uint256, b: uint256, errorMessage: string): uint256</text>
</g>
<!-- 4 -->
<g id="node5" class="node">
<title>4</title>
<polygon fill="#f2f2f2" stroke="#000000" points="549.0678,-508.9 549.0678,-1003.3 984.1676,-1003.3 984.1676,-508.9 549.0678,-508.9"/>
<text text-anchor="middle" x="766.6177" y="-986.7" font-family="Times,serif" font-size="14.00" fill="#000000">ERC20</text>
<polyline fill="none" stroke="#000000" points="549.0678,-978.5 984.1676,-978.5 "/>
<text text-anchor="start" x="557.0678" y="-961.9" font-family="Times,serif" font-size="14.00" fill="#000000">Private:</text>
<text text-anchor="start" x="557.0678" y="-945.1" font-family="Times,serif" font-size="14.00" fill="#000000"> &#160;&#160;_balances: mapping(address=&gt;uint256)</text>
<text text-anchor="start" x="557.0678" y="-928.3" font-family="Times,serif" font-size="14.00" fill="#000000"> &#160;&#160;_allowances: mapping(address=&gt;mapping(address=&gt;uint256))</text>
<text text-anchor="start" x="557.0678" y="-911.5" font-family="Times,serif" font-size="14.00" fill="#000000"> &#160;&#160;_totalSupply: uint256</text>
<text text-anchor="start" x="557.0678" y="-894.7" font-family="Times,serif" font-size="14.00" fill="#000000"> &#160;&#160;_name: string</text>
<text text-anchor="start" x="557.0678" y="-877.9" font-family="Times,serif" font-size="14.00" fill="#000000"> &#160;&#160;_symbol: string</text>
<text text-anchor="start" x="557.0678" y="-861.1" font-family="Times,serif" font-size="14.00" fill="#000000"> &#160;&#160;_decimals: uint8</text>
<polyline fill="none" stroke="#000000" points="549.0678,-852.9 984.1676,-852.9 "/>
<text text-anchor="start" x="557.0678" y="-836.3" font-family="Times,serif" font-size="14.00" fill="#000000">Internal:</text>
<text text-anchor="start" x="557.0678" y="-819.5" font-family="Times,serif" font-size="14.00" fill="#000000"> &#160;&#160;&#160;_transfer(sender: address, recipient: address, amount: uint256)</text>
<text text-anchor="start" x="557.0678" y="-802.7" font-family="Times,serif" font-size="14.00" fill="#000000"> &#160;&#160;&#160;_mint(account: address, amount: uint256)</text>
<text text-anchor="start" x="557.0678" y="-785.9" font-family="Times,serif" font-size="14.00" fill="#000000"> &#160;&#160;&#160;_burn(account: address, amount: uint256)</text>
<text text-anchor="start" x="557.0678" y="-769.1" font-family="Times,serif" font-size="14.00" fill="#000000"> &#160;&#160;&#160;_approve(owner: address, spender: address, amount: uint256)</text>
<text text-anchor="start" x="557.0678" y="-752.3" font-family="Times,serif" font-size="14.00" fill="#000000"> &#160;&#160;&#160;_setupDecimals(decimals_: uint8)</text>
<text text-anchor="start" x="557.0678" y="-735.5" font-family="Times,serif" font-size="14.00" fill="#000000"> &#160;&#160;&#160;_beforeTokenTransfer(from: address, to: address, amount: uint256)</text>
<text text-anchor="start" x="557.0678" y="-718.7" font-family="Times,serif" font-size="14.00" fill="#000000">Public:</text>
<text text-anchor="start" x="557.0678" y="-701.9" font-family="Times,serif" font-size="14.00" fill="#000000"> &#160;&#160;&#160;constructor(name_: string, symbol_: string)</text>
<text text-anchor="start" x="557.0678" y="-685.1" font-family="Times,serif" font-size="14.00" fill="#000000"> &#160;&#160;&#160;name(): string</text>
<text text-anchor="start" x="557.0678" y="-668.3" font-family="Times,serif" font-size="14.00" fill="#000000"> &#160;&#160;&#160;symbol(): string</text>
<text text-anchor="start" x="557.0678" y="-651.5" font-family="Times,serif" font-size="14.00" fill="#000000"> &#160;&#160;&#160;decimals(): uint8</text>
<text text-anchor="start" x="557.0678" y="-634.7" font-family="Times,serif" font-size="14.00" fill="#000000"> &#160;&#160;&#160;totalSupply(): uint256</text>
<text text-anchor="start" x="557.0678" y="-617.9" font-family="Times,serif" font-size="14.00" fill="#000000"> &#160;&#160;&#160;balanceOf(account: address): uint256</text>
<text text-anchor="start" x="557.0678" y="-601.1" font-family="Times,serif" font-size="14.00" fill="#000000"> &#160;&#160;&#160;transfer(recipient: address, amount: uint256): bool</text>
<text text-anchor="start" x="557.0678" y="-584.3" font-family="Times,serif" font-size="14.00" fill="#000000"> &#160;&#160;&#160;allowance(owner: address, spender: address): uint256</text>
<text text-anchor="start" x="557.0678" y="-567.5" font-family="Times,serif" font-size="14.00" fill="#000000"> &#160;&#160;&#160;approve(spender: address, amount: uint256): bool</text>
<text text-anchor="start" x="557.0678" y="-550.7" font-family="Times,serif" font-size="14.00" fill="#000000"> &#160;&#160;&#160;transferFrom(sender: address, recipient: address, amount: uint256): bool</text>
<text text-anchor="start" x="557.0678" y="-533.9" font-family="Times,serif" font-size="14.00" fill="#000000"> &#160;&#160;&#160;increaseAllowance(spender: address, addedValue: uint256): bool</text>
<text text-anchor="start" x="557.0678" y="-517.1" font-family="Times,serif" font-size="14.00" fill="#000000"> &#160;&#160;&#160;decreaseAllowance(spender: address, subtractedValue: uint256): bool</text>
</g>
<!-- 4&#45;&gt;0 -->
<g id="edge7" class="edge">
<title>4&#45;&gt;0</title>
<path fill="none" stroke="#000000" d="M912.0847,-1003.3125C919.0726,-1015.624 925.9495,-1027.8372 932.6177,-1039.8 956.8336,-1083.2434 982.8267,-1132.0091 1004.2367,-1172.79"/>
<polygon fill="none" stroke="#000000" points="995.0417,-1177.8653 1018.2486,-1199.5837 1013.6507,-1168.1336 995.0417,-1177.8653"/>
</g>
<!-- 4&#45;&gt;2 -->
<g id="edge8" class="edge">
<title>4&#45;&gt;2</title>
<path fill="none" stroke="#000000" stroke-dasharray="5,2" d="M552.4293,-1003.6391C518.4454,-1042.9146 484.3069,-1082.3687 453.2893,-1118.216"/>
<polygon fill="none" stroke="#000000" points="445.3359,-1111.3608 433.6463,-1140.9176 461.2163,-1125.1017 445.3359,-1111.3608"/>
</g>
<!-- 4&#45;&gt;3 -->
<g id="edge9" class="edge">
<title>4&#45;&gt;3</title>
<path fill="none" stroke="#000000" stroke-dasharray="5,2" d="M755.8593,-1003.6391C753.8107,-1050.777 751.7508,-1098.1722 749.9642,-1139.2804"/>
<polygon fill="#000000" stroke="#000000" points="746.4656,-1139.1743 749.528,-1149.3169 753.459,-1139.4783 746.4656,-1139.1743"/>
</g>
<!-- 5 -->
<g id="node6" class="node">
<title>5</title>
<polygon fill="#f2f2f2" stroke="#000000" points="868.9241,-296.7 868.9241,-421.5 1156.3113,-421.5 1156.3113,-296.7 868.9241,-296.7"/>
<text text-anchor="middle" x="1012.6177" y="-404.9" font-family="Times,serif" font-size="14.00" fill="#000000">&lt;&lt;Abstract&gt;&gt;</text>
<text text-anchor="middle" x="1012.6177" y="-388.1" font-family="Times,serif" font-size="14.00" fill="#000000">ERC20Burnable</text>
<polyline fill="none" stroke="#000000" points="868.9241,-379.9 1156.3113,-379.9 "/>
<text text-anchor="middle" x="1012.6177" y="-363.3" font-family="Times,serif" font-size="14.00" fill="#000000"> </text>
<polyline fill="none" stroke="#000000" points="868.9241,-355.1 1156.3113,-355.1 "/>
<text text-anchor="start" x="876.9241" y="-338.5" font-family="Times,serif" font-size="14.00" fill="#000000">Public:</text>
<text text-anchor="start" x="876.9241" y="-321.7" font-family="Times,serif" font-size="14.00" fill="#000000"> &#160;&#160;&#160;burn(amount: uint256)</text>
<text text-anchor="start" x="876.9241" y="-304.9" font-family="Times,serif" font-size="14.00" fill="#000000"> &#160;&#160;&#160;burnFrom(account: address, amount: uint256)</text>
</g>
<!-- 5&#45;&gt;0 -->
<g id="edge10" class="edge">
<title>5&#45;&gt;0</title>
<path fill="none" stroke="#000000" d="M1019.3347,-421.5042C1021.9874,-448.2343 1024.8244,-479.819 1026.6177,-508.4 1041.5442,-746.3001 1047.3779,-1027.045 1049.503,-1169.4271"/>
<polygon fill="none" stroke="#000000" points="1039.0076,-1169.8385 1049.9292,-1199.6876 1060.0055,-1169.5426 1039.0076,-1169.8385"/>
</g>
<!-- 5&#45;&gt;3 -->
<g id="edge12" class="edge">
<title>5&#45;&gt;3</title>
<path fill="none" stroke="#000000" stroke-dasharray="5,2" d="M1014.1734,-421.728C1017.4759,-573.9678 1022.6801,-954.5999 993.6177,-1003.8 977.6069,-1030.9048 956.6708,-1019.4909 932.6177,-1039.8 897.3233,-1069.6006 863.2811,-1106.4615 834.0909,-1141.5505"/>
<polygon fill="#000000" stroke="#000000" points="831.2155,-1139.5361 827.5528,-1149.4777 836.6157,-1143.9901 831.2155,-1139.5361"/>
</g>
<!-- 5&#45;&gt;4 -->
<g id="edge11" class="edge">
<title>5&#45;&gt;4</title>
<path fill="none" stroke="#000000" d="M973.9096,-421.568C962.7515,-439.5751 949.8103,-460.4599 935.9498,-482.8283"/>
<polygon fill="none" stroke="#000000" points="926.8326,-477.6073 919.9562,-508.639 944.6834,-488.6685 926.8326,-477.6073"/>
</g>
<!-- 6 -->
<g id="node7" class="node">
<title>6</title>
<polygon fill="#f2f2f2" stroke="#000000" points="594.0854,-246.3 594.0854,-471.9 851.15,-471.9 851.15,-246.3 594.0854,-246.3"/>
<text text-anchor="middle" x="722.6177" y="-455.3" font-family="Times,serif" font-size="14.00" fill="#000000">&lt;&lt;Abstract&gt;&gt;</text>
<text text-anchor="middle" x="722.6177" y="-438.5" font-family="Times,serif" font-size="14.00" fill="#000000">ERC20Mintable</text>
<polyline fill="none" stroke="#000000" points="594.0854,-430.3 851.15,-430.3 "/>
<text text-anchor="start" x="602.0854" y="-413.7" font-family="Times,serif" font-size="14.00" fill="#000000">Private:</text>
<text text-anchor="start" x="602.0854" y="-396.9" font-family="Times,serif" font-size="14.00" fill="#000000"> &#160;&#160;_mintingFinished: bool</text>
<polyline fill="none" stroke="#000000" points="594.0854,-388.7 851.15,-388.7 "/>
<text text-anchor="start" x="602.0854" y="-372.1" font-family="Times,serif" font-size="14.00" fill="#000000">Internal:</text>
<text text-anchor="start" x="602.0854" y="-355.3" font-family="Times,serif" font-size="14.00" fill="#000000"> &#160;&#160;&#160;_finishMinting()</text>
<text text-anchor="start" x="602.0854" y="-338.5" font-family="Times,serif" font-size="14.00" fill="#000000">Public:</text>
<text text-anchor="start" x="602.0854" y="-321.7" font-family="Times,serif" font-size="14.00" fill="#000000"> &#160;&#160;&#160;&lt;&lt;event&gt;&gt; MintFinished()</text>
<text text-anchor="start" x="602.0854" y="-304.9" font-family="Times,serif" font-size="14.00" fill="#000000"> &#160;&#160;&#160;&lt;&lt;modifier&gt;&gt; canMint()</text>
<text text-anchor="start" x="602.0854" y="-288.1" font-family="Times,serif" font-size="14.00" fill="#000000"> &#160;&#160;&#160;mintingFinished(): bool</text>
<text text-anchor="start" x="602.0854" y="-271.3" font-family="Times,serif" font-size="14.00" fill="#000000"> &#160;&#160;&#160;mint(account: address, amount: uint256)</text>
<text text-anchor="start" x="602.0854" y="-254.5" font-family="Times,serif" font-size="14.00" fill="#000000"> &#160;&#160;&#160;finishMinting()</text>
</g>
<!-- 6&#45;&gt;4 -->
<g id="edge13" class="edge">
<title>6&#45;&gt;4</title>
<path fill="none" stroke="#000000" d="M735.138,-472.0676C735.3833,-474.2809 735.6306,-476.5118 735.8796,-478.7587"/>
<polygon fill="none" stroke="#000000" points="725.4636,-480.0973 739.2044,-508.758 746.3358,-477.7839 725.4636,-480.0973"/>
</g>
<!-- 7 -->
<g id="node8" class="node">
<title>7</title>
<polygon fill="#f2f2f2" stroke="#000000" points="1762.0016,-1040.3 1762.0016,-1484.3 2055.2338,-1484.3 2055.2338,-1040.3 1762.0016,-1040.3"/>
<text text-anchor="middle" x="1908.6177" y="-1467.7" font-family="Times,serif" font-size="14.00" fill="#000000">&lt;&lt;Library&gt;&gt;</text>
<text text-anchor="middle" x="1908.6177" y="-1450.9" font-family="Times,serif" font-size="14.00" fill="#000000">EnumerableSet</text>
<polyline fill="none" stroke="#000000" points="1762.0016,-1442.7 2055.2338,-1442.7 "/>
<text text-anchor="middle" x="1908.6177" y="-1426.1" font-family="Times,serif" font-size="14.00" fill="#000000"> </text>
<polyline fill="none" stroke="#000000" points="1762.0016,-1417.9 2055.2338,-1417.9 "/>
<text text-anchor="start" x="1770.0016" y="-1401.3" font-family="Times,serif" font-size="14.00" fill="#000000">Private:</text>
<text text-anchor="start" x="1770.0016" y="-1384.5" font-family="Times,serif" font-size="14.00" fill="#000000"> &#160;&#160;&#160;_add(set: Set, value: bytes32): bool</text>
<text text-anchor="start" x="1770.0016" y="-1367.7" font-family="Times,serif" font-size="14.00" fill="#000000"> &#160;&#160;&#160;_remove(set: Set, value: bytes32): bool</text>
<text text-anchor="start" x="1770.0016" y="-1350.9" font-family="Times,serif" font-size="14.00" fill="#000000"> &#160;&#160;&#160;_contains(set: Set, value: bytes32): bool</text>
<text text-anchor="start" x="1770.0016" y="-1334.1" font-family="Times,serif" font-size="14.00" fill="#000000"> &#160;&#160;&#160;_length(set: Set): uint256</text>
<text text-anchor="start" x="1770.0016" y="-1317.3" font-family="Times,serif" font-size="14.00" fill="#000000"> &#160;&#160;&#160;_at(set: Set, index: uint256): bytes32</text>
<text text-anchor="start" x="1770.0016" y="-1300.5" font-family="Times,serif" font-size="14.00" fill="#000000">Internal:</text>
<text text-anchor="start" x="1770.0016" y="-1283.7" font-family="Times,serif" font-size="14.00" fill="#000000"> &#160;&#160;&#160;add(set: Bytes32Set, value: bytes32): bool</text>
<text text-anchor="start" x="1770.0016" y="-1266.9" font-family="Times,serif" font-size="14.00" fill="#000000"> &#160;&#160;&#160;remove(set: Bytes32Set, value: bytes32): bool</text>
<text text-anchor="start" x="1770.0016" y="-1250.1" font-family="Times,serif" font-size="14.00" fill="#000000"> &#160;&#160;&#160;contains(set: Bytes32Set, value: bytes32): bool</text>
<text text-anchor="start" x="1770.0016" y="-1233.3" font-family="Times,serif" font-size="14.00" fill="#000000"> &#160;&#160;&#160;length(set: Bytes32Set): uint256</text>
<text text-anchor="start" x="1770.0016" y="-1216.5" font-family="Times,serif" font-size="14.00" fill="#000000"> &#160;&#160;&#160;at(set: Bytes32Set, index: uint256): bytes32</text>
<text text-anchor="start" x="1770.0016" y="-1199.7" font-family="Times,serif" font-size="14.00" fill="#000000"> &#160;&#160;&#160;add(set: AddressSet, value: address): bool</text>
<text text-anchor="start" x="1770.0016" y="-1182.9" font-family="Times,serif" font-size="14.00" fill="#000000"> &#160;&#160;&#160;remove(set: AddressSet, value: address): bool</text>
<text text-anchor="start" x="1770.0016" y="-1166.1" font-family="Times,serif" font-size="14.00" fill="#000000"> &#160;&#160;&#160;contains(set: AddressSet, value: address): bool</text>
<text text-anchor="start" x="1770.0016" y="-1149.3" font-family="Times,serif" font-size="14.00" fill="#000000"> &#160;&#160;&#160;length(set: AddressSet): uint256</text>
<text text-anchor="start" x="1770.0016" y="-1132.5" font-family="Times,serif" font-size="14.00" fill="#000000"> &#160;&#160;&#160;at(set: AddressSet, index: uint256): address</text>
<text text-anchor="start" x="1770.0016" y="-1115.7" font-family="Times,serif" font-size="14.00" fill="#000000"> &#160;&#160;&#160;add(set: UintSet, value: uint256): bool</text>
<text text-anchor="start" x="1770.0016" y="-1098.9" font-family="Times,serif" font-size="14.00" fill="#000000"> &#160;&#160;&#160;remove(set: UintSet, value: uint256): bool</text>
<text text-anchor="start" x="1770.0016" y="-1082.1" font-family="Times,serif" font-size="14.00" fill="#000000"> &#160;&#160;&#160;contains(set: UintSet, value: uint256): bool</text>
<text text-anchor="start" x="1770.0016" y="-1065.3" font-family="Times,serif" font-size="14.00" fill="#000000"> &#160;&#160;&#160;length(set: UintSet): uint256</text>
<text text-anchor="start" x="1770.0016" y="-1048.5" font-family="Times,serif" font-size="14.00" fill="#000000"> &#160;&#160;&#160;at(set: UintSet, index: uint256): uint256</text>
</g>
<!-- 7struct0 -->
<g id="node9" class="node">
<title>7struct0</title>
<polygon fill="#f2f2f2" stroke="#000000" points="1933.8216,-714.5 1933.8216,-797.7 2167.4138,-797.7 2167.4138,-714.5 1933.8216,-714.5"/>
<text text-anchor="middle" x="2050.6177" y="-781.1" font-family="Times,serif" font-size="14.00" fill="#000000">&lt;&lt;struct&gt;&gt;</text>
<text text-anchor="middle" x="2050.6177" y="-764.3" font-family="Times,serif" font-size="14.00" fill="#000000">Set</text>
<polyline fill="none" stroke="#000000" points="1933.8216,-756.1 2167.4138,-756.1 "/>
<text text-anchor="start" x="1941.8216" y="-739.5" font-family="Times,serif" font-size="14.00" fill="#000000">_values: bytes32[]</text>
<text text-anchor="start" x="1941.8216" y="-722.7" font-family="Times,serif" font-size="14.00" fill="#000000">_indexes: mapping(bytes32=&gt;uint256)</text>
</g>
<!-- 7struct0&#45;&gt;7 -->
<g id="edge1" class="edge">
<title>7struct0&#45;&gt;7</title>
<path fill="none" stroke="#000000" d="M2038.8764,-797.9551C2024.4579,-849.354 1998.8647,-940.5883 1974.1584,-1028.6612"/>
<polygon fill="#000000" stroke="#000000" points="1974.1569,-1028.6668 1976.3876,-1035.5242 1970.9157,-1040.2208 1968.6849,-1033.3634 1974.1569,-1028.6668"/>
</g>
<!-- 7struct1 -->
<g id="node10" class="node">
<title>7struct1</title>
<polygon fill="#f2f2f2" stroke="#000000" points="2185.7306,-722.9 2185.7306,-789.3 2265.5048,-789.3 2265.5048,-722.9 2185.7306,-722.9"/>
<text text-anchor="middle" x="2225.6177" y="-772.7" font-family="Times,serif" font-size="14.00" fill="#000000">&lt;&lt;struct&gt;&gt;</text>
<text text-anchor="middle" x="2225.6177" y="-755.9" font-family="Times,serif" font-size="14.00" fill="#000000">Bytes32Set</text>
<polyline fill="none" stroke="#000000" points="2185.7306,-747.7 2265.5048,-747.7 "/>
<text text-anchor="start" x="2193.7306" y="-731.1" font-family="Times,serif" font-size="14.00" fill="#000000">_inner: Set</text>
</g>
<!-- 7struct1&#45;&gt;7 -->
<g id="edge2" class="edge">
<title>7struct1&#45;&gt;7</title>
<path fill="none" stroke="#000000" d="M2225.2485,-789.4879C2223.3757,-839.1627 2214.6136,-934.1445 2176.6177,-1003.8 2148.5117,-1055.3248 2106.6323,-1102.8169 2064.2844,-1142.6558"/>
<polygon fill="#000000" stroke="#000000" points="2064.0437,-1142.879 2062.3647,-1149.892 2055.2455,-1151.0395 2056.9244,-1144.0265 2064.0437,-1142.879"/>
</g>
<!-- 7struct2 -->
<g id="node11" class="node">
<title>7struct2</title>
<polygon fill="#f2f2f2" stroke="#000000" points="1739.7383,-722.9 1739.7383,-789.3 1819.4971,-789.3 1819.4971,-722.9 1739.7383,-722.9"/>
<text text-anchor="middle" x="1779.6177" y="-772.7" font-family="Times,serif" font-size="14.00" fill="#000000">&lt;&lt;struct&gt;&gt;</text>
<text text-anchor="middle" x="1779.6177" y="-755.9" font-family="Times,serif" font-size="14.00" fill="#000000">AddressSet</text>
<polyline fill="none" stroke="#000000" points="1739.7383,-747.7 1819.4971,-747.7 "/>
<text text-anchor="start" x="1747.7383" y="-731.1" font-family="Times,serif" font-size="14.00" fill="#000000">_inner: Set</text>
</g>
<!-- 7struct2&#45;&gt;7 -->
<g id="edge3" class="edge">
<title>7struct2&#45;&gt;7</title>
<path fill="none" stroke="#000000" d="M1785.0959,-789.6015C1793.1786,-837.4424 1809.432,-927.9398 1828.6177,-1003.8 1830.6728,-1011.926 1832.83,-1020.1749 1835.0652,-1028.4901"/>
<polygon fill="#000000" stroke="#000000" points="1835.1237,-1028.7055 1840.5588,-1033.4446 1838.2746,-1040.2844 1832.8395,-1035.5452 1835.1237,-1028.7055"/>
</g>
<!-- 7struct3 -->
<g id="node12" class="node">
<title>7struct3</title>
<polygon fill="#f2f2f2" stroke="#000000" points="1837.278,-722.9 1837.278,-789.3 1915.9574,-789.3 1915.9574,-722.9 1837.278,-722.9"/>
<text text-anchor="middle" x="1876.6177" y="-772.7" font-family="Times,serif" font-size="14.00" fill="#000000">&lt;&lt;struct&gt;&gt;</text>
<text text-anchor="middle" x="1876.6177" y="-755.9" font-family="Times,serif" font-size="14.00" fill="#000000">UintSet</text>
<polyline fill="none" stroke="#000000" points="1837.278,-747.7 1915.9574,-747.7 "/>
<text text-anchor="start" x="1845.278" y="-731.1" font-family="Times,serif" font-size="14.00" fill="#000000">_inner: Set</text>
</g>
<!-- 7struct3&#45;&gt;7 -->
<g id="edge4" class="edge">
<title>7struct3&#45;&gt;7</title>
<path fill="none" stroke="#000000" d="M1878.7173,-789.3132C1881.8277,-838.5155 1887.9277,-935.0106 1893.8113,-1028.0816"/>
<polygon fill="#000000" stroke="#000000" points="1893.8263,-1028.3202 1898.1969,-1034.0559 1894.5835,-1040.2963 1890.2128,-1034.5607 1893.8263,-1028.3202"/>
</g>
<!-- 8 -->
<g id="node13" class="node">
<title>8</title>
<polygon fill="#f2f2f2" stroke="#000000" points="1177.5597,-1132.7 1177.5597,-1391.9 1743.6757,-1391.9 1743.6757,-1132.7 1177.5597,-1132.7"/>
<text text-anchor="middle" x="1460.6177" y="-1375.3" font-family="Times,serif" font-size="14.00" fill="#000000">&lt;&lt;Library&gt;&gt;</text>
<text text-anchor="middle" x="1460.6177" y="-1358.5" font-family="Times,serif" font-size="14.00" fill="#000000">Address</text>
<polyline fill="none" stroke="#000000" points="1177.5597,-1350.3 1743.6757,-1350.3 "/>
<text text-anchor="middle" x="1460.6177" y="-1333.7" font-family="Times,serif" font-size="14.00" fill="#000000"> </text>
<polyline fill="none" stroke="#000000" points="1177.5597,-1325.5 1743.6757,-1325.5 "/>
<text text-anchor="start" x="1185.5597" y="-1308.9" font-family="Times,serif" font-size="14.00" fill="#000000">Private:</text>
<text text-anchor="start" x="1185.5597" y="-1292.1" font-family="Times,serif" font-size="14.00" fill="#000000"> &#160;&#160;&#160;_verifyCallResult(success: bool, returndata: bytes, errorMessage: string): bytes</text>
<text text-anchor="start" x="1185.5597" y="-1275.3" font-family="Times,serif" font-size="14.00" fill="#000000">Internal:</text>
<text text-anchor="start" x="1185.5597" y="-1258.5" font-family="Times,serif" font-size="14.00" fill="#000000"> &#160;&#160;&#160;isContract(account: address): bool</text>
<text text-anchor="start" x="1185.5597" y="-1241.7" font-family="Times,serif" font-size="14.00" fill="#000000"> &#160;&#160;&#160;sendValue(recipient: address, amount: uint256)</text>
<text text-anchor="start" x="1185.5597" y="-1224.9" font-family="Times,serif" font-size="14.00" fill="#000000"> &#160;&#160;&#160;functionCall(target: address, data: bytes): bytes</text>
<text text-anchor="start" x="1185.5597" y="-1208.1" font-family="Times,serif" font-size="14.00" fill="#000000"> &#160;&#160;&#160;functionCall(target: address, data: bytes, errorMessage: string): bytes</text>
<text text-anchor="start" x="1185.5597" y="-1191.3" font-family="Times,serif" font-size="14.00" fill="#000000"> &#160;&#160;&#160;functionCallWithValue(target: address, data: bytes, value: uint256): bytes</text>
<text text-anchor="start" x="1185.5597" y="-1174.5" font-family="Times,serif" font-size="14.00" fill="#000000"> &#160;&#160;&#160;functionCallWithValue(target: address, data: bytes, value: uint256, errorMessage: string): bytes</text>
<text text-anchor="start" x="1185.5597" y="-1157.7" font-family="Times,serif" font-size="14.00" fill="#000000"> &#160;&#160;&#160;functionStaticCall(target: address, data: bytes): bytes</text>
<text text-anchor="start" x="1185.5597" y="-1140.9" font-family="Times,serif" font-size="14.00" fill="#000000"> &#160;&#160;&#160;functionStaticCall(target: address, data: bytes, errorMessage: string): bytes</text>
</g>
<!-- 9 -->
<g id="node14" class="node">
<title>9</title>
<polygon fill="#f2f2f2" stroke="#000000" points="1078.3214,-550.9 1078.3214,-961.3 1688.914,-961.3 1688.914,-550.9 1078.3214,-550.9"/>
<text text-anchor="middle" x="1383.6177" y="-944.7" font-family="Times,serif" font-size="14.00" fill="#000000">&lt;&lt;Abstract&gt;&gt;</text>
<text text-anchor="middle" x="1383.6177" y="-927.9" font-family="Times,serif" font-size="14.00" fill="#000000">AccessControl</text>
<polyline fill="none" stroke="#000000" points="1078.3214,-919.7 1688.914,-919.7 "/>
<text text-anchor="start" x="1086.3214" y="-903.1" font-family="Times,serif" font-size="14.00" fill="#000000">Private:</text>
<text text-anchor="start" x="1086.3214" y="-886.3" font-family="Times,serif" font-size="14.00" fill="#000000"> &#160;&#160;_roles: mapping(bytes32=&gt;RoleData)</text>
<text text-anchor="start" x="1086.3214" y="-869.5" font-family="Times,serif" font-size="14.00" fill="#000000">Public:</text>
<text text-anchor="start" x="1086.3214" y="-852.7" font-family="Times,serif" font-size="14.00" fill="#000000"> &#160;&#160;DEFAULT_ADMIN_ROLE: bytes32</text>
<polyline fill="none" stroke="#000000" points="1078.3214,-844.5 1688.914,-844.5 "/>
<text text-anchor="start" x="1086.3214" y="-827.9" font-family="Times,serif" font-size="14.00" fill="#000000">Private:</text>
<text text-anchor="start" x="1086.3214" y="-811.1" font-family="Times,serif" font-size="14.00" fill="#000000"> &#160;&#160;&#160;_grantRole(role: bytes32, account: address)</text>
<text text-anchor="start" x="1086.3214" y="-794.3" font-family="Times,serif" font-size="14.00" fill="#000000"> &#160;&#160;&#160;_revokeRole(role: bytes32, account: address)</text>
<text text-anchor="start" x="1086.3214" y="-777.5" font-family="Times,serif" font-size="14.00" fill="#000000">Internal:</text>
<text text-anchor="start" x="1086.3214" y="-760.7" font-family="Times,serif" font-size="14.00" fill="#000000"> &#160;&#160;&#160;_setupRole(role: bytes32, account: address)</text>
<text text-anchor="start" x="1086.3214" y="-743.9" font-family="Times,serif" font-size="14.00" fill="#000000"> &#160;&#160;&#160;_setRoleAdmin(role: bytes32, adminRole: bytes32)</text>
<text text-anchor="start" x="1086.3214" y="-727.1" font-family="Times,serif" font-size="14.00" fill="#000000">Public:</text>
<text text-anchor="start" x="1086.3214" y="-710.3" font-family="Times,serif" font-size="14.00" fill="#000000"> &#160;&#160;&#160;&lt;&lt;event&gt;&gt; RoleAdminChanged(role: bytes32, previousAdminRole: bytes32, newAdminRole: bytes32)</text>
<text text-anchor="start" x="1086.3214" y="-693.5" font-family="Times,serif" font-size="14.00" fill="#000000"> &#160;&#160;&#160;&lt;&lt;event&gt;&gt; RoleGranted(role: bytes32, account: address, sender: address)</text>
<text text-anchor="start" x="1086.3214" y="-676.7" font-family="Times,serif" font-size="14.00" fill="#000000"> &#160;&#160;&#160;&lt;&lt;event&gt;&gt; RoleRevoked(role: bytes32, account: address, sender: address)</text>
<text text-anchor="start" x="1086.3214" y="-659.9" font-family="Times,serif" font-size="14.00" fill="#000000"> &#160;&#160;&#160;hasRole(role: bytes32, account: address): bool</text>
<text text-anchor="start" x="1086.3214" y="-643.1" font-family="Times,serif" font-size="14.00" fill="#000000"> &#160;&#160;&#160;getRoleMemberCount(role: bytes32): uint256</text>
<text text-anchor="start" x="1086.3214" y="-626.3" font-family="Times,serif" font-size="14.00" fill="#000000"> &#160;&#160;&#160;getRoleMember(role: bytes32, index: uint256): address</text>
<text text-anchor="start" x="1086.3214" y="-609.5" font-family="Times,serif" font-size="14.00" fill="#000000"> &#160;&#160;&#160;getRoleAdmin(role: bytes32): bytes32</text>
<text text-anchor="start" x="1086.3214" y="-592.7" font-family="Times,serif" font-size="14.00" fill="#000000"> &#160;&#160;&#160;grantRole(role: bytes32, account: address)</text>
<text text-anchor="start" x="1086.3214" y="-575.9" font-family="Times,serif" font-size="14.00" fill="#000000"> &#160;&#160;&#160;revokeRole(role: bytes32, account: address)</text>
<text text-anchor="start" x="1086.3214" y="-559.1" font-family="Times,serif" font-size="14.00" fill="#000000"> &#160;&#160;&#160;renounceRole(role: bytes32, account: address)</text>
</g>
<!-- 9&#45;&gt;0 -->
<g id="edge14" class="edge">
<title>9&#45;&gt;0</title>
<path fill="none" stroke="#000000" d="M1222.0309,-961.3545C1203.3903,-987.3256 1185.1586,-1013.8835 1168.6177,-1039.8 1141.5076,-1082.2764 1114.8925,-1131.6006 1093.8207,-1172.999"/>
<polygon fill="none" stroke="#000000" points="1084.4009,-1168.3599 1080.3419,-1199.8841 1103.1737,-1177.7716 1084.4009,-1168.3599"/>
</g>
<!-- 9&#45;&gt;7 -->
<g id="edge15" class="edge">
<title>9&#45;&gt;7</title>
<path fill="none" stroke="#000000" stroke-dasharray="5,2" d="M1669.275,-961.3972C1698.5392,-986.5798 1726.9175,-1012.9443 1752.6177,-1039.8 1753.3923,-1040.6095 1754.1661,-1041.4231 1754.9388,-1042.2408"/>
<polygon fill="#000000" stroke="#000000" points="1752.4968,-1044.7547 1761.8651,-1049.7029 1757.6274,-1039.9925 1752.4968,-1044.7547"/>
</g>
<!-- 9&#45;&gt;8 -->
<g id="edge16" class="edge">
<title>9&#45;&gt;8</title>
<path fill="none" stroke="#000000" stroke-dasharray="5,2" d="M1414.881,-961.626C1423.1051,-1015.6917 1431.7863,-1072.7619 1439.3496,-1122.4831"/>
<polygon fill="#000000" stroke="#000000" points="1435.9322,-1123.2916 1440.8963,-1132.6515 1442.8526,-1122.2388 1435.9322,-1123.2916"/>
</g>
<!-- 9struct0 -->
<g id="node15" class="node">
<title>9struct0</title>
<polygon fill="#f2f2f2" stroke="#000000" points="1173.8722,-317.5 1173.8722,-400.7 1401.3632,-400.7 1401.3632,-317.5 1173.8722,-317.5"/>
<text text-anchor="middle" x="1287.6177" y="-384.1" font-family="Times,serif" font-size="14.00" fill="#000000">&lt;&lt;struct&gt;&gt;</text>
<text text-anchor="middle" x="1287.6177" y="-367.3" font-family="Times,serif" font-size="14.00" fill="#000000">RoleData</text>
<polyline fill="none" stroke="#000000" points="1173.8722,-359.1 1401.3632,-359.1 "/>
<text text-anchor="start" x="1181.8722" y="-342.5" font-family="Times,serif" font-size="14.00" fill="#000000">members: EnumerableSet.AddressSet</text>
<text text-anchor="start" x="1181.8722" y="-325.7" font-family="Times,serif" font-size="14.00" fill="#000000">adminRole: bytes32</text>
</g>
<!-- 9struct0&#45;&gt;9 -->
<g id="edge5" class="edge">
<title>9struct0&#45;&gt;9</title>
<path fill="none" stroke="#000000" d="M1297.7099,-400.8356C1305.9448,-434.8905 1318.2667,-485.8466 1331.0254,-538.6089"/>
<polygon fill="#000000" stroke="#000000" points="1331.1055,-538.9408 1336.4038,-543.8325 1333.9261,-550.6046 1328.6279,-545.7129 1331.1055,-538.9408"/>
</g>
<!-- 10 -->
<g id="node16" class="node">
<title>10</title>
<polygon fill="#f2f2f2" stroke="#000000" points="1419.8183,-296.7 1419.8183,-421.5 1605.4171,-421.5 1605.4171,-296.7 1419.8183,-296.7"/>
<text text-anchor="middle" x="1512.6177" y="-404.9" font-family="Times,serif" font-size="14.00" fill="#000000">Roles</text>
<polyline fill="none" stroke="#000000" points="1419.8183,-396.7 1605.4171,-396.7 "/>
<text text-anchor="start" x="1427.8183" y="-380.1" font-family="Times,serif" font-size="14.00" fill="#000000">Public:</text>
<text text-anchor="start" x="1427.8183" y="-363.3" font-family="Times,serif" font-size="14.00" fill="#000000"> &#160;&#160;MINTER_ROLE: bytes32</text>
<polyline fill="none" stroke="#000000" points="1419.8183,-355.1 1605.4171,-355.1 "/>
<text text-anchor="start" x="1427.8183" y="-338.5" font-family="Times,serif" font-size="14.00" fill="#000000">Public:</text>
<text text-anchor="start" x="1427.8183" y="-321.7" font-family="Times,serif" font-size="14.00" fill="#000000"> &#160;&#160;&#160;&lt;&lt;modifier&gt;&gt; onlyMinter()</text>
<text text-anchor="start" x="1427.8183" y="-304.9" font-family="Times,serif" font-size="14.00" fill="#000000"> &#160;&#160;&#160;constructor()</text>
</g>
<!-- 10&#45;&gt;9 -->
<g id="edge17" class="edge">
<title>10&#45;&gt;9</title>
<path fill="none" stroke="#000000" d="M1492.3195,-421.568C1483.1316,-449.844 1471.638,-485.2157 1459.5927,-522.2853"/>
<polygon fill="none" stroke="#000000" points="1449.5881,-519.0978 1450.3031,-550.8742 1469.5602,-525.5875 1449.5881,-519.0978"/>
</g>
<!-- 11 -->
<g id="node17" class="node">
<title>11</title>
<polygon fill="#f2f2f2" stroke="#000000" points="97.1064,-313.5 97.1064,-404.7 480.129,-404.7 480.129,-313.5 97.1064,-313.5"/>
<text text-anchor="middle" x="288.6177" y="-388.1" font-family="Times,serif" font-size="14.00" fill="#000000">TokenRecover</text>
<polyline fill="none" stroke="#000000" points="97.1064,-379.9 480.129,-379.9 "/>
<text text-anchor="middle" x="288.6177" y="-363.3" font-family="Times,serif" font-size="14.00" fill="#000000"> </text>
<polyline fill="none" stroke="#000000" points="97.1064,-355.1 480.129,-355.1 "/>
<text text-anchor="start" x="105.1064" y="-338.5" font-family="Times,serif" font-size="14.00" fill="#000000">Public:</text>
<text text-anchor="start" x="105.1064" y="-321.7" font-family="Times,serif" font-size="14.00" fill="#000000"> &#160;&#160;&#160;recoverERC20(tokenAddress: address, tokenAmount: uint256)</text>
</g>
<!-- 11&#45;&gt;1 -->
<g id="edge18" class="edge">
<title>11&#45;&gt;1</title>
<path fill="none" stroke="#000000" d="M288.6177,-405.0288C288.6177,-457.68 288.6177,-546.3933 288.6177,-621.4656"/>
<polygon fill="none" stroke="#000000" points="278.1178,-621.5886 288.6177,-651.5886 299.1178,-621.5887 278.1178,-621.5886"/>
</g>
<!-- 11&#45;&gt;2 -->
<g id="edge19" class="edge">
<title>11&#45;&gt;2</title>
<path fill="none" stroke="#000000" stroke-dasharray="5,2" d="M158.1161,-404.8536C111.5624,-428.2138 64.1242,-461.7921 37.6177,-508.4 -16.8057,-604.0956 -7.497,-903.3797 37.6177,-1003.8 59.8423,-1053.2695 96.7316,-1097.1274 136.9067,-1134.0301"/>
<polygon fill="#000000" stroke="#000000" points="134.6772,-1136.7327 144.4438,-1140.8395 139.3699,-1131.5386 134.6772,-1136.7327"/>
</g>
<!-- 12 -->
<g id="node18" class="node">
<title>12</title>
<polygon fill="#f2f2f2" stroke="#000000" points="87.3806,-.5 87.3806,-209.3 489.8548,-209.3 489.8548,-.5 87.3806,-.5"/>
<text text-anchor="middle" x="288.6177" y="-192.7" font-family="Times,serif" font-size="14.00" fill="#000000">ServiceReceiver</text>
<polyline fill="none" stroke="#000000" points="87.3806,-184.5 489.8548,-184.5 "/>
<text text-anchor="start" x="95.3806" y="-167.9" font-family="Times,serif" font-size="14.00" fill="#000000">Private:</text>
<text text-anchor="start" x="95.3806" y="-151.1" font-family="Times,serif" font-size="14.00" fill="#000000"> &#160;&#160;_prices: mapping(bytes32=&gt;uint256)</text>
<polyline fill="none" stroke="#000000" points="87.3806,-142.9 489.8548,-142.9 "/>
<text text-anchor="start" x="95.3806" y="-126.3" font-family="Times,serif" font-size="14.00" fill="#000000">Private:</text>
<text text-anchor="start" x="95.3806" y="-109.5" font-family="Times,serif" font-size="14.00" fill="#000000"> &#160;&#160;&#160;_toBytes32(serviceName: string): bytes32</text>
<text text-anchor="start" x="95.3806" y="-92.7" font-family="Times,serif" font-size="14.00" fill="#000000">Public:</text>
<text text-anchor="start" x="95.3806" y="-75.9" font-family="Times,serif" font-size="14.00" fill="#000000"> &#160;&#160;&#160;&lt;&lt;payable&gt;&gt; pay(serviceName: string)</text>
<text text-anchor="start" x="95.3806" y="-59.1" font-family="Times,serif" font-size="14.00" fill="#000000"> &#160;&#160;&#160;&lt;&lt;event&gt;&gt; Created(serviceName: string, serviceAddress: address)</text>
<text text-anchor="start" x="95.3806" y="-42.3" font-family="Times,serif" font-size="14.00" fill="#000000"> &#160;&#160;&#160;getPrice(serviceName: string): uint256</text>
<text text-anchor="start" x="95.3806" y="-25.5" font-family="Times,serif" font-size="14.00" fill="#000000"> &#160;&#160;&#160;setPrice(serviceName: string, amount: uint256)</text>
<text text-anchor="start" x="95.3806" y="-8.7" font-family="Times,serif" font-size="14.00" fill="#000000"> &#160;&#160;&#160;withdraw(amount: uint256)</text>
</g>
<!-- 12&#45;&gt;11 -->
<g id="edge20" class="edge">
<title>12&#45;&gt;11</title>
<path fill="none" stroke="#000000" d="M288.6177,-209.3933C288.6177,-234.1062 288.6177,-259.9973 288.6177,-283.1656"/>
<polygon fill="none" stroke="#000000" points="278.1178,-283.1997 288.6177,-313.1997 299.1178,-283.1997 278.1178,-283.1997"/>
</g>
<!-- 13 -->
<g id="node19" class="node">
<title>13</title>
<polygon fill="#f2f2f2" stroke="#000000" points="1623.5776,-305.1 1623.5776,-413.1 1939.6578,-413.1 1939.6578,-305.1 1623.5776,-305.1"/>
<text text-anchor="middle" x="1781.6177" y="-396.5" font-family="Times,serif" font-size="14.00" fill="#000000">&lt;&lt;Abstract&gt;&gt;</text>
<text text-anchor="middle" x="1781.6177" y="-379.7" font-family="Times,serif" font-size="14.00" fill="#000000">ServicePayer</text>
<polyline fill="none" stroke="#000000" points="1623.5776,-371.5 1939.6578,-371.5 "/>
<text text-anchor="middle" x="1781.6177" y="-354.9" font-family="Times,serif" font-size="14.00" fill="#000000"> </text>
<polyline fill="none" stroke="#000000" points="1623.5776,-346.7 1939.6578,-346.7 "/>
<text text-anchor="start" x="1631.5776" y="-330.1" font-family="Times,serif" font-size="14.00" fill="#000000">Public:</text>
<text text-anchor="start" x="1631.5776" y="-313.3" font-family="Times,serif" font-size="14.00" fill="#000000"> &#160;&#160;&#160;constructor(receiver: address, serviceName: string)</text>
</g>
<!-- 14 -->
<g id="node20" class="node">
<title>14</title>
<polygon fill="#f2f2f2" stroke="#000000" points="707.3879,-34.1 707.3879,-175.7 1317.8475,-175.7 1317.8475,-34.1 707.3879,-34.1"/>
<text text-anchor="middle" x="1012.6177" y="-159.1" font-family="Times,serif" font-size="14.00" fill="#000000">UnlimitedERC20</text>
<polyline fill="none" stroke="#000000" points="707.3879,-150.9 1317.8475,-150.9 "/>
<text text-anchor="middle" x="1012.6177" y="-134.3" font-family="Times,serif" font-size="14.00" fill="#000000"> </text>
<polyline fill="none" stroke="#000000" points="707.3879,-126.1 1317.8475,-126.1 "/>
<text text-anchor="start" x="715.3879" y="-109.5" font-family="Times,serif" font-size="14.00" fill="#000000">Internal:</text>
<text text-anchor="start" x="715.3879" y="-92.7" font-family="Times,serif" font-size="14.00" fill="#000000"> &#160;&#160;&#160;_mint(account: address, amount: uint256)</text>
<text text-anchor="start" x="715.3879" y="-75.9" font-family="Times,serif" font-size="14.00" fill="#000000"> &#160;&#160;&#160;_finishMinting()</text>
<text text-anchor="start" x="715.3879" y="-59.1" font-family="Times,serif" font-size="14.00" fill="#000000">Public:</text>
<text text-anchor="start" x="715.3879" y="-42.3" font-family="Times,serif" font-size="14.00" fill="#000000"> &#160;&#160;&#160;constructor(name: string, symbol: string, decimals: uint8, initialBalance: uint256, feeReceiver: address)</text>
</g>
<!-- 14&#45;&gt;1 -->
<g id="edge23" class="edge">
<title>14&#45;&gt;1</title>
<path fill="none" stroke="#000000" d="M707.2204,-169.124C662.487,-188.3616 619.7376,-213.3489 584.6177,-245.8 504.4117,-319.911 542.613,-376.9173 489.6177,-472.4 460.3123,-525.2 423.2156,-580.058 388.8925,-627.3022"/>
<polygon fill="none" stroke="#000000" points="380.3184,-621.238 370.985,-651.6212 397.2285,-633.6899 380.3184,-621.238"/>
</g>
<!-- 14&#45;&gt;5 -->
<g id="edge22" class="edge">
<title>14&#45;&gt;5</title>
<path fill="none" stroke="#000000" d="M1012.6177,-175.7089C1012.6177,-203.691 1012.6177,-236.2348 1012.6177,-266.0733"/>
<polygon fill="none" stroke="#000000" points="1002.1178,-266.4628 1012.6177,-296.4628 1023.1178,-266.4628 1002.1178,-266.4628"/>
</g>
<!-- 14&#45;&gt;6 -->
<g id="edge21" class="edge">
<title>14&#45;&gt;6</title>
<path fill="none" stroke="#000000" d="M931.8365,-175.7089C913.7906,-191.5271 894.0816,-208.803 874.2072,-226.2239"/>
<polygon fill="none" stroke="#000000" points="866.9751,-218.6004 851.3364,-246.2714 880.8176,-234.3924 866.9751,-218.6004"/>
</g>
<!-- 14&#45;&gt;10 -->
<g id="edge24" class="edge">
<title>14&#45;&gt;10</title>
<path fill="none" stroke="#000000" d="M1272.4082,-175.7336C1320.4422,-194.5977 1368.6408,-217.7523 1410.6177,-245.8 1422.7694,-253.9194 1434.4245,-263.8075 1445.232,-274.3236"/>
<polygon fill="none" stroke="#000000" points="1437.8779,-281.829 1466.1125,-296.4255 1453.1429,-267.4076 1437.8779,-281.829"/>
</g>
<!-- 14&#45;&gt;13 -->
<g id="edge25" class="edge">
<title>14&#45;&gt;13</title>
<path fill="none" stroke="#000000" d="M1318.1608,-153.7664C1415.3654,-175.232 1521.7119,-205.087 1614.6177,-245.8 1640.168,-256.9966 1665.9795,-272.1884 1689.4181,-287.8071"/>
<polygon fill="none" stroke="#000000" points="1683.639,-296.5776 1714.262,-305.0913 1695.6321,-279.3391 1683.639,-296.5776"/>
</g>
</g>
</svg>
